<?xml version="1.0" standalone="no"?>
<!DOCTYPE svg PUBLIC "-//W3C//DTD SVG 20010904//EN"
 "http://www.w3.org/TR/2001/REC-SVG-20010904/DTD/svg10.dtd">
<svg version="1.0" xmlns="http://www.w3.org/2000/svg"
 width="700.000000pt" height="700.000000pt" viewBox="0 0 700.000000 700.000000"
 preserveAspectRatio="xMidYMid meet">
<metadata>
Created by potrace 1.14, written by Peter Selinger 2001-2017
</metadata>
<g transform="translate(0.000000,700.000000) scale(0.100000,-0.100000)"
fill="#000000" stroke="none">
<path d="M3670 6150 c-187 -28 -323 -66 -473 -133 -436 -193 -772 -546 -943
-988 -85 -221 -122 -431 -119 -682 l1 -147 -45 -22 c-108 -53 -282 -167 -374
-246 -74 -64 -194 -194 -256 -277 -204 -272 -316 -562 -356 -920 -6 -51 -6
-280 0 -320 2 -16 7 -55 10 -85 13 -104 58 -293 85 -355 4 -11 23 -56 40 -100
43 -106 99 -210 173 -320 33 -49 63 -92 66 -95 3 -3 29 -32 56 -65 246 -295
621 -517 1004 -595 298 -60 605 -44 891 45 99 31 123 41 250 102 399 190 724
549 880 972 34 92 77 248 85 306 3 22 7 49 10 60 12 57 18 165 18 298 l-1 148
52 26 c348 174 622 450 797 803 54 109 122 291 134 361 3 18 8 35 10 39 2 3 7
29 11 56 3 27 8 52 10 55 25 43 25 469 -1 583 -3 11 -7 32 -9 46 -18 113 -86
316 -148 442 -182 373 -460 655 -824 836 -143 71 -333 137 -454 157 -19 3 -46
7 -60 10 -139 25 -369 27 -520 5z"/>
</g>
</svg>
