<?xml version="1.0" standalone="no"?>
<!DOCTYPE svg PUBLIC "-//W3C//DTD SVG 20010904//EN"
 "http://www.w3.org/TR/2001/REC-SVG-20010904/DTD/svg10.dtd">
<svg version="1.0" xmlns="http://www.w3.org/2000/svg"
 width="113.000000pt" height="113.000000pt" viewBox="0 0 113.000000 113.000000"
 preserveAspectRatio="xMidYMid meet">
<metadata>
Created by potrace 1.14, written by Peter Selinger 2001-2017
</metadata>
<g transform="translate(0.000000,113.000000) scale(0.100000,-0.100000)"
fill="#000000" stroke="none">
<path d="M157 1112 c-7 -11 -8 -511 -1 -534 7 -24 43 -23 52 2 4 11 7 101 7
199 -1 99 2 178 6 175 4 -2 49 -88 99 -189 78 -159 94 -185 114 -185 19 0 35
27 119 198 l96 197 0 -417 c1 -392 2 -418 19 -427 36 -19 46 2 47 93 0 46 2
87 5 90 3 2 38 6 79 7 123 4 192 55 207 156 12 79 -24 156 -89 190 -26 13 -93
21 -188 23 -13 0 -15 26 -15 210 1 215 0 220 -38 220 -6 0 -63 -104 -126 -230
l-115 -230 -115 227 c-91 181 -119 229 -137 231 -11 2 -24 -1 -26 -6z m718
-496 c96 -40 98 -182 4 -220 -22 -9 -68 -16 -102 -16 l-63 0 2 118 c0 64 2
120 3 125 2 13 120 8 156 -7z"/>
</g>
</svg>
