<svg width="192" height="156" viewBox="0 0 192 156" fill="none" xmlns="http://www.w3.org/2000/svg">
<path d="M97.4761 115.048C97.4761 118.286 97.6189 120.857 97.9046 122.762C98.2855 124.667 98.9522 126.143 99.9046 127.191C100.952 128.143 102.333 128.809 104.047 129.19C105.857 129.476 108.238 129.619 111.19 129.619V134.762C108.619 134.762 105.571 134.762 102.048 134.762C98.5236 134.667 94.857 134.619 91.0474 134.619C87.2379 134.619 83.5236 134.667 79.9046 134.762C76.3808 134.762 73.3331 134.81 70.7617 134.905V129.619C73.6189 129.619 75.9046 129.476 77.6189 129.19C79.4284 128.809 80.857 128.143 81.9046 127.191C82.857 126.143 83.5236 124.667 83.9046 122.762C84.2855 120.857 84.476 118.286 84.476 115.048V45.619C84.476 42.7619 84.3332 40.4762 84.0474 38.7619C83.7618 37.0476 83.1427 35.762 82.1903 34.9047C81.2379 34.0477 79.9046 33.4763 78.1903 33.1904C76.476 32.9048 74.1426 32.7619 71.1904 32.7619V27.619C73.1902 27.7143 75.8093 27.8095 79.0474 27.9048C82.3808 27.9048 85.8093 27.8571 89.3331 27.762C92.857 27.762 96.2378 27.762 99.4759 27.762C102.714 27.6667 105.333 27.5713 107.333 27.4761C112.762 27.4761 117.762 28.2382 122.333 29.7618C126.904 31.1905 130.809 33.2381 134.048 35.9048C137.286 38.6667 139.809 41.9524 141.619 45.7618C143.428 49.4763 144.333 53.6667 144.333 58.3332C144.333 63.0001 143.476 67.2381 141.762 71.0476C140.047 74.7619 137.762 77.9523 134.905 80.619C132.047 83.381 128.714 85.5713 124.905 87.1905C121.19 88.7144 117.238 89.5238 113.047 89.619C110.952 89.7143 108.476 89.7618 105.619 89.7618C102.762 89.7618 100.047 89.7618 97.4761 89.7618V115.048ZM97.4761 82.4762C99.7618 82.7619 102.095 82.9524 104.476 83.0476C106.952 83.1428 109.047 83.1428 110.762 83.0476C116.476 82.8571 121.143 80.7144 124.762 76.619C128.476 72.4285 130.333 66.6667 130.333 59.3333C130.333 55.0476 129.571 51.2856 128.047 48.0475C126.619 44.8096 124.762 42.1428 122.476 40.0475C120.095 37.8571 117.333 36.2382 114.19 35.1905C111.143 34.1428 108 33.619 104.762 33.619C103.714 33.619 102.428 33.7143 100.905 33.9048C99.3809 34 98.238 34.0952 97.4761 34.1905V82.4762Z" fill="#83C5BE"/>
<path d="M77.2105 107.884C76.7249 107.962 76.0492 108.03 75.1837 108.087C74.3274 108.175 73.4042 108.096 72.4138 107.851C71.4234 107.606 70.4778 107.059 69.5773 106.21C68.686 105.392 67.9873 104.142 67.4814 102.461C66.9005 100.531 66.6525 98.2973 66.7373 95.7595C66.844 93.1814 67.0936 90.4582 67.4865 87.5901C67.8793 84.7221 68.2348 81.8991 68.553 79.1215C68.8032 76.9074 68.7736 75.2867 68.4644 74.2595C68.1553 73.2323 67.6116 72.8358 66.8333 73.07C65.9617 73.3324 64.8652 74.4262 63.5436 76.3517C62.2438 78.2368 60.8794 80.9221 59.4502 84.4075C59.0837 85.3326 58.6349 86.605 58.1039 88.2246C57.5636 89.813 57.0078 91.5759 56.4367 93.5132C55.8563 95.4193 55.3007 97.3519 54.77 99.3108C54.2612 101.229 53.8237 102.991 53.4578 104.594C53.1229 106.189 52.9062 107.442 52.8073 108.355C52.6932 109.442 52.423 110.236 51.9968 110.738C51.58 111.27 51.1383 111.607 50.6714 111.748C50.2666 111.869 49.8759 111.868 49.4989 111.744C49.1532 111.61 48.9336 111.388 48.8399 111.077C48.7837 110.89 48.7835 110.72 48.8394 110.568C48.9136 110.138 49.1401 109.085 49.5185 107.41C49.8967 105.734 50.2435 103.559 50.5586 100.884C50.8644 98.178 51.011 95.1124 50.9985 91.6873C51.0078 88.2217 50.6697 84.5044 49.9841 80.535C49.9152 80.0805 49.8058 79.6041 49.6559 79.1061C49.328 78.0166 48.9022 77.2791 48.3788 76.8934C47.8461 76.4767 47.2682 76.3621 46.6458 76.5493C45.961 76.7555 45.2717 77.2855 44.5781 78.1393C43.8846 78.9931 43.2551 80.1161 42.6896 81.5084C41.7236 83.938 40.9021 86.1713 40.225 88.2083C39.5387 90.2141 38.946 92.1919 38.4463 94.1416C37.978 96.0818 37.5424 98.131 37.1396 100.289C36.768 102.438 36.4042 104.839 36.0486 107.492C35.6836 110.114 35.2754 113.157 34.8239 116.619C34.7559 117.183 34.4902 117.653 34.0266 118.031C33.5942 118.398 33.1601 118.648 32.7242 118.779C32.2884 118.91 31.9023 118.925 31.566 118.822C31.2295 118.72 31.0566 118.483 31.0468 118.113C31.4814 116.624 31.8799 114.79 32.2421 112.61C32.6045 110.43 32.9152 108.079 33.1744 105.556C33.4555 102.994 33.6539 100.439 33.7699 97.8915C33.9076 95.3039 33.9631 92.8939 33.9361 90.6615C33.8997 88.3979 33.761 86.4706 33.5198 84.8797C33.4322 84.3628 33.3383 83.8819 33.2382 83.4368C33.1383 82.9916 33.0273 82.5667 32.9054 82.162C32.1841 79.765 31.155 78.2077 29.8186 77.4895C28.5133 76.7622 27.0669 76.6374 25.4793 77.1153C24.1408 77.5182 22.7715 78.2699 21.3712 79.3702C19.993 80.4302 18.6537 81.7329 17.3536 83.2785C16.0845 84.8146 14.9294 86.5033 13.888 88.3445C12.8372 90.1545 11.9905 92.0219 11.3477 93.9468C10.6955 95.8406 10.3174 97.6858 10.2132 99.4825C10.1552 100.756 10.1765 101.955 10.2772 103.079C10.3996 104.162 10.5967 105.155 10.8684 106.058C11.3931 107.801 12.1494 109.186 13.1374 110.213C14.1565 111.23 15.289 111.891 16.5347 112.195C17.8116 112.489 19.0726 112.449 20.3177 112.074C20.7535 111.943 21.2219 111.751 21.7231 111.499C22.2459 111.205 22.6753 110.94 23.0113 110.703C23.811 110.089 24.5234 109.298 25.1483 108.329C25.7639 107.329 26.2534 106.248 26.6165 105.086C26.9798 103.924 27.1983 102.789 27.272 101.681C27.3456 100.572 27.2513 99.582 26.9891 98.7104C26.7174 97.8077 26.2435 97.1357 25.5674 96.6941C24.8912 96.2527 24.0085 96.1958 22.919 96.5237C22.7945 96.5612 22.659 96.619 22.5127 96.6968C22.3882 96.7343 22.2482 96.7765 22.0926 96.8233L21.9524 96.8655C21.7347 96.9312 21.5229 96.9609 21.3175 96.9548C21.1024 96.9176 20.9763 96.8369 20.9388 96.7124C20.9013 96.5879 21.0148 96.4009 21.2794 96.1516C21.5748 95.8929 22.1584 95.6323 23.0301 95.3701C24.4308 94.9484 25.6001 95.0548 26.5379 95.689C27.4974 96.2828 28.1693 97.218 28.5534 98.4942C28.9001 99.6459 28.9636 100.985 28.744 102.511C28.5243 104.037 27.9747 105.594 27.0948 107.183C26.2151 108.772 24.9431 110.241 23.2784 111.591C22.289 112.364 21.265 112.91 20.2068 113.228C18.6503 113.697 17.0546 113.753 15.4196 113.396C13.7752 113.008 12.297 112.214 10.985 111.013C9.66368 109.781 8.6985 108.154 8.08947 106.131C7.81776 105.228 7.62536 104.25 7.51231 103.198C7.421 102.105 7.44485 100.944 7.58384 99.7137C7.88962 97.0077 8.60959 94.3807 9.74374 91.8325C10.8997 89.244 12.3267 86.8794 14.0248 84.7387C15.7135 82.567 17.5364 80.7282 19.4936 79.2226C21.4508 77.7167 23.3787 76.6781 25.2775 76.1067C27.5811 75.4132 29.6861 75.5266 31.5925 76.4465C33.53 77.357 34.9578 79.3376 35.8761 82.3881C35.9418 82.606 36.0152 82.9064 36.0964 83.2893C36.1996 83.6317 36.2636 83.901 36.2887 84.0972C36.5798 85.741 36.7308 87.4269 36.7418 89.1549C36.7838 90.8736 36.7604 92.5442 36.6715 94.1666C36.6532 94.4436 36.6549 94.7316 36.677 95.0306C36.7209 95.289 36.7568 95.4648 36.7849 95.5582C36.8318 95.7138 36.8864 95.7823 36.9485 95.7635C37.0732 95.726 37.2237 95.3243 37.4005 94.5582C37.7229 93.0353 38.0192 91.707 38.289 90.5734C38.5805 89.3992 38.8847 88.3232 39.2015 87.3452C39.5181 86.3672 39.8768 85.3595 40.2776 84.3223C40.6782 83.2852 41.1442 82.1263 41.6756 80.8462C42.2939 79.404 43.1226 78.153 44.1615 77.0935C45.2004 76.0338 46.2959 75.3308 47.4476 74.9841C48.4748 74.6749 49.4496 74.7549 50.3716 75.2242C51.2937 75.6936 52.003 76.7531 52.4996 78.4029C52.5559 78.5897 52.6026 78.7453 52.6401 78.8698C52.6776 78.9943 52.7183 79.1858 52.7622 79.4443C53.3815 82.5169 53.6754 85.6366 53.6442 88.8032C53.6033 91.9387 53.5408 95.1147 53.4567 98.3313C53.9719 96.5466 54.7078 94.2543 55.6643 91.4542C56.6206 88.654 57.7094 85.7294 58.9303 82.6799C60.4276 78.9701 61.9786 76.059 63.5834 73.9464C65.1881 71.8338 66.6598 70.5762 67.9983 70.1733C69.6792 69.6672 70.8289 70.4415 71.4473 72.496C71.6815 73.2742 71.8069 74.2549 71.8237 75.438C71.8714 76.612 71.7667 77.8996 71.5096 79.3009C71.237 80.8767 70.9522 82.6938 70.6552 84.7522C70.3799 86.7701 70.1639 88.8721 70.0071 91.058C69.8503 93.244 69.8086 95.3614 69.8822 97.4101C69.9774 99.4184 70.2639 101.216 70.7418 102.804C71.2571 104.516 72.0632 105.784 73.1599 106.608C74.2973 107.454 75.8371 107.551 77.7793 106.898L78.0596 106.814C78.5264 106.673 78.7881 106.696 78.8443 106.883C78.8818 107.008 78.7636 107.179 78.4897 107.397C78.2159 107.615 77.7895 107.778 77.2105 107.884ZM86.9798 99.2402C86.6467 99.3743 86.2342 99.4136 85.7421 99.358C85.2501 99.3024 84.7579 99.0772 84.2657 98.6822C83.8045 98.2778 83.438 97.6242 83.1663 96.7215C82.9414 95.9746 82.8097 95.0296 82.7713 93.8869C82.5758 94.5908 82.3136 95.4676 81.9844 96.5172C81.646 97.5357 81.2327 98.4748 80.7447 99.3346C80.322 100.073 79.8834 100.646 79.4292 101.055C78.9749 101.463 78.53 101.733 78.0941 101.864C77.2849 102.107 76.5234 101.946 75.8098 101.38C75.0869 100.783 74.5473 99.893 74.1914 98.7101C73.8165 97.465 73.7015 95.9549 73.8462 94.18C73.991 92.405 74.506 90.4507 75.3915 88.3171C75.9663 86.9559 76.7934 85.7564 77.8729 84.7185C78.9741 83.6401 80.1473 82.9135 81.3924 82.5388C82.1085 82.3232 82.8308 82.2417 83.5594 82.294C84.2787 82.315 84.967 82.5152 85.6244 82.8945C85.9078 83.0469 86.0917 83.2631 86.176 83.5432C86.2322 83.73 86.2013 83.909 86.0832 84.0805C85.9649 84.2517 85.772 84.3438 85.5043 84.3564C84.834 83.3701 83.9384 83.0455 82.8178 83.3829C82.2886 83.5421 81.7332 83.8961 81.1514 84.4445C80.2616 85.3234 79.433 86.5743 78.6654 88.1973C77.929 89.8109 77.3466 91.4289 76.9184 93.0516C76.8501 93.2759 76.7555 93.6948 76.6346 94.3083C76.5449 94.9123 76.4739 95.5788 76.4216 96.3074C76.3693 97.036 76.3902 97.7257 76.4842 98.3764C76.5094 98.5725 76.5359 98.7173 76.5641 98.8107C76.5828 98.873 76.6156 98.9819 76.6624 99.1375C76.9716 100.165 77.5154 100.561 78.2936 100.327C79.2274 100.046 80.0797 99.0426 80.8503 97.3169C81.3598 96.0771 81.7773 94.8142 82.1031 93.5279C82.4289 92.2417 82.7468 90.8728 83.0569 89.4216C83.2708 88.4405 83.4957 87.609 83.7318 86.9269C83.9678 86.2449 84.4594 85.7912 85.2064 85.5665C85.5488 85.4633 85.9053 85.4069 86.2758 85.3973C86.6464 85.3876 87.009 85.2954 87.3638 85.1208C87.1898 85.4447 86.9879 86.0148 86.7582 86.8308C86.5597 87.6373 86.3581 88.5467 86.1536 89.5589C85.9489 90.571 85.7958 91.5846 85.694 92.5998C85.5921 93.6149 85.5617 94.4728 85.6029 95.1733C85.628 95.3696 85.6609 95.6482 85.7018 96.0093C85.7737 96.3611 85.8331 96.6149 85.8799 96.7704C86.1423 97.6421 86.5225 98.0029 87.0205 97.853C87.5186 97.703 87.9587 97.248 88.341 96.4879C88.7544 95.7186 89.1101 94.8137 89.4081 93.7734C89.706 92.7331 89.9573 91.707 90.162 90.6949C90.3572 89.6515 90.5105 88.8076 90.622 88.1629C90.6528 87.8143 90.7927 87.6023 91.0418 87.5273C91.1974 87.4805 91.308 87.566 91.3735 87.7839C91.4017 87.8773 91.4066 88.0626 91.3882 88.3398C91.2487 89.2303 91.0645 90.2534 90.8352 91.4088C90.5964 92.533 90.3063 93.6558 89.9648 94.777C89.614 95.8671 89.1898 96.8265 88.6924 97.6553C88.2167 98.4434 87.6458 98.9717 86.9798 99.2402ZM98.8378 95.5691C98.2464 95.7471 97.5847 95.6916 96.8527 95.4027C96.1114 95.0827 95.5767 94.3779 95.2487 93.2884C94.9958 92.448 94.9077 91.4222 94.9844 90.2108C95.0394 89.04 95.2282 87.8629 95.5509 86.6793C95.9049 85.4865 96.1281 84.5365 96.2209 83.8296C96.2394 83.5526 96.2205 83.3207 96.1642 83.1339C95.9956 82.5736 95.5157 82.2766 94.7248 82.2431C93.9651 82.2002 93.0202 82.3319 91.8903 82.638L91.7937 84.3476C91.7511 85.4467 91.6199 86.7592 91.4004 88.2851C91.2117 89.8018 90.9313 91.2949 90.5591 92.765C90.2179 94.2257 89.7706 95.4466 89.2173 96.4279C89.1738 96.509 89.1053 96.5635 89.0119 96.5915C88.8874 96.629 88.7861 96.5746 88.7082 96.4283C88.5991 96.2915 88.6051 96.0859 88.7264 95.8118C89.4531 93.8278 90.0038 91.7099 90.3785 89.4584C90.7439 87.1758 90.9441 84.9088 90.9795 82.6575C91.0459 80.397 90.9725 78.3482 90.759 76.5112C90.7024 75.9851 90.766 75.5756 90.9493 75.2828C91.1235 74.9588 91.3505 74.7546 91.6308 74.6703C92.0353 74.5484 92.4698 74.6383 92.9341 74.94C93.3889 75.2105 93.724 75.7036 93.9395 76.4197C93.977 76.5442 94.0036 76.6889 94.0193 76.8539C94.0663 77.0095 94.0975 77.1698 94.1132 77.3349C94.1854 78.0261 93.9994 78.7612 93.5547 79.54C93.132 80.2783 92.7759 80.8437 92.4868 81.2363C92.8074 81.1738 93.1436 81.1064 93.4954 81.0345C93.8378 80.9315 94.2113 80.8191 94.616 80.6973C96.0791 80.2569 97.4985 79.7279 98.8742 79.11C98.9926 79.278 99.0659 79.4088 99.0939 79.5022C99.2158 79.9068 99.2458 80.4579 99.1843 81.1555C99.1538 81.8437 99.0889 82.4742 98.9898 83.0472C98.9496 83.3649 98.8551 83.9534 98.7066 84.813C98.5485 85.6413 98.3921 86.588 98.2374 87.653C98.0733 88.6869 97.9715 89.7021 97.932 90.6985C97.9142 91.6544 97.9989 92.4437 98.1863 93.0662C98.43 93.8755 98.8631 94.1865 99.4855 93.9991C99.9526 93.8586 100.377 93.4083 100.759 92.6482C101.132 91.8569 101.452 90.946 101.719 89.9151C102.008 88.8437 102.243 87.8222 102.426 86.8506C102.631 85.8383 102.783 85.0458 102.882 84.4728C102.912 84.124 103.037 83.9168 103.255 83.8513C103.379 83.8138 103.474 83.904 103.54 84.1219C103.577 84.2464 103.587 84.4472 103.568 84.7244C103.442 85.5435 103.281 86.4745 103.085 87.5179C102.89 88.5611 102.628 89.6075 102.299 90.6571C102.001 91.6974 101.608 92.6475 101.12 93.5072C100.654 94.3266 100.059 94.9467 99.3374 95.3678C99.2533 95.427 99.0869 95.4941 98.8378 95.5691ZM106.75 109.381C103.793 110.271 101.949 109.502 101.218 107.074C100.872 105.922 100.967 104.773 101.505 103.627C102.042 102.481 102.773 101.412 103.697 100.421C104.972 99.0185 106.257 97.817 107.552 96.8165C108.846 95.8158 110.081 94.9007 111.257 94.0713C112.474 93.2639 113.599 92.4329 114.632 91.5788C114.696 89.7605 114.549 87.9203 114.192 86.0587C114.005 85.0967 113.808 84.2734 113.602 83.5886C113.386 82.8725 113.199 82.4197 113.04 82.23C112.894 82.9867 112.682 83.9163 112.403 85.0188C112.124 86.1213 111.762 87.2317 111.318 88.3499C110.864 89.437 110.306 90.4028 109.643 91.2472C109.012 92.0823 108.261 92.6309 107.389 92.8933C107.078 92.987 106.768 93.0293 106.46 93.0202C105.476 92.9091 104.678 92.5719 104.067 92.009C103.488 91.4365 103.067 90.7145 102.805 89.8429C102.383 88.4422 102.333 86.8107 102.655 84.9484C102.977 83.086 103.497 81.317 104.215 79.6412C104.79 78.2799 105.586 77.0898 106.603 76.0707C107.62 75.0516 108.752 74.3546 109.997 73.9799C111.429 73.5488 112.912 73.6285 114.448 74.2187C115.027 74.4517 115.383 74.786 115.514 75.2218C115.654 75.6887 115.538 75.9784 115.164 76.0908C114.853 76.1845 114.574 76.0479 114.328 75.6806C113.545 74.6601 112.672 74.295 111.707 74.5855C110.928 74.8197 110.144 75.4292 109.354 76.4137C108.555 77.3673 107.869 78.4733 107.298 79.7318C106.803 80.7971 106.362 81.9823 105.975 83.2873C105.618 84.5829 105.365 85.8301 105.217 87.029C105.099 88.2187 105.158 89.2024 105.392 89.9807C105.551 90.5099 105.812 90.9237 106.173 91.2224C106.535 91.5209 106.98 91.5906 107.509 91.4313C108.225 91.2159 108.869 90.6485 109.441 89.7294C110.044 88.8011 110.554 87.7311 110.97 86.5193C111.418 85.2984 111.751 84.0946 111.971 82.9082C112.222 81.7122 112.354 80.7391 112.365 79.9887C112.368 79.2072 112.532 78.6824 112.859 78.4142C113.176 78.1151 113.522 77.9092 113.895 77.7967C114.269 77.6843 114.552 77.4973 114.745 77.2355C115.075 77.8828 115.364 78.5599 115.611 79.2664C115.879 79.9325 116.121 80.6236 116.337 81.3394C117.058 83.7364 117.473 86.2424 117.581 88.8579C118.01 88.2534 118.446 87.6133 118.887 86.9372C119.351 86.2205 119.711 85.501 119.969 84.7784C120.428 83.4857 120.714 82.3474 120.825 81.3634C120.958 80.3389 121.058 79.5448 121.126 78.9812C121.219 78.6136 121.375 78.3971 121.593 78.3314C121.78 78.2754 121.901 78.3406 121.957 78.5274C122.004 78.683 121.998 78.8885 121.939 79.1439C121.658 81.028 121.368 82.6598 121.07 84.0393C120.763 85.3879 120.343 86.5839 119.808 87.6276C119.264 88.64 118.5 89.5997 117.517 90.5067C117.469 92.1507 117.195 93.9476 116.696 95.8973C116.196 97.8469 115.497 99.7547 114.599 101.621C113.701 103.486 112.594 105.11 111.278 106.49C109.972 107.902 108.462 108.866 106.75 109.381ZM105.349 108.784C106.034 108.578 106.703 108.207 107.356 107.671C108.05 107.157 108.678 106.594 109.241 105.983C109.804 105.372 110.23 104.871 110.52 104.478C111.067 103.702 111.588 102.782 112.082 101.716C112.576 100.651 112.986 99.6448 113.312 98.6981C113.616 97.7917 113.875 96.848 114.089 95.867C114.344 94.9077 114.521 93.9718 114.619 93.0595C114.398 93.2277 114.12 93.4304 113.784 93.6674C113.479 93.895 113.258 94.0632 113.121 94.1725C112.197 94.8241 111.178 95.5552 110.064 96.3657C108.99 97.198 107.926 98.0616 106.872 98.9562C105.826 99.8819 104.904 100.821 104.105 101.775C103.411 102.629 102.929 103.623 102.659 104.756C102.358 105.899 102.316 106.829 102.531 107.545C102.69 108.074 103.013 108.469 103.499 108.73C103.954 109.001 104.57 109.019 105.349 108.784ZM133.946 85.1034C133.613 85.2376 133.2 85.2768 132.708 85.2213C132.216 85.1657 131.724 84.9403 131.232 84.5454C130.771 84.1411 130.404 83.4876 130.132 82.5848C129.908 81.8377 129.776 80.8928 129.738 79.7501C129.542 80.4539 129.28 81.3308 128.951 82.3803C128.612 83.3989 128.199 84.338 127.711 85.1979C127.288 85.9362 126.85 86.5096 126.395 86.9178C125.941 87.3262 125.496 87.5959 125.06 87.7271C124.251 87.9706 123.49 87.8094 122.776 87.2434C122.053 86.6463 121.514 85.7562 121.157 84.5733C120.783 83.3282 120.668 81.8182 120.812 80.0433C120.957 78.2684 121.472 76.3139 122.358 74.1803C122.932 72.8191 123.76 71.6195 124.839 70.5816C125.94 69.5032 127.114 68.7767 128.359 68.402C129.075 68.1865 129.797 68.1048 130.526 68.1571C131.245 68.1783 131.933 68.3785 132.59 68.7578C132.874 68.91 133.058 69.1263 133.142 69.4065C133.198 69.5932 133.168 69.7722 133.049 69.9436C132.931 70.1151 132.738 70.2069 132.47 70.2197C131.8 69.2332 130.905 68.9087 129.784 69.246C129.255 69.4053 128.699 69.7592 128.117 70.3078C127.228 71.1866 126.399 72.4375 125.632 74.0605C124.895 75.6741 124.313 77.2922 123.885 78.9148C123.816 79.1391 123.722 79.5579 123.601 80.1714C123.511 80.7756 123.44 81.442 123.388 82.1707C123.336 82.8992 123.356 83.5889 123.45 84.2396C123.475 84.4358 123.502 84.5806 123.53 84.6738C123.549 84.7362 123.582 84.8451 123.629 85.0007C123.938 86.028 124.482 86.4245 125.26 86.1902C126.194 85.9092 127.046 84.9058 127.816 83.18C128.326 81.9404 128.744 80.6773 129.069 79.3911C129.395 78.1048 129.713 76.7362 130.023 75.2849C130.237 74.3039 130.462 73.4723 130.698 72.7901C130.934 72.108 131.425 71.6546 132.173 71.4296C132.515 71.3266 132.871 71.2703 133.242 71.2605C133.612 71.2509 133.975 71.1587 134.33 70.9839C134.156 71.3079 133.954 71.8779 133.724 72.6939C133.526 73.5007 133.324 74.4099 133.12 75.4222C132.915 76.4343 132.762 77.4479 132.66 78.4631C132.558 79.4783 132.528 80.336 132.569 81.0367C132.594 81.2328 132.627 81.5113 132.668 81.8726C132.74 82.2243 132.799 82.478 132.846 82.6336C133.108 83.5052 133.489 83.8661 133.987 83.7163C134.485 83.5663 134.925 83.1113 135.307 82.3512C135.721 81.5817 136.076 80.6769 136.374 79.6366C136.672 78.5964 136.924 77.5701 137.128 76.558C137.323 75.5148 137.477 74.6708 137.588 74.0262C137.619 73.6774 137.759 73.4656 138.008 73.3906C138.163 73.3437 138.274 73.4293 138.34 73.6472C138.368 73.7405 138.373 73.9258 138.354 74.203C138.215 75.0936 138.031 76.1166 137.801 77.2721C137.562 78.3964 137.273 79.5191 136.931 80.6403C136.58 81.7304 136.156 82.6898 135.658 83.5185C135.183 84.3067 134.612 84.8351 133.946 85.1034ZM145.804 81.4322C145.213 81.6104 144.551 81.5549 143.819 81.266C143.077 80.946 142.543 80.2412 142.215 79.1517C141.962 78.3112 141.874 77.2853 141.951 76.0741C142.005 74.9032 142.194 73.726 142.517 72.5426C142.871 71.3496 143.094 70.3999 143.187 69.693C143.205 69.4158 143.187 69.1839 143.13 68.997C142.962 68.4367 142.482 68.1399 141.691 68.1064C140.931 68.0634 139.986 68.1951 138.856 68.5012L138.76 70.2108C138.717 71.3099 138.586 72.6225 138.366 74.1484C138.178 75.6649 137.898 77.1583 137.525 78.6281C137.184 80.0888 136.737 81.3099 136.183 82.2911C136.14 82.3721 136.071 82.4267 135.978 82.4547C135.854 82.4922 135.752 82.4378 135.674 82.2917C135.565 82.1547 135.571 81.9491 135.692 81.6751C136.419 79.691 136.97 77.5732 137.345 75.3216C137.71 73.0389 137.91 70.772 137.946 68.5207C138.012 66.2601 137.939 64.2114 137.725 62.3746C137.669 61.8484 137.732 61.4388 137.916 61.1459C138.09 60.822 138.317 60.6179 138.597 60.5335C139.002 60.4117 139.436 60.5016 139.9 60.8032C140.355 61.0737 140.69 61.5669 140.906 62.2828C140.943 62.4073 140.97 62.5521 140.986 62.7171C141.032 62.8728 141.064 63.0332 141.079 63.1982C141.152 63.8892 140.965 64.6243 140.521 65.4031C140.098 66.1414 139.742 66.7069 139.453 67.0996C139.774 67.037 140.11 66.9698 140.462 66.8977C140.804 66.7947 141.178 66.6822 141.582 66.5605C143.045 66.1201 144.465 65.591 145.84 64.9733C145.959 65.1413 146.032 65.2719 146.06 65.3653C146.182 65.7701 146.212 66.3211 146.15 67.0187C146.12 67.7068 146.055 68.3374 145.956 68.9103C145.916 69.228 145.821 69.8165 145.673 70.6761C145.515 71.5045 145.358 72.4512 145.204 73.5162C145.04 74.5501 144.938 75.5653 144.898 76.5617C144.88 77.5176 144.965 78.3069 145.152 78.9295C145.396 79.7388 145.829 80.0498 146.452 79.8624C146.919 79.7218 147.343 79.2715 147.726 78.5114C148.099 77.7202 148.418 76.8092 148.685 75.7783C148.974 74.7069 149.209 73.6853 149.392 72.7138C149.597 71.7016 149.749 70.909 149.848 70.336C149.879 69.9872 150.003 69.7801 150.221 69.7144C150.345 69.677 150.441 69.7672 150.506 69.9851C150.544 70.1096 150.553 70.3104 150.535 70.5876C150.408 71.4066 150.247 72.3377 150.051 73.381C149.856 74.4242 149.594 75.4708 149.265 76.5204C148.967 77.5605 148.574 78.5106 148.086 79.3705C147.62 80.1897 147.025 80.8099 146.304 81.2309C146.22 81.2902 146.053 81.3573 145.804 81.4322ZM151.932 58.8622C151.465 59.0027 151.029 58.9643 150.624 58.7467C150.241 58.4885 149.979 58.126 149.838 57.6591C149.66 57.0677 149.739 56.4838 150.075 55.9075C150.41 55.3311 150.859 54.9586 151.419 54.7899C151.917 54.64 152.368 54.6738 152.773 54.8914C153.178 55.109 153.447 55.4357 153.578 55.8716C153.756 56.4629 153.681 57.0624 153.355 57.67C153.029 58.2773 152.554 58.6748 151.932 58.8622ZM153.856 78.9577C152.704 79.3044 151.796 79.2212 151.133 78.7081C150.46 78.1638 149.992 77.4559 149.729 76.5842C149.589 76.1173 149.495 75.6364 149.448 75.1413C149.422 74.6057 149.427 74.1123 149.461 73.6608L150.186 64.7346C150.204 64.4575 150.185 64.2255 150.129 64.0389C150.035 63.7276 149.878 63.4863 149.657 63.3154C149.426 63.1132 149.265 62.9748 149.175 62.9001L151.715 62.0337C152.173 61.8619 152.519 61.8258 152.752 61.9253C153.008 61.9843 153.163 62.1071 153.219 62.2938C153.276 62.4806 153.27 62.8558 153.201 63.4194L152.067 73.691C152.067 73.691 152.034 73.9215 151.969 74.3823C151.926 74.8028 151.908 75.0799 151.914 75.2137C151.961 75.7088 151.988 76.0233 151.994 76.1571C152.001 76.2911 152.009 76.3735 152.018 76.4047C152.027 76.4358 152.065 76.5603 152.13 76.7782C152.252 77.1829 152.448 77.4972 152.72 77.7212C153.021 77.9357 153.422 77.968 153.92 77.8181C154.231 77.7244 154.562 77.5232 154.909 77.2146C155.258 76.9061 155.498 76.6304 155.629 76.3874C156.163 75.3439 156.607 74.0559 156.96 72.5236C157.335 70.9509 157.654 69.4124 157.914 67.9083C157.945 67.5595 158.053 67.357 158.24 67.3007C158.396 67.254 158.506 67.3394 158.571 67.5573C158.609 67.6818 158.618 67.8827 158.6 68.1599C158.486 68.9071 158.341 69.8336 158.164 70.9391C157.987 72.0447 157.718 73.1784 157.355 74.3401C157.012 75.4613 156.563 76.4457 156.002 77.2931C155.443 78.1405 154.728 78.6955 153.856 78.9577ZM162.903 76.2344C162.032 76.4966 161.165 76.4352 160.302 76.0498C159.431 75.6334 158.797 74.7715 158.403 73.4641C158.094 72.4369 157.902 71.12 157.826 69.5133C157.771 67.8662 157.78 66.149 157.853 64.3618C157.948 62.534 158.074 60.8664 158.231 59.3592L155.757 60.1041C155.539 60.1698 155.383 60.0468 155.29 59.7356C155.243 59.5799 155.232 59.4304 155.257 59.2872C155.313 59.1346 155.418 59.0348 155.574 58.988L158.376 58.1448C158.548 56.8026 158.762 55.4822 159.016 54.1835C159.271 52.8849 159.528 51.6532 159.789 50.4884C160.13 49.0278 160.611 47.8644 161.233 46.9983C161.855 46.132 162.461 45.6099 163.053 45.4319C163.52 45.2914 163.965 45.3611 164.389 45.6408C164.803 45.8895 165.119 46.372 165.334 47.0879C165.465 47.5237 165.555 48.1588 165.602 48.9932C165.64 49.7964 165.584 50.6793 165.431 51.6416C165.344 52.1429 165.221 52.8591 165.059 53.7903C164.93 54.7121 164.771 55.5406 164.586 56.2755L166.827 55.6009C167.045 55.5352 167.2 55.6582 167.295 55.9694C167.331 56.094 167.342 56.2434 167.327 56.4178C167.303 56.5611 167.228 56.6514 167.103 56.6889L164.348 57.518C163.973 59.0909 163.479 60.6653 162.868 62.2414C162.256 63.8175 161.457 65.4498 160.471 67.1383C160.462 67.4466 160.459 67.8888 160.464 68.4648C160.499 69.0315 160.538 69.6136 160.581 70.2114C160.648 70.7688 160.691 71.2482 160.709 71.6498C160.759 72.0421 160.785 72.2382 160.785 72.2382C160.813 72.6711 160.878 73.0586 160.982 73.401C161.178 74.0547 161.48 74.4904 161.884 74.708C162.28 74.8945 162.679 74.9268 163.085 74.8049C163.333 74.7299 163.574 74.6239 163.804 74.4867C164.025 74.3183 164.258 74.0783 164.503 73.7667C165.358 72.6606 165.989 71.3164 166.396 69.7344C166.833 68.1429 167.176 66.6309 167.424 65.1983C167.499 64.7686 167.629 64.5256 167.816 64.4693C167.941 64.4319 168.031 64.5065 168.087 64.6933C168.115 64.7868 168.119 64.9719 168.101 65.2491C167.848 66.8872 167.618 68.2123 167.414 69.2244C167.21 70.2365 166.978 71.1039 166.72 71.8264C166.454 72.518 166.108 73.2329 165.686 73.9712C165.381 74.5382 164.982 75.0149 164.487 75.4015C163.991 75.788 163.464 76.0657 162.903 76.2344ZM161.224 57.2875L163.606 56.5707C163.798 55.6302 163.962 54.7145 164.103 53.8239C164.273 52.9239 164.397 52.038 164.473 51.166C164.541 50.6024 164.56 49.9858 164.528 49.3164C164.496 48.647 164.429 48.1411 164.325 47.7987C164.185 47.3318 164.007 47.1311 163.789 47.1967C163.632 47.2436 163.441 47.4539 163.214 47.8278C163.008 48.1611 162.781 48.7046 162.533 49.4584C162.207 50.4052 161.952 51.5855 161.767 52.9993C161.602 54.3727 161.422 55.8021 161.224 57.2875ZM160.395 65.5317C161.017 64.3261 161.558 63.077 162.018 61.7844C162.509 60.4824 162.928 59.1682 163.275 57.8414L161.081 58.502C160.928 59.8036 160.799 61.0647 160.691 62.2854C160.584 63.5061 160.485 64.5882 160.395 65.5317ZM180.138 71.1999C179.804 71.3341 179.391 71.3734 178.899 71.3178C178.408 71.2622 177.916 71.037 177.422 70.642C176.962 70.2376 176.595 69.584 176.323 68.6813C176.098 67.9342 175.967 66.9894 175.929 65.8467C175.732 66.5506 175.47 67.4274 175.141 68.477C174.803 69.4953 174.39 70.4346 173.902 71.2943C173.479 72.0328 173.041 72.606 172.586 73.0144C172.131 73.4226 171.687 73.6924 171.251 73.8236C170.442 74.0672 169.681 73.906 168.967 73.3399C168.244 72.7427 167.705 71.8528 167.348 70.6699C166.973 69.4248 166.859 67.9147 167.004 66.1397C167.149 64.3648 167.664 62.4105 168.549 60.2767C169.123 58.9155 169.951 57.7161 171.03 56.6783C172.131 55.5999 173.305 54.8733 174.55 54.4984C175.266 54.283 175.988 54.2015 176.717 54.2537C177.436 54.2748 178.125 54.475 178.781 54.8543C179.065 55.0066 179.249 55.2229 179.333 55.5029C179.389 55.6898 179.359 55.8688 179.24 56.0401C179.123 56.2115 178.929 56.3036 178.661 56.3162C177.991 55.3298 177.096 55.0053 175.975 55.3426C175.446 55.5019 174.89 55.8557 174.309 56.4043C173.419 57.2832 172.59 58.5341 171.822 60.1571C171.086 61.7707 170.504 63.3887 170.076 65.0114C170.007 65.2355 169.913 65.6544 169.792 66.268C169.703 66.8721 169.631 67.5384 169.579 68.2671C169.526 68.9958 169.547 69.6855 169.642 70.3362C169.666 70.5323 169.693 70.677 169.721 70.7704C169.741 70.8328 169.773 70.9417 169.82 71.0973C170.129 72.1245 170.673 72.521 171.45 72.2868C172.384 72.0056 173.236 71.0024 174.007 69.2767C174.516 68.0369 174.935 66.774 175.26 65.4877C175.586 64.2015 175.904 62.8326 176.214 61.3813C176.429 60.4003 176.653 59.5688 176.889 58.8867C177.125 58.2045 177.617 57.751 178.364 57.5263C178.707 57.4231 179.062 57.3667 179.434 57.3571C179.804 57.3474 180.167 57.2552 180.522 57.0805C180.346 57.4045 180.145 57.9746 179.915 58.7906C179.717 59.5971 179.516 60.5065 179.31 61.5186C179.106 62.5308 178.954 63.5444 178.851 64.5596C178.749 65.5747 178.719 66.4326 178.76 67.1331C178.784 67.3292 178.818 67.6079 178.859 67.9691C178.931 68.3209 178.99 68.5746 179.037 68.7302C179.299 69.6018 179.679 69.9627 180.177 69.8127C180.675 69.6628 181.116 69.2078 181.498 68.4477C181.911 67.6783 182.268 66.7733 182.565 65.7332C182.864 64.6929 183.115 63.6668 183.319 62.6546C183.514 61.6113 183.668 60.7674 183.779 60.1227C183.81 59.774 183.95 59.5621 184.199 59.4871C184.354 59.4403 184.465 59.5258 184.531 59.7437C184.558 59.8371 184.564 60.0224 184.546 60.2994C184.406 61.1901 184.221 62.2132 183.993 63.3685C183.754 64.4928 183.464 65.6156 183.123 66.7368C182.771 67.8269 182.347 68.7863 181.849 69.6151C181.373 70.4032 180.803 70.9315 180.138 71.1999Z" fill="#1B1B1B"/>
</svg>
