<svg width="24" height="24" viewBox="0 0 24 24" fill="none" xmlns="http://www.w3.org/2000/svg">
<path d="M3 11.25C3 11.449 3.07902 11.6397 3.21967 11.7804C3.36032 11.921 3.55109 12 3.75 12H18.4395L15.2205 15.219C15.0839 15.3605 15.0083 15.5499 15.01 15.7466C15.0117 15.9432 15.0906 16.1314 15.2296 16.2704C15.3687 16.4095 15.5568 16.4883 15.7534 16.49C15.9501 16.4918 16.1395 16.4162 16.281 16.2795L20.781 11.7795C20.8504 11.7105 20.9055 11.6285 20.9431 11.5382C20.9806 11.4478 21 11.3509 21 11.253V11.25C21 11.1525 20.9805 11.055 20.9415 10.9635C20.9041 10.8726 20.8491 10.79 20.7795 10.7205L16.2795 6.22054C16.138 6.08393 15.9486 6.00833 15.7519 6.01004C15.5553 6.01175 15.3672 6.09062 15.2281 6.22968C15.0891 6.36874 15.0102 6.55685 15.0085 6.75349C15.0068 6.95014 15.0824 7.13959 15.219 7.28104L18.4395 10.5H3.75C3.55109 10.5 3.36032 10.5791 3.21967 10.7197C3.07902 10.8604 3 11.0511 3 11.25V11.25Z" fill="#1B1B1B"/>
</svg>
