<svg width="1235" height="1141" viewBox="0 0 1235 1141" fill="none" xmlns="http://www.w3.org/2000/svg">
<g opacity="0.2">
<path d="M1209.5 607.252C1314.84 410.444 1056 0 1056 0H0V1140.5H537C537 1140.5 686.957 1131.85 761.5 1077.52C853.32 1010.6 832.371 906.126 907 818.767C1001.76 707.838 1139.98 737.152 1209.5 607.252Z" fill="#B7BBFF"/>
<path d="M1179.5 598.855C1284.84 402.047 1042.5 2.09961 1042.5 2.09961H-8V1132.1H507C507 1132.1 656.957 1123.45 731.5 1069.12C823.32 1002.2 802.371 897.728 877 810.369C971.764 699.44 1109.98 728.755 1179.5 598.855Z" fill="#D1E2FF"/>
</g>
</svg>
