<svg width="21" height="21" viewBox="0 0 21 21" fill="none" xmlns="http://www.w3.org/2000/svg">
<path d="M8.47509 9.26168C8.47509 9.26168 10.4621 9.11416 10.4621 6.78342C10.4621 4.4529 8.83633 3.31592 6.77674 3.31592H2.98592H2.87457H0V16.3394H2.87457H2.98592H6.77674C6.77674 16.3394 10.9137 16.4702 10.9137 12.4955C10.9139 12.4955 11.0943 9.26168 8.47509 9.26168ZM2.98592 5.63087H6.28903H6.77696C6.77696 5.63087 7.69825 5.63087 7.69825 6.98574C7.69825 8.34061 7.15617 8.53701 6.54198 8.53701H2.98592V5.63087ZM6.60204 14.0251H2.98592V10.5444H6.77674C6.77674 10.5444 8.1498 10.5269 8.1498 12.3331C8.1498 13.8392 7.14565 14.01 6.60204 14.0251Z" fill="white"/>
<path d="M19.0028 4.08301H13.6294V5.68689H19.0028V4.08301Z" fill="white"/>
<path d="M16.4316 6.62964C11.4234 6.62964 11.4278 11.6331 11.4278 11.6331C11.4278 11.6331 11.0845 16.6117 16.4319 16.6117C16.4319 16.6117 20.8884 16.8664 20.8884 13.1482H18.5965C18.5965 13.1482 18.673 14.5491 16.5084 14.5491C16.5084 14.5491 14.2166 14.7023 14.2166 12.2826H20.9647C20.9647 12.2826 21.7029 6.62964 16.4316 6.62964ZM18.4689 10.5443H14.1908C14.1908 10.5443 14.4707 8.53689 16.4825 8.53689C18.4945 8.53667 18.4689 10.5443 18.4689 10.5443Z" fill="white"/>
</svg>
