<svg width="62" height="75" viewBox="0 0 62 75" fill="none" xmlns="http://www.w3.org/2000/svg">
<path d="M56.8604 45.0982C56.8604 45.0982 52.8 29.8023 45.4379 23.4435C31.699 11.5769 0.000120013 12.6983 0.000120013 12.6983C0.000120013 12.6983 11.701 39.5045 27.1802 46.8273C35.8317 50.9203 51.2656 51.5774 51.2656 51.5774L48.7892 44.8446L56.8604 45.0982Z" fill="#30BFB1"/>
<path d="M47.9014 57.1096C47.9014 57.1096 40.8173 52.7707 35.716 53.0178C26.1957 53.4784 14.5546 65.3594 14.5546 65.3594C14.5546 65.3594 28.7121 71.3058 37.2478 68.4916C42.0184 66.9188 48.1221 61.5907 48.1221 61.5907L44.7419 59.9301L47.9014 57.1096Z" fill="#30BFB1"/>
</svg>
