<svg width="791" height="773" viewBox="0 0 791 773" fill="none" xmlns="http://www.w3.org/2000/svg">
<path d="M0 501.5V-1L284.444 -0.999995C284.479 -1.00536 284.5 -0.999995 284.5 -0.999995L284.444 -0.999995C284.116 -0.950518 282.54 0.0112082 284.5 14.5C299.045 122.011 461.723 36.7243 548 102.5C589.294 133.982 640 198.5 640 198.5C640 198.5 792.735 239.565 790.5 313.5C788.927 365.534 731.126 372.49 711 420.5C678.54 497.934 748.084 560.171 711 635.5C677.53 703.488 635.413 738.662 563 761C476.347 787.731 410.02 767.943 335 717C274.841 676.148 280.064 612.778 222 569C140.991 507.923 0 501.5 0 501.5Z" fill="#EDF6F9"/>
</svg>
