<svg width="48" height="48" viewBox="0 0 48 48" fill="none" xmlns="http://www.w3.org/2000/svg">
<circle cx="24" cy="24" r="24" fill="#EC255A"/>
<path d="M12 22.9999C12 23.2651 12.1054 23.5195 12.2929 23.707C12.4804 23.8945 12.7348 23.9999 13 23.9999H32.586L28.294 28.2919C28.1118 28.4805 28.011 28.7331 28.0133 28.9953C28.0156 29.2575 28.1208 29.5083 28.3062 29.6937C28.4916 29.8791 28.7424 29.9843 29.0046 29.9866C29.2668 29.9888 29.5194 29.8881 29.708 29.7059L35.708 23.7059C35.8005 23.6139 35.874 23.5045 35.9241 23.384C35.9742 23.2636 36 23.1344 36 23.0039V22.9999C36 22.8699 35.974 22.7399 35.922 22.6179C35.8722 22.4967 35.7987 22.3865 35.706 22.2939L29.706 16.2939C29.5174 16.1117 29.2648 16.0109 29.0026 16.0132C28.7404 16.0155 28.4896 16.1207 28.3042 16.3061C28.1188 16.4915 28.0136 16.7423 28.0113 17.0045C28.009 17.2667 28.1098 17.5193 28.292 17.7079L32.586 21.9999H13C12.7348 21.9999 12.4804 22.1053 12.2929 22.2928C12.1054 22.4803 12 22.7347 12 22.9999Z" fill="#FFF2F6"/>
</svg>
