<svg width="48" height="48" viewBox="0 0 48 48" fill="none" xmlns="http://www.w3.org/2000/svg">
<circle cx="24" cy="24" r="24" fill="#006D77"/>
<path d="M12 23C12 23.2652 12.1054 23.5196 12.2929 23.7071C12.4804 23.8947 12.7348 24 13 24H32.586L28.294 28.292C28.1118 28.4806 28.011 28.7332 28.0133 28.9954C28.0156 29.2576 28.1208 29.5084 28.3062 29.6938C28.4916 29.8792 28.7424 29.9844 29.0046 29.9867C29.2668 29.989 29.5194 29.8882 29.708 29.706L35.708 23.706C35.8005 23.614 35.874 23.5046 35.9241 23.3842C35.9742 23.2637 36 23.1345 36 23.004V23C36 22.87 35.974 22.74 35.922 22.618C35.8722 22.4968 35.7987 22.3867 35.706 22.294L29.706 16.294C29.5174 16.1119 29.2648 16.0111 29.0026 16.0133C28.7404 16.0156 28.4896 16.1208 28.3042 16.3062C28.1188 16.4916 28.0136 16.7424 28.0113 17.0046C28.009 17.2668 28.1098 17.5194 28.292 17.708L32.586 22H13C12.7348 22 12.4804 22.1054 12.2929 22.2929C12.1054 22.4804 12 22.7348 12 23V23Z" fill="#EDF6F9"/>
</svg>
