<svg width="387" height="498" viewBox="0 0 387 498" fill="none" xmlns="http://www.w3.org/2000/svg">
<g filter="url(#filter0_f_43_1009)">
<ellipse rx="177.716" ry="35.843" transform="matrix(-0.999968 -0.00798544 -0.00798544 0.999968 197.838 450.894)" fill="url(#paint0_radial_43_1009)" fill-opacity="0.7"/>
</g>
<path d="M232.979 73.5514C233.081 73.9333 233.043 74.4013 232.855 74.9587C232.667 75.5153 232.335 76.1438 231.869 76.8351C230.939 78.2177 229.5 79.8192 227.708 81.5525C224.126 85.0174 219.167 88.9762 214.141 92.7179C209.116 96.4584 204.032 99.9769 200.203 102.56C198.289 103.852 196.689 104.91 195.567 105.645C195.007 106.012 194.566 106.299 194.265 106.494C194.213 106.527 194.166 106.558 194.123 106.586C194.113 106.592 194.104 106.598 194.095 106.604L183.591 65.6367C183.653 65.6382 183.723 65.6399 183.801 65.6419C184.153 65.6508 184.67 65.6648 185.328 65.6851C186.645 65.7257 188.529 65.7917 190.795 65.8931C195.328 66.096 201.39 66.4407 207.511 67.008C213.633 67.5756 219.805 68.365 224.561 69.4556C226.94 70.0012 228.952 70.6195 230.424 71.3173C231.159 71.6662 231.751 72.0307 232.183 72.4092C232.616 72.788 232.878 73.1695 232.979 73.5514Z" fill="#88C063" stroke="#338100" stroke-width="0.5"/>
<path d="M188.833 26.2226C189.186 26.4019 189.509 26.742 189.799 27.2542C190.088 27.7655 190.334 28.4326 190.539 29.2402C190.948 30.8557 191.181 32.9959 191.277 35.4872C191.467 40.4672 191.108 46.8026 190.541 53.0429C189.975 59.2812 189.204 65.416 188.574 69.9918C188.259 72.2795 187.979 74.1772 187.778 75.5028C187.678 76.1655 187.597 76.6853 187.542 77.0393C187.53 77.1133 187.519 77.18 187.51 77.2393L149.986 57.7304C150.029 57.6855 150.077 57.6345 150.13 57.5776C150.372 57.3213 150.727 56.9457 151.181 56.4688C152.09 55.515 153.396 54.156 154.984 52.5355C158.159 49.2944 162.461 45.0087 166.967 40.8281C171.475 36.6461 176.18 32.5755 180.166 29.7608C182.159 28.3527 183.963 27.2663 185.464 26.6358C186.215 26.3206 186.881 26.1233 187.451 26.0535C188.023 25.9837 188.481 26.0434 188.833 26.2226Z" fill="#88C063" stroke="#338100" stroke-width="0.5"/>
<path d="M236.402 120.447C236.408 120.783 236.277 121.166 235.989 121.599C235.703 122.031 235.271 122.495 234.707 122.987C233.579 123.969 231.951 125.033 229.978 126.137C226.036 128.343 220.76 130.683 215.472 132.825C210.186 134.966 204.895 136.906 200.925 138.31C198.94 139.013 197.285 139.581 196.127 139.974C195.548 140.17 195.093 140.322 194.783 140.426C194.729 140.444 194.678 140.461 194.633 140.476L194.25 103.476C194.299 103.488 194.353 103.502 194.412 103.517C194.723 103.598 195.18 103.718 195.761 103.872C196.923 104.18 198.584 104.628 200.577 105.185C204.564 106.3 209.88 107.854 215.199 109.61C220.52 111.366 225.836 113.321 229.826 115.238C231.822 116.197 233.475 117.141 234.629 118.04C235.206 118.489 235.651 118.921 235.95 119.33C236.251 119.74 236.395 120.112 236.402 120.447Z" fill="#88C063" stroke="#338100" stroke-width="0.5"/>
<path d="M228.372 178.51C228.237 178.804 227.946 179.082 227.476 179.332C227.007 179.582 226.381 179.792 225.612 179.964C224.075 180.307 222.011 180.486 219.592 180.537C214.756 180.64 208.551 180.233 202.42 179.643C196.292 179.053 190.245 178.281 185.731 177.657C183.473 177.345 181.599 177.07 180.29 176.873C179.635 176.774 179.121 176.695 178.771 176.64C178.694 176.628 178.625 176.618 178.564 176.608L194.173 143.447C194.223 143.486 194.279 143.532 194.342 143.583C194.614 143.802 195.012 144.124 195.517 144.536C196.528 145.36 197.969 146.544 199.691 147.982C203.134 150.86 207.696 154.757 212.174 158.835C216.653 162.914 221.042 167.169 224.143 170.764C225.694 172.563 226.915 174.187 227.664 175.536C228.039 176.21 228.289 176.805 228.408 177.312C228.527 177.82 228.507 178.215 228.372 178.51Z" fill="#88C063" stroke="#338100" stroke-width="0.5"/>
<path d="M225.139 193.367C225.465 194.273 225.229 195.572 224.474 197.207C223.725 198.829 222.493 200.724 220.923 202.786C217.784 206.908 213.324 211.659 208.765 216.167C204.208 220.672 199.559 224.928 196.05 228.058C194.295 229.623 192.825 230.906 191.794 231.798C191.279 232.243 190.873 232.591 190.596 232.828C190.542 232.874 190.493 232.916 190.448 232.954L174.15 186.705C174.21 186.704 174.277 186.702 174.352 186.701C174.709 186.694 175.233 186.685 175.9 186.676C177.236 186.658 179.147 186.642 181.45 186.648C186.056 186.66 192.226 186.759 198.486 187.109C204.748 187.459 211.089 188.06 216.042 189.072C218.52 189.578 220.638 190.185 222.221 190.91C223.818 191.64 224.812 192.463 225.139 193.367Z" fill="#88C063" stroke="#338100" stroke-width="0.5"/>
<path d="M239.973 234.466C240.101 234.82 240.099 235.27 239.954 235.824C239.809 236.377 239.526 237.013 239.116 237.723C238.295 239.143 236.985 240.822 235.335 242.662C232.035 246.34 227.405 250.625 222.693 254.708C217.982 258.789 213.195 262.661 209.585 265.514C207.78 266.941 206.27 268.112 205.211 268.926C204.682 269.334 204.265 269.652 203.981 269.868C203.934 269.903 203.891 269.936 203.852 269.966C203.84 269.975 203.829 269.983 203.818 269.992L190.342 231.566C190.404 231.562 190.475 231.557 190.553 231.551C190.904 231.526 191.418 231.49 192.073 231.447C193.384 231.36 195.259 231.244 197.517 231.126C202.034 230.889 208.08 230.642 214.2 230.604C220.323 230.566 226.511 230.738 231.315 231.334C233.718 231.632 235.763 232.036 237.276 232.567C238.032 232.833 238.646 233.127 239.103 233.45C239.561 233.773 239.846 234.113 239.973 234.466Z" fill="#88C063" stroke="#338100" stroke-width="0.5"/>
<path d="M249.251 265.827C249.394 266.093 249.444 266.459 249.382 266.938C249.321 267.415 249.151 267.983 248.879 268.631C248.336 269.927 247.402 271.508 246.194 273.272C243.778 276.796 240.288 281.011 236.705 285.067C233.122 289.123 229.451 293.015 226.676 295.893C225.288 297.332 224.124 298.518 223.307 299.343C222.899 299.756 222.577 300.079 222.358 300.298C222.323 300.333 222.291 300.365 222.261 300.395L206.426 270.192C206.469 270.182 206.516 270.171 206.568 270.159C206.865 270.09 207.302 269.99 207.86 269.864C208.974 269.613 210.57 269.26 212.494 268.852C216.342 268.037 221.5 267.006 226.746 266.139C231.994 265.271 237.32 264.57 241.507 264.413C243.602 264.334 245.398 264.392 246.753 264.63C247.43 264.748 247.986 264.91 248.41 265.115C248.835 265.321 249.109 265.561 249.251 265.827Z" fill="#88C063" stroke="#338100" stroke-width="0.5"/>
<path d="M252.039 282.344C252.245 282.452 252.441 282.667 252.616 283.011C252.791 283.353 252.935 283.806 253.05 284.36C253.278 285.469 253.376 286.946 253.372 288.671C253.365 292.118 252.954 296.511 252.408 300.843C251.862 305.173 251.181 309.434 250.637 312.612C250.365 314.201 250.127 315.519 249.957 316.44C249.872 316.901 249.804 317.262 249.758 317.508C249.755 317.522 249.752 317.536 249.75 317.55L225.409 304.471C225.421 304.458 225.433 304.445 225.446 304.432C225.614 304.252 225.861 303.988 226.177 303.654C226.81 302.984 227.718 302.03 228.822 300.892C231.03 298.615 234.018 295.604 237.139 292.664C240.262 289.723 243.512 286.859 246.245 284.873C247.613 283.88 248.842 283.113 249.855 282.665C250.361 282.441 250.804 282.301 251.176 282.249C251.549 282.197 251.832 282.235 252.039 282.344Z" fill="#88C063" stroke="#338100" stroke-width="0.5"/>
<path d="M267.001 294.968C267.17 295.008 267.358 295.127 267.56 295.355C267.762 295.581 267.964 295.9 268.164 296.306C268.565 297.119 268.94 298.244 269.287 299.586C269.982 302.267 270.554 305.767 271.009 309.249C271.464 312.728 271.799 316.181 272.022 318.765C272.133 320.057 272.215 321.131 272.27 321.882C272.296 322.238 272.316 322.521 272.33 322.721L250.857 317.518C250.951 317.344 251.086 317.096 251.258 316.782C251.614 316.132 252.127 315.205 252.755 314.096C254.01 311.876 255.723 308.926 257.555 306.005C259.387 303.083 261.333 300.196 263.055 298.097C263.917 297.047 264.715 296.204 265.408 295.653C265.754 295.377 266.067 295.181 266.34 295.067C266.614 294.953 266.832 294.929 267.001 294.968Z" fill="#88C063" stroke="#338100" stroke-width="0.5"/>
<path d="M282.56 297.464C282.733 297.445 282.949 297.496 283.216 297.644C283.481 297.791 283.778 298.025 284.101 298.342C284.748 298.976 285.475 299.913 286.247 301.064C287.79 303.364 289.489 306.477 291.071 309.612C292.652 312.745 294.113 315.892 295.178 318.256C295.71 319.438 296.144 320.424 296.444 321.115C296.587 321.442 296.699 321.703 296.778 321.887L274.794 324.088C274.825 323.893 274.871 323.613 274.929 323.26C275.05 322.53 275.227 321.485 275.452 320.23C275.901 317.72 276.541 314.37 277.302 311.007C278.063 307.642 278.943 304.274 279.873 301.724C280.339 300.447 280.813 299.387 281.284 298.638C281.52 298.263 281.749 297.975 281.97 297.777C282.191 297.578 282.388 297.483 282.56 297.464Z" fill="#88C063" stroke="#338100" stroke-width="0.5"/>
<path d="M300.358 295.883C300.496 295.846 300.683 295.859 300.93 295.95C301.175 296.041 301.46 296.202 301.78 296.432C302.421 296.893 303.172 297.605 303.991 298.497C305.629 300.28 307.51 302.745 309.293 305.245C311.074 307.744 312.754 310.271 313.988 312.173C314.605 313.125 315.11 313.92 315.462 314.477C315.615 314.72 315.739 314.918 315.83 315.064L297.195 319.859C297.196 319.689 297.198 319.456 297.202 319.167C297.21 318.519 297.224 317.593 297.252 316.478C297.308 314.248 297.417 311.268 297.629 308.26C297.842 305.251 298.156 302.223 298.622 299.897C298.855 298.732 299.124 297.756 299.431 297.048C299.584 296.695 299.743 296.418 299.905 296.221C300.067 296.023 300.22 295.92 300.358 295.883Z" fill="#88C063" stroke="#338100" stroke-width="0.5"/>
<path d="M316.145 288.681C316.27 288.611 316.454 288.578 316.715 288.606C316.976 288.634 317.291 288.72 317.658 288.865C318.392 289.154 319.295 289.661 320.308 290.325C322.333 291.652 324.76 293.581 327.102 295.568C329.442 297.553 331.689 299.591 333.352 301.133C334.184 301.904 334.869 302.551 335.346 303.005C335.554 303.203 335.723 303.365 335.847 303.484L318.957 312.701C318.916 312.536 318.861 312.309 318.793 312.028C318.642 311.399 318.429 310.497 318.183 309.409C317.691 307.234 317.066 304.317 316.534 301.35C316.002 298.38 315.565 295.368 315.446 292.998C315.386 291.812 315.407 290.8 315.531 290.039C315.594 289.658 315.68 289.351 315.788 289.12C315.897 288.888 316.02 288.751 316.145 288.681Z" fill="#88C063" stroke="#338100" stroke-width="0.5"/>
<path d="M325.82 279.636C325.89 279.547 326.018 279.461 326.231 279.397C326.443 279.333 326.72 279.296 327.058 279.287C327.735 279.27 328.619 279.369 329.646 279.556C331.698 279.929 334.272 280.645 336.799 281.436C339.323 282.227 341.793 283.091 343.631 283.757C344.55 284.09 345.311 284.373 345.843 284.573C346.051 284.652 346.224 284.718 346.357 284.768L336.096 297.691C336.012 297.578 335.901 297.428 335.767 297.248C335.436 296.798 334.964 296.154 334.403 295.373C333.282 293.811 331.806 291.705 330.387 289.527C328.967 287.348 327.609 285.104 326.719 283.264C326.274 282.343 325.952 281.534 325.796 280.891C325.718 280.57 325.684 280.3 325.692 280.085C325.7 279.868 325.751 279.726 325.82 279.636Z" fill="#88C063" stroke="#338100" stroke-width="0.5"/>
<path d="M333.907 266.676C333.973 266.575 334.094 266.475 334.289 266.386C334.484 266.298 334.739 266.228 335.051 266.177C335.676 266.076 336.497 266.06 337.453 266.11C339.364 266.21 341.769 266.573 344.133 267.015C346.495 267.456 348.807 267.975 350.53 268.383C351.391 268.587 352.104 268.764 352.602 268.889C352.776 268.933 352.924 268.971 353.042 269.001L343.882 282.7C343.805 282.606 343.707 282.487 343.592 282.347C343.273 281.957 342.818 281.397 342.277 280.717C341.195 279.358 339.771 277.52 338.397 275.606C337.022 273.69 335.704 271.706 334.831 270.052C334.394 269.224 334.075 268.489 333.913 267.893C333.747 267.28 333.769 266.886 333.907 266.676Z" fill="#88C063" stroke="#338100" stroke-width="0.5"/>
<path d="M341.859 253.518C341.967 253.354 342.25 253.201 342.774 253.108C343.281 253.017 343.948 252.994 344.726 253.024C346.281 253.083 348.237 253.354 350.16 253.691C352.081 254.027 353.961 254.428 355.362 254.745C356.062 254.903 356.642 255.041 357.046 255.138C357.156 255.165 357.252 255.188 357.335 255.209L349.743 266.552C349.689 266.485 349.626 266.406 349.554 266.316C349.298 265.997 348.934 265.54 348.502 264.984C347.637 263.873 346.499 262.37 345.404 260.805C344.307 259.237 343.259 257.614 342.57 256.259C342.225 255.581 341.976 254.98 341.853 254.494C341.726 253.992 341.752 253.681 341.859 253.518Z" fill="#88C063" stroke="#338100" stroke-width="0.5"/>
<path d="M110.91 217.067C119.81 217.912 132.874 210.706 132.874 210.706L136.133 241.047C136.133 241.047 108.334 251.122 98.0973 240.351C93.1535 235.15 93.9622 228.909 88.3081 224.195C77.6044 215.271 67.4988 228.546 58.6069 217.824C56.162 214.876 54.0354 214.299 52.9041 210.079C50.3678 200.617 43.0608 194.172 54.8729 192.465C60.7359 191.618 64.3815 190.237 70.5043 190.725C76.4516 191.198 79.7631 192.375 85.2508 194.716C97.4744 199.93 97.7625 215.82 110.91 217.067Z" fill="#BAEC99"/>
<path d="M110.91 217.067C119.81 217.912 132.874 210.706 132.874 210.706L136.133 241.047C136.133 241.047 108.334 251.122 98.0973 240.351C93.1535 235.15 93.9622 228.909 88.3081 224.195C77.6044 215.271 67.4988 228.546 58.6069 217.824C56.162 214.876 54.0354 214.299 52.9041 210.079C50.3678 200.617 43.0608 194.172 54.8729 192.465C60.7359 191.618 64.3815 190.237 70.5043 190.725C76.4516 191.198 79.7631 192.375 85.2508 194.716C97.4744 199.93 97.7625 215.82 110.91 217.067Z" stroke="#1E6F5C"/>
<path d="M39.4761 219.882C42.8176 223.754 57.9271 216.861 57.9271 216.861L53.3956 210.846L51.0039 203.727C51.0039 203.727 36.1346 216.01 39.4761 219.882Z" fill="#EFFFE4" stroke="#1E6F5C" stroke-width="0.5"/>
<path d="M35.3688 202.023C36.7163 206.956 53.3212 207.245 53.3212 207.245C53.3212 207.245 51.4386 202.865 51.0377 199.88C50.7083 197.429 51.0603 193.546 51.0603 193.546C51.0603 193.546 34.0213 197.089 35.3688 202.023Z" fill="#EFFFE4" stroke="#1E6F5C" stroke-width="0.5"/>
<path d="M53.0311 230.052C57.3784 232.714 68.6646 221.834 68.6646 221.834C68.6646 221.834 64.2535 219.887 61.7937 218.055C59.5581 216.39 56.7859 213.388 56.7859 213.388C56.7859 213.388 48.6837 227.39 53.0311 230.052Z" fill="#EFFFE4" stroke="#1E6F5C" stroke-width="0.5"/>
<path d="M68.5994 222.116C69.9624 221.851 70.444 220.242 71.0343 219.174" stroke="#1E6F5C" stroke-linecap="round"/>
<path d="M56.9473 213.404C57.2046 211.516 59.3787 210.463 60.9502 209.93" stroke="#1E6F5C" stroke-linecap="round"/>
<path d="M50.959 193.777C50.959 193.777 50.5759 197.664 50.9364 200.112C51.3638 203.013 53.3281 207.231 53.3281 207.231" stroke="#1E6F5C" stroke-linecap="round" stroke-linejoin="round"/>
<path d="M52.0714 207.459C52.0714 207.459 52.8498 209.456 53.3958 210.846C53.9995 212.384 56.0256 214.16 56.0256 214.16" stroke="#1E6F5C" stroke-linecap="round" stroke-linejoin="round"/>
<path d="M56.8942 213.438C56.8942 213.438 59.6683 216.481 61.7623 218.058C64.2952 219.964 68.8585 222.001 68.8585 222.001" stroke="#1E6F5C" stroke-linecap="round" stroke-linejoin="round"/>
<path d="M119.423 354.513C124.632 347.828 132.575 331.941 132.575 331.941L102.19 306.256C89.1368 311.897 79.4608 325.867 74.4074 338.814C71.4866 346.297 70.3371 357.271 72.5133 365.311C75.8706 377.715 94.4118 392.739 92.0781 396.18C89.7445 399.62 67.4412 398.651 63.579 405.342C59.7169 412.033 63.1657 413.929 67.0901 423.228C67.7533 424.799 70.5874 432.17 77.5949 434.646C84.6024 437.122 110.299 433.254 110.299 433.254C110.299 433.254 128.702 426.722 130.826 417.285C132.748 408.743 120.618 402.293 119.401 393.624C118.14 384.65 113.865 361.647 119.423 354.513Z" fill="#BAEC99"/>
<path d="M132.575 331.941C132.575 331.941 124.632 347.828 119.423 354.513C113.865 361.647 118.14 384.65 119.401 393.624C120.618 402.293 132.748 408.743 130.826 417.285C128.702 426.722 110.299 433.254 110.299 433.254C110.299 433.254 84.6024 437.122 77.5949 434.646C70.5874 432.17 67.7533 424.799 67.0901 423.228C63.1657 413.929 59.7169 412.033 63.579 405.342C67.4412 398.651 89.7445 399.62 92.0781 396.18C94.4118 392.739 75.8706 377.715 72.5133 365.311C70.3371 357.271 71.4866 346.297 74.4074 338.814C79.4608 325.867 89.1368 311.897 102.19 306.256" stroke="#1E6F5C"/>
<path d="M66.9523 418.808L66.8777 419.062L66.8776 419.062L66.8773 419.062L66.8757 419.062L66.8693 419.061L66.8432 419.056C66.8201 419.051 66.7855 419.045 66.7401 419.036C66.6491 419.019 66.5147 418.995 66.3412 418.965C65.9943 418.904 65.4913 418.82 64.8683 418.729C63.6222 418.546 61.8972 418.33 59.9814 418.201C57.8716 418.06 55.5967 417.58 53.854 417.138C52.9816 416.917 52.2403 416.704 51.717 416.547C51.4553 416.468 51.248 416.403 51.106 416.358C51.0349 416.336 50.9802 416.318 50.9431 416.306L50.9009 416.292L50.8901 416.288L50.8873 416.287L50.8865 416.287L50.8863 416.287C50.8863 416.287 50.8862 416.287 50.986 416.039L50.8862 416.287L50.8117 416.262L50.7731 416.191C50.3562 415.424 50.2698 414.628 50.4511 413.83C50.6307 413.039 51.0681 412.267 51.6639 411.531C52.8523 410.063 54.7204 408.679 56.6583 407.491C58.602 406.3 60.6411 405.291 62.1921 404.581C62.9681 404.226 63.6231 403.945 64.0844 403.753C64.315 403.657 64.4973 403.583 64.6221 403.532C64.6845 403.507 64.7326 403.488 64.7652 403.476L64.8023 403.461L64.8118 403.457L64.8143 403.456L64.815 403.456C64.8151 403.456 64.8153 403.456 64.8684 403.698M66.9523 418.808L67.1853 418.707L67.1852 418.707L67.1851 418.706L67.1847 418.705L67.1827 418.697L67.1751 418.668L67.1455 418.554C67.1197 418.453 67.0822 418.306 67.0356 418.118C66.9423 417.741 66.8123 417.204 66.6658 416.557C66.3726 415.264 66.0141 413.539 65.7509 411.808C65.495 410.125 65.3345 408.088 65.238 406.467C65.1898 405.658 65.1577 404.955 65.1376 404.454C65.1276 404.203 65.1206 404.003 65.1161 403.866C65.1138 403.797 65.1122 403.744 65.1111 403.709L65.1099 403.668L65.1097 403.658L65.1096 403.656L65.1096 403.655L65.1096 403.655L64.8684 403.698M66.9523 418.808L66.8777 419.062L67.3013 419.146L67.1853 418.707L66.9523 418.808ZM64.8684 403.698L65.1096 403.655L65.1013 403.345L64.8153 403.456L64.8684 403.698Z" fill="#EFFFE4" stroke="#1E6F5C" stroke-width="0.5"/>
<path d="M66.1032 414.231C66.1032 414.231 65.5581 410.713 65.3573 408.517C65.2371 407.202 65.0417 403.705 65.0417 403.705" stroke="#1E6F5C" stroke-linecap="round" stroke-linejoin="round"/>
<path d="M68.4967 411.415L68.7392 411.354L68.7392 411.354L68.7394 411.355L68.74 411.357L68.7425 411.367L68.7524 411.406C68.7612 411.441 68.7743 411.492 68.7914 411.558C68.8257 411.691 68.8761 411.885 68.9406 412.127C69.0696 412.612 69.2549 413.293 69.48 414.075C69.9307 415.64 70.539 417.605 71.1728 419.218C71.8219 420.87 72.7051 422.587 73.4281 423.893C73.7892 424.546 74.1095 425.095 74.3395 425.48C74.4544 425.673 74.5467 425.825 74.6102 425.928C74.642 425.98 74.6665 426.02 74.683 426.046L74.7018 426.076L74.7064 426.084L74.7076 426.086L74.7079 426.086L74.7079 426.086L74.4962 426.219L74.7079 426.086L75.0014 426.554L74.4566 426.466L74.4565 426.466L74.456 426.466L74.454 426.466L74.4458 426.464L74.4127 426.459C74.3834 426.455 74.3395 426.448 74.2821 426.44C74.1674 426.423 73.9984 426.398 73.7825 426.369C73.3507 426.312 72.7314 426.235 71.9829 426.161C70.4851 426.013 68.4737 425.875 66.4135 425.913C64.139 425.955 61.6162 425.683 59.6674 425.403C58.6918 425.262 57.8577 425.119 57.2673 425.011C56.972 424.957 56.7376 424.911 56.5768 424.88C56.4964 424.864 56.4344 424.851 56.3923 424.842L56.3445 424.833L56.3322 424.83L56.329 424.829L56.3282 424.829L56.3279 424.829C56.3279 424.829 56.3278 424.829 56.3793 424.585L56.3278 424.829L56.2447 424.812L56.1895 424.747C55.5817 424.038 55.3193 423.274 55.3407 422.484C55.3619 421.702 55.6609 420.915 56.1363 420.15C57.0847 418.624 58.774 417.121 60.5804 415.802C62.392 414.48 64.3444 413.327 65.8418 412.505C66.5909 412.094 67.2273 411.765 67.6766 411.539C67.9013 411.426 68.0793 411.339 68.2013 411.279C68.2623 411.25 68.3093 411.227 68.3412 411.212L68.3775 411.195L68.3869 411.19L68.3893 411.189L68.39 411.189C68.3901 411.189 68.3903 411.188 68.4967 411.415ZM68.4967 411.415L68.7392 411.354L68.6652 411.059L68.3903 411.188L68.4967 411.415Z" fill="#EFFFE4" stroke="#1E6F5C" stroke-width="0.5"/>
<path d="M68.4694 411.352C68.4694 411.352 69.2061 414.935 70.0163 417.123C70.6884 418.938 72.0893 421.625 72.0893 421.625" stroke="#1E6F5C" stroke-linecap="round" stroke-linejoin="round"/>
<path d="M73.8003 419.948C74.964 419.025 76.586 418.571 77.9988 418.204C78.8879 417.973 79.8665 417.813 80.6771 417.367C80.9642 417.209 81.3474 417.062 81.6804 417.086" stroke="#1E6F5C" stroke-linecap="round"/>
<path d="M68.4901 411.376C68.8844 411.132 69.3153 411.001 69.7418 410.824C70.3976 410.553 70.9832 410.206 71.6127 409.894C72.5917 409.408 73.587 409.064 74.604 408.67C75.2165 408.433 75.8096 408.116 76.4268 407.919C76.5806 407.87 77.0489 407.758 77.1321 407.617" stroke="#1E6F5C" stroke-linecap="round"/>
<path d="M80.7206 352.214C78.8832 353.901 78.7009 354.853 78.5326 357.208C78.4103 358.918 79.2313 362.636 81.3381 362.787" stroke="#1E6F5C" stroke-linecap="round"/>
<path d="M77.6948 352.913C74.7644 354.995 73.6771 360.72 76.9786 362.933" stroke="#1E6F5C" stroke-linecap="round"/>
<path d="M92.0849 396.551C92.966 396.785 93.8224 397.036 94.718 397.226C95.563 397.407 96.4241 397.526 97.2852 397.593C97.793 397.632 98.1353 397.637 98.6027 397.443" stroke="#1E6F5C" stroke-linecap="round"/>
<path d="M73.542 420.043L73.7844 419.981L73.7844 419.982L73.7846 419.982L73.7852 419.985L73.7877 419.994L73.7977 420.034C73.8065 420.068 73.8197 420.119 73.8369 420.186C73.8714 420.319 73.9221 420.512 73.9869 420.754C74.1165 421.239 74.3027 421.92 74.5286 422.701C74.9809 424.266 75.5909 426.23 76.2249 427.843C76.8741 429.495 77.7553 431.213 78.4763 432.521C78.8364 433.174 79.1558 433.723 79.3849 434.109C79.4995 434.302 79.5915 434.454 79.6548 434.557C79.6864 434.609 79.7109 434.649 79.7273 434.675L79.746 434.705L79.7507 434.713L79.7518 434.715L79.7521 434.715L79.7521 434.715L80.0459 435.185L79.4993 435.094L79.4992 435.094L79.4987 435.094L79.4968 435.094L79.4886 435.093L79.4559 435.087C79.4394 435.085 79.4183 435.081 79.3928 435.077C79.3733 435.074 79.3512 435.071 79.3265 435.067C79.2128 435.05 79.0454 435.025 78.8316 434.995C78.4038 434.936 77.7904 434.857 77.0491 434.78C75.5657 434.626 73.5739 434.481 71.5345 434.511C69.2823 434.544 66.7833 434.262 64.8526 433.974C63.8861 433.83 63.0597 433.684 62.4746 433.574C62.1821 433.519 61.9498 433.472 61.7904 433.44C61.7107 433.424 61.6493 433.411 61.6076 433.402L61.5602 433.392L61.548 433.39L61.5448 433.389L61.544 433.389L61.5438 433.389C61.5437 433.389 61.5437 433.389 61.5965 433.144L61.5437 433.389L61.4609 433.371L61.4061 433.306C60.8019 432.596 60.5394 431.833 60.5574 431.045C60.5753 430.264 60.8682 429.48 61.3362 428.718C62.2695 427.197 63.9367 425.703 65.7202 424.393C67.5089 423.08 69.4376 421.936 70.917 421.121C71.6572 420.714 72.286 420.388 72.7301 420.164C72.9521 420.052 73.128 419.965 73.2486 419.906C73.3089 419.877 73.3554 419.855 73.3869 419.84L73.4228 419.822L73.4321 419.818L73.4345 419.817L73.4351 419.817C73.4353 419.817 73.4354 419.817 73.542 420.043ZM73.542 420.043L73.7844 419.981L73.71 419.687L73.4354 419.817L73.542 420.043Z" fill="#EFFFE4" stroke="#1E6F5C" stroke-width="0.5"/>
<path d="M73.6353 419.994C73.6353 419.994 74.527 425.293 75.8628 428.427C76.9882 431.066 79.5447 434.786 79.5447 434.786" stroke="#1E6F5C" stroke-linecap="round" stroke-linejoin="round"/>
<path d="M147.836 354.114C166.226 323.97 138.798 260.974 138.798 260.974L121.064 199.928C121.064 199.928 96.6143 269.683 92.5207 285.75C87.1621 306.782 84.984 321.176 93.051 341.325C99.8384 358.278 134.951 376.544 134.951 376.544C134.951 376.544 140.226 366.589 147.836 354.114Z" fill="#D2F895" stroke="#1E6F5C"/>
<path d="M121.017 221.659C116.992 223.47 114.98 221.659 114.98 221.659" stroke="#1E6F5C" stroke-opacity="0.05" stroke-width="5" stroke-linecap="round" stroke-linejoin="round"/>
<path d="M122.627 229.708C115.383 231.519 111.76 229.708 111.76 229.708" stroke="#1E6F5C" stroke-opacity="0.05" stroke-width="5" stroke-linecap="round" stroke-linejoin="round"/>
<path d="M123.834 238.16C114.443 239.972 109.748 238.16 109.748 238.16" stroke="#1E6F5C" stroke-opacity="0.05" stroke-width="5" stroke-linecap="round" stroke-linejoin="round"/>
<path d="M123.432 247.015C111.894 248.826 106.126 247.015 106.126 247.015" stroke="#1E6F5C" stroke-opacity="0.05" stroke-width="5" stroke-linecap="round" stroke-linejoin="round"/>
<path d="M122.542 258.429C122.542 258.429 116.523 262.391 113.236 262.963C107.747 263.918 101.305 261.77 101.305 261.77" stroke="#1E6F5C" stroke-opacity="0.05" stroke-width="5" stroke-linecap="round" stroke-linejoin="round"/>
<path d="M120.155 267.02C120.155 267.02 114.136 270.982 110.849 271.553C105.361 272.508 98.9186 270.36 98.9186 270.36" stroke="#1E6F5C" stroke-opacity="0.05" stroke-width="5" stroke-linecap="round" stroke-linejoin="round"/>
<path d="M143.062 295.653C143.062 295.653 128.049 299.61 119.85 300.181C106.16 301.135 91.2338 298.532 91.2338 298.532" stroke="#1E6F5C" stroke-opacity="0.05" stroke-width="5" stroke-linecap="round" stroke-linejoin="round"/>
<path d="M142.349 284.446C142.349 284.446 127.335 288.403 119.136 288.974C105.447 289.927 93.0449 287.464 93.0449 287.464" stroke="#1E6F5C" stroke-opacity="0.05" stroke-width="5" stroke-linecap="round" stroke-linejoin="round"/>
<path d="M143.062 306.152C143.062 306.152 127.779 310.109 119.431 310.68C105.495 311.634 89.1354 309.489 89.1354 309.489" stroke="#1E6F5C" stroke-opacity="0.05" stroke-width="5" stroke-linecap="round" stroke-linejoin="round"/>
<path d="M144.017 316.651C144.017 316.651 128.327 320.608 119.758 321.179C105.452 322.133 88.658 319.988 88.658 319.988" stroke="#1E6F5C" stroke-opacity="0.05" stroke-width="5" stroke-linecap="round" stroke-linejoin="round"/>
<path d="M144.017 327.15C144.017 327.15 129.003 331.107 120.804 331.678C107.114 332.632 91.0442 330.487 91.0442 330.487" stroke="#1E6F5C" stroke-opacity="0.05" stroke-width="5" stroke-linecap="round" stroke-linejoin="round"/>
<path d="M143.062 337.649C143.062 337.649 129.402 342.794 121.941 343.536C109.485 344.775 94.8621 341.987 94.8621 341.987" stroke="#1E6F5C" stroke-opacity="0.05" stroke-width="5" stroke-linecap="round" stroke-linejoin="round"/>
<path d="M141.63 348.148C141.63 348.148 130.269 352.106 124.064 352.676C113.704 353.63 101.543 351.485 101.543 351.485" stroke="#1E6F5C" stroke-opacity="0.05" stroke-width="5" stroke-linecap="round" stroke-linejoin="round"/>
<path d="M136.381 358.647C136.381 358.647 130.552 362.172 127.369 362.68C122.054 363.53 114.428 362.044 114.428 362.044" stroke="#1E6F5C" stroke-opacity="0.05" stroke-width="5" stroke-linecap="round" stroke-linejoin="round"/>
<path d="M272.152 317.129C256.843 315.216 244.234 309.97 226.577 289.688C208.919 269.406 195.649 231.316 175.991 178.016L118.439 182.031C118.439 188.464 121.363 232.618 128.461 246.429C133.576 256.384 139.242 265.588 139.242 265.588C139.242 265.588 148.551 333.888 141.154 351.012C133.757 368.136 129.736 371.771 136.859 379.407C143.982 387.043 167.792 390.096 167.792 390.096L188.195 394.071L233.189 394.071C233.189 394.071 275.762 390.89 299.375 376.492C334.777 354.906 346.734 332.931 359.962 301.141C373.191 269.351 359.247 236 353.281 250.794C347.316 265.588 343.891 291.447 324.17 305.437C307.188 317.483 283.958 318.603 272.152 317.129Z" fill="#BAEC99" stroke="#1E6F5C"/>
<path d="M35.5302 263.841C36.6303 268.151 50.7238 268.176 50.7238 268.176L48.995 255.565C48.995 255.565 34.4301 259.531 35.5302 263.841Z" fill="#EFFFE4" stroke="#1E6F5C" stroke-width="0.5"/>
<path d="M30.7636 250.261C31.8178 255.283 47.1174 255.671 47.1174 255.671L44.4762 242.66C44.4762 242.66 29.7094 245.238 30.7636 250.261Z" fill="#EFFFE4" stroke="#1E6F5C" stroke-width="0.5"/>
<path d="M34.7957 233.587C34.5503 238.515 49.6866 243.763 49.6866 243.763L51.6883 229.838C51.6883 229.838 35.041 228.66 34.7957 233.587Z" fill="#EFFFE4" stroke="#1E6F5C" stroke-width="0.5"/>
<path d="M115.053 251.744C118.455 247.019 134.097 234.459 144.297 240.147C154.496 245.836 155.183 259.069 150.361 269.904C150.361 269.904 124.228 285.585 109.228 278.924C98.6029 274.205 92.1472 258.133 85.7955 255.246C81.2715 253.189 78.6454 258.504 74.9473 260.863C68.9839 264.667 50.5352 270.332 48.6244 268.404C46.7136 266.476 49.9956 260.59 47.9653 256.338C47.9653 256.338 41.487 253.881 41.1466 249.772C40.8062 245.663 42.3482 241.543 48.2189 239.95C48.2189 239.95 44.8044 235.728 47.1705 231.479C50.3332 225.8 57.3528 226.822 63.8085 227.404C71.8391 228.128 79.5486 226.179 86.0854 230.886C97.3103 238.969 111.65 256.47 115.053 251.744Z" fill="#BAEC99"/>
<path d="M144.296 240.147C134.097 234.459 118.455 247.019 115.053 251.744C111.65 256.47 97.3102 238.969 86.0853 230.886C79.5484 226.179 71.839 228.128 63.8084 227.404C57.3526 226.822 50.333 225.8 47.1704 231.479C44.8043 235.728 48.2188 239.95 48.2188 239.95C42.3481 241.543 40.806 245.663 41.1464 249.772C41.4868 253.881 47.9652 256.338 47.9652 256.338C49.9954 260.59 46.7135 266.476 48.6243 268.404C50.5351 270.331 68.9837 264.667 74.9471 260.863C78.6452 258.504 81.2713 253.189 85.7954 255.246C92.1471 258.133 98.6028 274.205 109.228 278.924C124.228 285.585 150.361 269.904 150.361 269.904" stroke="#1E6F5C"/>
<path d="M118.158 275.362C114.301 275.99 112.12 274.839 110.812 271.352" stroke="#1E6F5C" stroke-linecap="round"/>
<ellipse cx="175.464" cy="208.845" rx="6.91682" ry="9.51062" transform="rotate(-5.90261 175.464 208.845)" fill="#75C02A"/>
<ellipse cx="196.991" cy="290.051" rx="6.91682" ry="9.51062" transform="rotate(103.394 196.991 290.051)" fill="#88C063"/>
<ellipse cx="228.9" cy="303.357" rx="5.37371" ry="7.38885" transform="rotate(144.724 228.9 303.357)" fill="#88C063"/>
<ellipse cx="180.207" cy="237.908" rx="6.91682" ry="9.51062" transform="rotate(-29.9275 180.207 237.908)" fill="#88C063"/>
<ellipse cx="210.355" cy="301.096" rx="4.90116" ry="6.73909" transform="rotate(-139.315 210.355 301.096)" fill="#75C02A"/>
<ellipse cx="189.524" cy="268.226" rx="6.91682" ry="9.51062" transform="rotate(12.8559 189.524 268.226)" fill="#88C063"/>
<ellipse cx="189.83" cy="305.697" rx="2.59806" ry="3.57234" transform="rotate(-5.86725 189.83 305.697)" fill="#88C063"/>
<ellipse cx="216.946" cy="288.019" rx="2.59806" ry="3.57234" transform="rotate(-5.86725 216.946 288.019)" fill="#88C063"/>
<ellipse cx="219.893" cy="311.26" rx="2.0052" ry="2.75716" transform="rotate(-5.86725 219.893 311.26)" fill="#88C063"/>
<ellipse cx="187.289" cy="223.858" rx="3.45841" ry="5.18761" transform="rotate(-5.90261 187.289 223.858)" fill="#88C063"/>
<ellipse cx="206.783" cy="271.817" rx="4.18681" ry="6.76656" transform="rotate(-42.2966 206.783 271.817)" fill="#88C063"/>
<ellipse cx="197.952" cy="250.999" rx="4.32301" ry="6.05221" transform="rotate(-23.2374 197.952 250.999)" fill="#75C02A"/>
<ellipse cx="177.391" cy="257.08" rx="2.37299" ry="3.32219" transform="rotate(-41.9605 177.391 257.08)" fill="#75C02A"/>
<ellipse cx="166.278" cy="223.831" rx="2.37299" ry="3.32219" transform="rotate(-41.9605 166.278 223.831)" fill="#88C063"/>
<path d="M180.618 387.699C185.849 380.659 193.375 364.246 193.375 364.246L157.753 340.793C143.768 347.35 134.174 361.975 129.611 375.249C126.973 382.921 126.569 393.949 129.611 401.814C134.302 413.947 155.988 427.61 153.68 431.208C151.372 434.807 126.638 435.431 122.897 442.38C119.156 449.329 123.119 450.974 128.192 459.969C129.049 461.489 132.765 468.64 140.708 470.61C148.651 472.58 176.754 466.89 176.754 466.89C176.754 466.89 196.583 459.062 198.185 449.498C199.636 440.84 185.716 435.272 183.684 426.711C181.582 417.85 175.038 395.21 180.618 387.699Z" fill="#BAEC99"/>
<path d="M193.375 364.246C193.375 364.246 185.849 380.659 180.618 387.699C175.038 395.21 181.582 417.85 183.684 426.711C185.716 435.272 199.636 440.84 198.185 449.498C196.583 459.062 176.754 466.89 176.754 466.89C176.754 466.89 148.651 472.58 140.708 470.61C132.765 468.64 129.049 461.489 128.192 459.969C123.119 450.974 119.156 449.329 122.897 442.38C126.638 435.431 151.372 434.807 153.68 431.208C155.988 427.61 134.302 413.947 129.611 401.814C126.569 393.949 126.973 382.921 129.611 375.249C134.174 361.975 143.768 347.35 157.753 340.793" stroke="#1E6F5C"/>
<path d="M127.69 455.571L127.645 455.826L127.645 455.826L127.645 455.826L127.643 455.826L127.636 455.825L127.607 455.822C127.581 455.819 127.542 455.815 127.491 455.81C127.389 455.799 127.238 455.784 127.044 455.767C126.655 455.731 126.092 455.683 125.396 455.636C124.004 455.542 122.079 455.451 119.949 455.459C117.608 455.468 115.057 455.152 113.096 454.835C112.115 454.677 111.279 454.518 110.688 454.398C110.393 454.339 110.158 454.289 109.998 454.254C109.918 454.236 109.856 454.222 109.814 454.213L109.766 454.202L109.754 454.199L109.751 454.199L109.75 454.198L109.75 454.198C109.75 454.198 109.75 454.198 109.82 453.947L109.75 454.198L109.669 454.18L109.621 454.112C109.097 453.372 108.937 452.58 109.075 451.767C109.212 450.964 109.634 450.164 110.232 449.39C111.427 447.845 113.378 446.335 115.425 445.013C117.478 443.688 119.651 442.537 121.308 441.719C122.138 441.31 122.839 440.983 123.334 440.758C123.581 440.646 123.776 440.559 123.91 440.5C123.977 440.471 124.029 440.449 124.063 440.434L124.103 440.416L124.113 440.412L124.116 440.411L124.117 440.411C124.117 440.411 124.117 440.411 124.192 440.648M127.69 455.571L127.917 455.459L127.917 455.459L127.917 455.459L127.916 455.457L127.913 455.45L127.903 455.421L127.861 455.309C127.824 455.211 127.771 455.067 127.705 454.882C127.572 454.514 127.386 453.987 127.173 453.353C126.747 452.084 126.214 450.389 125.786 448.682C125.371 447.022 125.032 445.003 124.798 443.394C124.681 442.59 124.589 441.891 124.528 441.393C124.497 441.143 124.473 440.944 124.457 440.808C124.45 440.74 124.444 440.687 124.44 440.652L124.435 440.612L124.434 440.601L124.434 440.599L124.434 440.598L124.434 440.598L124.192 440.648M127.69 455.571L127.645 455.826L128.074 455.874L127.917 455.459L127.69 455.571ZM124.192 440.648L124.434 440.598L124.4 440.29L124.117 440.411L124.192 440.648Z" fill="#EFFFE4" stroke="#1E6F5C" stroke-width="0.5"/>
<path d="M126.389 451.066C126.389 451.066 125.509 447.595 125.113 445.42C124.876 444.117 124.384 440.642 124.384 440.642" stroke="#1E6F5C" stroke-linecap="round" stroke-linejoin="round"/>
<path d="M128.813 448.086L129.057 448.018L129.057 448.018L129.057 448.019L129.058 448.021L129.062 448.031L129.076 448.069C129.088 448.103 129.107 448.153 129.131 448.218C129.179 448.348 129.25 448.537 129.341 448.775C129.522 449.249 129.78 449.915 130.091 450.679C130.713 452.208 131.54 454.124 132.368 455.687C133.216 457.288 134.328 458.937 135.23 460.189C135.681 460.814 136.079 461.338 136.363 461.706C136.506 461.89 136.62 462.035 136.698 462.134C136.737 462.183 136.767 462.221 136.788 462.246L136.811 462.275L136.817 462.282L136.818 462.284L136.818 462.284L136.818 462.284L136.616 462.425L136.818 462.284L137.164 462.71L136.607 462.666L136.607 462.666L136.607 462.666L136.604 462.666L136.595 462.665L136.558 462.662C136.525 462.66 136.476 462.656 136.412 462.652C136.284 462.643 136.095 462.631 135.854 462.617C135.371 462.591 134.68 462.559 133.847 462.538C132.179 462.497 129.943 462.503 127.666 462.688C125.158 462.892 122.349 462.801 120.173 462.66C119.083 462.589 118.15 462.506 117.489 462.44C117.159 462.407 116.896 462.379 116.716 462.358C116.626 462.348 116.556 462.34 116.509 462.335L116.456 462.328L116.442 462.327L116.438 462.326L116.437 462.326L116.437 462.326C116.437 462.326 116.437 462.326 116.458 462.086L116.437 462.326L116.348 462.315L116.283 462.255C115.554 461.59 115.202 460.844 115.163 460.053C115.125 459.271 115.393 458.467 115.857 457.672C116.782 456.086 118.527 454.47 120.419 453.027C122.316 451.58 124.381 450.291 125.971 449.365C126.766 448.902 127.444 448.529 127.922 448.271C128.161 448.143 128.351 448.043 128.481 447.975C128.546 447.941 128.596 447.915 128.63 447.898L128.669 447.878L128.679 447.873L128.682 447.872L128.682 447.872C128.682 447.871 128.683 447.871 128.813 448.086ZM128.813 448.086L129.057 448.018L128.954 447.734L128.683 447.871L128.813 448.086Z" fill="#EFFFE4" stroke="#1E6F5C" stroke-width="0.5"/>
<path d="M128.778 448.026C128.778 448.026 129.876 451.547 130.944 453.672C131.831 455.434 133.592 458.015 133.592 458.015" stroke="#1E6F5C" stroke-linecap="round" stroke-linejoin="round"/>
<path d="M135.351 456.22C136.565 455.216 138.322 454.648 139.855 454.181C140.82 453.888 141.889 453.657 142.75 453.155C143.055 452.977 143.467 452.803 143.837 452.803" stroke="#1E6F5C" stroke-linecap="round"/>
<path d="M128.804 448.048C129.22 447.777 129.686 447.615 130.144 447.409C130.847 447.091 131.467 446.703 132.139 446.347C133.183 445.793 134.256 445.378 135.349 444.913C136.007 444.633 136.638 444.275 137.305 444.034C137.471 443.974 137.98 443.829 138.061 443.683" stroke="#1E6F5C" stroke-linecap="round"/>
<path d="M137.649 388.165C135.751 389.978 135.625 390.94 135.625 393.302C135.625 395.017 136.826 398.667 139.167 398.667" stroke="#1E6F5C" stroke-linecap="round"/>
<path d="M134.359 389.078C131.284 391.363 130.535 397.151 134.359 399.123" stroke="#1E6F5C" stroke-linecap="round"/>
<path d="M153.717 431.578C154.709 431.749 155.676 431.938 156.681 432.064C157.63 432.184 158.591 432.242 159.548 432.247C160.113 432.25 160.492 432.23 160.993 432.004" stroke="#1E6F5C" stroke-linecap="round"/>
<path d="M142.874 470.672L142.864 470.913L142.864 470.913L142.863 470.913L142.861 470.913L142.852 470.912L142.815 470.909C142.783 470.907 142.734 470.903 142.671 470.899C142.543 470.889 142.356 470.876 142.117 470.862C141.639 470.833 140.955 470.798 140.129 470.775C138.476 470.727 136.261 470.723 134.007 470.899C131.522 471.092 128.739 470.99 126.582 470.841C125.503 470.766 124.578 470.679 123.923 470.611C123.595 470.576 123.335 470.547 123.156 470.526C123.067 470.516 122.998 470.507 122.951 470.501L122.898 470.495L122.884 470.493L122.881 470.493L122.88 470.493L122.88 470.493C122.88 470.493 122.88 470.493 122.902 470.253L122.88 470.493L122.791 470.481L122.726 470.422C122.001 469.755 121.649 469.01 121.607 468.221C121.565 467.441 121.826 466.639 122.282 465.848C123.191 464.269 124.913 462.662 126.78 461.23C128.652 459.793 130.692 458.516 132.263 457.598C133.048 457.139 133.718 456.769 134.19 456.515C134.427 456.387 134.614 456.288 134.743 456.221C134.807 456.188 134.857 456.162 134.89 456.145L134.928 456.125L134.938 456.12L134.941 456.119L134.942 456.118C134.942 456.118 134.942 456.118 135.073 456.333M142.874 470.672L143.077 470.532L143.077 470.532L143.076 470.532L143.075 470.53L143.069 470.523L143.046 470.494C143.026 470.469 142.996 470.431 142.957 470.382C142.878 470.283 142.765 470.138 142.623 469.954C142.339 469.585 141.943 469.06 141.493 468.435C140.593 467.182 139.483 465.532 138.635 463.931C137.807 462.367 136.978 460.452 136.354 458.924C136.042 458.16 135.783 457.495 135.601 457.021C135.51 456.784 135.439 456.594 135.39 456.464C135.366 456.399 135.348 456.349 135.335 456.315L135.321 456.277L135.317 456.267L135.317 456.265L135.316 456.265L135.316 456.264L135.073 456.333M142.874 470.672L142.864 470.913L143.423 470.96L143.077 470.532L142.874 470.672ZM135.073 456.333L135.316 456.264L135.213 455.981L134.942 456.118L135.073 456.333Z" fill="#EFFFE4" stroke="#1E6F5C" stroke-width="0.5"/>
<path d="M135.172 456.278C135.172 456.278 136.577 461.5 138.301 464.53C139.754 467.083 142.874 470.61 142.874 470.61" stroke="#1E6F5C" stroke-linecap="round" stroke-linejoin="round"/>
<path d="M110.633 77.9732C108.534 76.4385 107.753 73.5994 108.113 70.3251C108.474 67.0429 109.983 63.268 112.542 59.7678C115.101 56.2676 118.24 53.6849 121.259 52.3456C124.269 51.0095 127.212 50.8926 129.311 52.4273C131.41 53.9621 132.191 56.8011 131.831 60.0755C131.47 63.3576 129.961 67.1325 127.402 70.6327C124.843 74.133 121.704 76.7156 118.686 78.0549C115.675 79.391 112.732 79.5079 110.633 77.9732Z" fill="white" stroke="#1E6F5C" stroke-width="0.5"/>
<path d="M128.448 141.82C128.448 141.82 94.762 151.081 74.8296 144.576C62.5473 141.076 46.0624 142.844 43.6485 148.304C41.2347 153.763 53.7206 162.41 62.315 171.105C70.9094 179.8 127.852 175.134 128.448 141.82Z" fill="#2E0404"/>
<path d="M43.649 148.304C46.0629 142.844 62.5479 141.076 74.8301 144.576C74.8301 144.576 60.0261 145.945 56.0226 146.731C47.927 148.318 41.2352 153.763 43.649 148.304Z" fill="#BAEC99"/>
<path d="M74.8301 144.576L74.9671 144.095L74.8761 145.074L74.8301 144.576ZM44.1063 148.506C43.9947 148.758 43.6994 148.873 43.4469 148.761C43.1943 148.649 43.0801 148.354 43.1917 148.102L44.1063 148.506ZM56.0226 146.731L55.9263 146.24L56.0226 146.731ZM74.6931 145.057C68.6206 143.326 61.4953 142.897 55.5962 143.577C52.6467 143.917 50.0262 144.532 48.0071 145.386C45.9705 146.248 44.6324 147.316 44.1063 148.506L43.1917 148.102C43.8726 146.562 45.5003 145.361 47.6174 144.465C49.752 143.562 52.4729 142.93 55.4817 142.583C61.4991 141.89 68.7573 142.326 74.9671 144.095L74.6931 145.057ZM55.9263 146.24C57.9551 145.842 62.6829 145.301 66.8755 144.862C68.9779 144.641 70.9549 144.445 72.4061 144.305C73.1318 144.234 73.7262 144.178 74.1391 144.139C74.3456 144.119 74.5068 144.104 74.6163 144.094C74.6711 144.089 74.713 144.085 74.7412 144.082C74.7553 144.081 74.766 144.08 74.7732 144.079C74.7767 144.079 74.7795 144.078 74.7813 144.078C74.7822 144.078 74.7829 144.078 74.7833 144.078C74.7835 144.078 74.7837 144.078 74.7838 144.078C74.784 144.078 74.784 144.078 74.8301 144.576C74.8761 145.074 74.8761 145.074 74.876 145.074C74.8759 145.074 74.8757 145.074 74.8755 145.074C74.875 145.074 74.8744 145.074 74.8735 145.074C74.8717 145.074 74.869 145.074 74.8655 145.075C74.8584 145.075 74.8478 145.076 74.8338 145.078C74.8057 145.08 74.764 145.084 74.7094 145.089C74.6001 145.1 74.4393 145.115 74.2332 145.134C73.8209 145.173 73.2274 145.23 72.5027 145.3C71.0531 145.44 69.0788 145.636 66.9798 145.856C62.7695 146.298 58.0936 146.834 56.1188 147.221L55.9263 146.24ZM46.0771 149.73C48.387 148.861 51.9337 147.023 55.9263 146.24L56.1188 147.221C52.2323 147.983 48.8938 149.738 46.4294 150.666L46.0771 149.73Z" fill="#1E6F5C"/>
<path d="M69.0055 151.4C82.695 142.998 132.782 138.709 132.782 138.709C132.782 138.709 107.439 167.091 88.1631 170.712C73.4457 173.476 61.7845 165.894 61.7845 165.894C61.7845 165.894 62.2165 155.567 69.0055 151.4Z" fill="#FC9797"/>
<path d="M116.358 141.689L116.005 141.699L116.132 142.029L116.365 141.938C116.132 142.029 116.132 142.029 116.132 142.029L116.132 142.029L116.133 142.03L116.134 142.033L116.139 142.045L116.157 142.091C116.173 142.131 116.196 142.189 116.226 142.263C116.286 142.411 116.374 142.622 116.484 142.875C116.703 143.381 117.01 144.056 117.364 144.731C117.716 145.403 118.12 146.086 118.532 146.601C118.737 146.859 118.952 147.083 119.171 147.243C119.387 147.402 119.632 147.515 119.89 147.508C120.148 147.5 120.384 147.371 120.591 147.2C120.799 147.026 121 146.789 121.189 146.519C121.568 145.98 121.929 145.273 122.239 144.58C122.551 143.885 122.816 143.192 123.004 142.674C123.097 142.415 123.172 142.199 123.223 142.047C123.248 141.971 123.268 141.912 123.282 141.871L123.297 141.824L123.301 141.812L123.302 141.809L123.302 141.808L123.302 141.808C123.302 141.808 123.302 141.808 123.064 141.732L123.302 141.808L123.409 141.471L123.056 141.482L116.358 141.689Z" fill="white" stroke="#1E6F5C" stroke-width="0.5"/>
<path d="M107.373 143.531L107.029 143.542L107.146 143.866L107.381 143.781C107.146 143.866 107.146 143.866 107.146 143.866L107.146 143.866L107.146 143.867L107.148 143.871L107.153 143.886L107.173 143.942C107.191 143.991 107.218 144.062 107.252 144.154C107.321 144.336 107.421 144.595 107.546 144.907C107.796 145.529 108.147 146.36 108.55 147.19C108.952 148.018 109.41 148.856 109.876 149.488C110.109 149.803 110.351 150.076 110.596 150.271C110.838 150.464 111.111 150.602 111.4 150.593C111.689 150.584 111.953 150.43 112.183 150.222C112.416 150.013 112.64 149.725 112.853 149.396C113.279 148.737 113.685 147.872 114.035 147.021C114.386 146.167 114.685 145.316 114.896 144.68C115.002 144.361 115.086 144.096 115.143 143.91C115.172 143.817 115.194 143.744 115.209 143.694L115.226 143.636L115.23 143.622L115.231 143.618L115.232 143.617L115.232 143.616C115.232 143.616 115.232 143.616 114.992 143.546L115.232 143.616L115.328 143.286L114.984 143.296L107.373 143.531Z" fill="white" stroke="#1E6F5C" stroke-width="0.5"/>
<path d="M104.108 161.796L104.394 161.681L104.223 161.425L104.015 161.564C104.223 161.425 104.223 161.425 104.223 161.425L104.223 161.425L104.222 161.424L104.219 161.42L104.209 161.405L104.171 161.348C104.137 161.298 104.087 161.225 104.023 161.132C103.896 160.947 103.711 160.684 103.484 160.368C103.03 159.738 102.403 158.9 101.715 158.072C101.029 157.246 100.275 156.421 99.5662 155.823C99.2121 155.524 98.8613 155.274 98.5292 155.11C98.2011 154.948 97.863 154.855 97.5471 154.912C97.211 154.972 96.9222 155.233 96.6771 155.557C96.4253 155.889 96.1851 156.334 95.9582 156.842C95.5038 157.86 95.0842 159.176 94.7275 160.471C94.3702 161.769 94.0735 163.054 93.8662 164.014C93.7625 164.495 93.6811 164.894 93.6256 165.174C93.5978 165.314 93.5766 165.424 93.5622 165.498L93.5459 165.584L93.5417 165.606L93.5407 165.612L93.5404 165.614L93.5403 165.614C93.5403 165.614 93.5403 165.614 93.7861 165.66L93.5403 165.614L93.4574 166.061L93.879 165.892L104.108 161.796Z" fill="white" stroke="#1E6F5C" stroke-width="0.5"/>
<path d="M87.057 168.248L87.3485 168.233L87.2884 167.947L87.0437 167.999C87.2884 167.947 87.2883 167.947 87.2883 167.947L87.2882 167.947L87.2879 167.945L87.2867 167.939L87.2817 167.916L87.2625 167.827C87.2455 167.749 87.2203 167.635 87.1875 167.489C87.1218 167.198 87.0254 166.783 86.9023 166.283C86.6563 165.284 86.3034 163.946 85.876 162.594C85.4492 161.244 84.9452 159.87 84.3955 158.804C84.1208 158.272 83.8298 157.807 83.5246 157.458C83.2233 157.113 82.8829 156.853 82.5047 156.788C82.1048 156.72 81.6706 156.918 81.2537 157.217C80.825 157.525 80.3587 157.979 79.8774 158.523C78.9133 159.613 77.8573 161.098 76.8806 162.587C75.9028 164.077 74.9995 165.58 74.341 166.709C74.0117 167.274 73.7433 167.745 73.5572 168.076C73.4642 168.241 73.3917 168.372 73.3424 168.46L73.2862 168.562L73.2718 168.588L73.2682 168.595L73.2672 168.597L73.267 168.597C73.2669 168.597 73.2669 168.597 73.4862 168.717L73.2669 168.597L73.0515 168.991L73.4994 168.967L87.057 168.248Z" fill="white" stroke="#1E6F5C" stroke-width="0.5"/>
<path d="M65.3882 164.978L65.6926 165.145L65.7544 164.803L65.5084 164.759C65.7544 164.803 65.7544 164.803 65.7545 164.803L65.7545 164.803L65.7549 164.801L65.7562 164.793L65.7615 164.764L65.7816 164.65C65.7991 164.55 65.8244 164.404 65.8559 164.218C65.9189 163.845 66.0064 163.312 66.1049 162.669C66.3018 161.383 66.5426 159.654 66.7179 157.889C66.8929 156.125 67.0035 154.315 66.9372 152.869C66.9041 152.147 66.8264 151.503 66.6854 150.997C66.5482 150.505 66.334 150.08 65.9785 149.884C65.6232 149.688 65.148 149.733 64.6561 149.879C64.1504 150.029 63.5609 150.306 62.928 150.663C61.6603 151.377 60.1763 152.434 58.7661 153.521C57.3541 154.61 56.0088 155.733 55.0169 156.585C54.5208 157.011 54.1128 157.368 53.8287 157.62C53.6867 157.746 53.5756 157.845 53.4999 157.913L53.4136 157.99L53.3914 158.01L53.3857 158.016L53.3842 158.017L53.3839 158.017C53.3838 158.017 53.3837 158.017 53.5516 158.203L53.3837 158.017L53.1237 158.253L53.4314 158.422L65.3882 164.978Z" fill="white" stroke="#1E6F5C" stroke-width="0.5"/>
<path d="M98.2175 144.723L97.8742 144.734L97.9898 145.057L98.2252 144.973C97.9898 145.057 97.9898 145.057 97.9898 145.057L97.9899 145.058L97.9904 145.059L97.992 145.063L97.9983 145.081L98.0229 145.148C98.0444 145.207 98.0762 145.294 98.1173 145.403C98.1995 145.622 98.319 145.935 98.4684 146.31C98.7672 147.059 99.1865 148.059 99.6677 149.058C100.148 150.055 100.694 151.061 101.249 151.818C101.526 152.196 101.812 152.522 102.101 152.753C102.386 152.982 102.701 153.14 103.031 153.13C103.36 153.12 103.665 152.942 103.936 152.696C104.209 152.448 104.475 152.105 104.728 151.711C105.235 150.921 105.719 149.883 106.136 148.858C106.555 147.831 106.912 146.808 107.164 146.041C107.29 145.658 107.39 145.339 107.458 145.115C107.493 145.003 107.519 144.915 107.537 144.855L107.557 144.786L107.562 144.768L107.564 144.763L107.564 144.762L107.564 144.762C107.564 144.762 107.564 144.762 107.324 144.692L107.564 144.762L107.66 144.432L107.316 144.442L98.2175 144.723Z" fill="white" stroke="#1E6F5C" stroke-width="0.5"/>
<path d="M85.5006 145.809L85.1585 145.776L85.2319 146.111L85.4761 146.058C85.2319 146.111 85.2319 146.112 85.2319 146.112L85.232 146.112L85.2323 146.113L85.2335 146.119L85.2382 146.14L85.2566 146.222C85.2728 146.294 85.2968 146.398 85.3281 146.532C85.3907 146.798 85.4827 147.179 85.6002 147.637C85.835 148.551 86.1723 149.774 86.5816 151.006C86.9902 152.235 87.474 153.483 88.0039 154.442C88.2686 154.921 88.5504 155.339 88.8477 155.647C89.142 155.953 89.4762 156.176 89.8463 156.213C90.2164 156.249 90.5877 156.095 90.9359 155.853C91.2875 155.608 91.6453 155.253 91.9982 154.835C92.7048 153.997 93.4224 152.867 94.0625 151.741C94.7039 150.613 95.273 149.479 95.6814 148.628C95.8857 148.202 96.0501 147.846 96.1635 147.597C96.2201 147.472 96.2641 147.374 96.2939 147.307L96.3279 147.23L96.3366 147.211L96.3389 147.205L96.3395 147.204L96.3396 147.204C96.3397 147.204 96.3397 147.204 96.1105 147.104L96.3397 147.204L96.4771 146.889L96.135 146.855L85.5006 145.809Z" fill="white" stroke="#1E6F5C" stroke-width="0.5"/>
<path d="M70.0073 142.464L69.6666 142.37L69.6916 142.722L69.9409 142.705C69.6916 142.722 69.6916 142.722 69.6916 142.722L69.6916 142.723L69.6917 142.725L69.6922 142.731L69.6941 142.757L69.7018 142.857C69.7086 142.944 69.719 143.072 69.7333 143.235C69.7618 143.56 69.8057 144.026 69.8672 144.587C69.9903 145.709 70.1843 147.215 70.468 148.746C70.7512 150.275 71.1257 151.842 71.6128 153.08C71.8563 153.699 72.1318 154.246 72.4452 154.668C72.7568 155.088 73.1232 155.407 73.5548 155.525C73.9863 155.644 74.4644 155.558 74.9469 155.357C75.4322 155.155 75.9491 154.825 76.4749 154.418C77.5272 153.604 78.6507 152.45 79.6767 151.282C80.7043 150.111 81.6417 148.917 82.3216 148.016C82.6617 147.566 82.9378 147.188 83.129 146.923C83.2246 146.791 83.299 146.686 83.3495 146.615L83.4072 146.533L83.422 146.512L83.4258 146.506L83.4268 146.505L83.4271 146.504C83.4272 146.504 83.4272 146.504 83.222 146.361L83.4272 146.504L83.629 146.214L83.2884 146.12L70.0073 142.464Z" fill="white" stroke="#1E6F5C" stroke-width="0.5"/>
<path d="M54.767 132.943L54.4645 132.79L54.408 133.125L54.6545 133.166C54.408 133.125 54.4079 133.125 54.4079 133.125L54.4078 133.125L54.4075 133.127L54.4062 133.135L54.4013 133.164L54.3826 133.279C54.3664 133.379 54.343 133.525 54.3142 133.712C54.2566 134.086 54.1774 134.622 54.0908 135.269C53.9179 136.562 53.7153 138.302 53.5977 140.087C53.4802 141.869 53.4466 143.706 53.6153 145.189C53.6996 145.93 53.8357 146.595 54.0436 147.124C54.2496 147.649 54.5408 148.077 54.9597 148.289C55.3787 148.5 55.8964 148.479 56.4407 148.333C56.99 148.186 57.6055 147.9 58.2513 147.527C59.5442 146.781 61.0016 145.662 62.3646 144.508C63.7296 143.353 65.0084 142.155 65.9456 141.247C66.4143 140.793 66.7979 140.411 67.0644 140.142C67.1977 140.008 67.3018 139.902 67.3726 139.829L67.4534 139.746L67.4742 139.725L67.4795 139.719L67.4809 139.718L67.4812 139.718C67.4813 139.717 67.4814 139.717 67.3013 139.544L67.4814 139.717L67.7163 139.473L67.4138 139.321L54.767 132.943Z" fill="white" stroke="#1E6F5C" stroke-width="0.5"/>
<path d="M40.7157 121.726L40.4471 121.514L40.3267 121.834L40.5607 121.922C40.3267 121.834 40.3267 121.835 40.3266 121.835L40.3264 121.835L40.3257 121.837L40.323 121.844L40.3126 121.872L40.2723 121.981C40.2372 122.077 40.1862 122.217 40.1221 122.396C39.994 122.753 39.8139 123.266 39.6056 123.887C39.1891 125.129 38.6589 126.807 38.2059 128.548C37.7535 130.286 37.3749 132.097 37.2663 133.602C37.212 134.355 37.224 135.042 37.3335 135.611C37.4422 136.176 37.6538 136.66 38.0303 136.958C38.4068 137.255 38.9266 137.349 39.5012 137.325C40.0804 137.3 40.7523 137.153 41.4715 136.926C42.9109 136.472 44.5857 135.686 46.1722 134.844C47.7609 134.001 49.271 133.097 50.3832 132.405C50.9395 132.059 51.3968 131.765 51.7151 131.558C51.8743 131.454 51.9988 131.372 52.0836 131.316L52.1804 131.252L52.2053 131.235L52.2117 131.231L52.2133 131.23L52.2138 131.229C52.2139 131.229 52.2139 131.229 52.0743 131.022L52.2139 131.229L52.498 131.038L52.2293 130.826L40.7157 121.726Z" fill="white" stroke="#1E6F5C" stroke-width="0.5"/>
<path d="M31.0598 108.404L30.8009 108.111L30.6438 108.469L30.8726 108.57C30.6438 108.469 30.6437 108.469 30.6437 108.469L30.6434 108.47L30.6425 108.472L30.639 108.48L30.6254 108.511L30.5727 108.632C30.5268 108.738 30.4597 108.894 30.3752 109.093C30.2063 109.491 29.9674 110.061 29.6875 110.751C29.128 112.131 28.4042 113.991 27.748 115.912C27.0925 117.83 26.5012 119.818 26.2107 121.449C26.0656 122.264 25.9932 123.002 26.0299 123.604C26.0659 124.194 26.2101 124.712 26.5607 125.016C26.9036 125.314 27.3992 125.404 27.9451 125.381C28.4975 125.357 29.1475 125.216 29.8482 124.998C31.2511 124.563 32.9056 123.807 34.4812 122.997C36.059 122.187 37.5676 121.318 38.6811 120.652C39.238 120.319 39.6966 120.036 40.016 119.837C40.1757 119.737 40.3007 119.659 40.3859 119.604L40.4831 119.543L40.5082 119.526L40.5146 119.522L40.5162 119.521L40.5167 119.521C40.5168 119.521 40.5168 119.521 40.3814 119.311L40.5168 119.521L40.7617 119.363L40.5686 119.145L31.0598 108.404Z" fill="white" stroke="#1E6F5C" stroke-width="0.5"/>
<path d="M200.092 142.115C195.298 171.563 162.199 208.454 162.199 208.454L131.265 194.036C131.265 194.036 106.955 198.674 91.731 195.997C73.8758 192.857 58.2693 185.036 49.6749 176.341C41.0805 167.646 40.4457 147.408 43.6488 148.303C46.8518 149.199 60.4869 163.683 72.7691 167.183C95.7481 173.731 128.448 141.82 128.448 141.82C128.448 141.82 94.7622 151.081 74.8298 144.576C53.0681 137.474 26.3048 112.001 30.6753 106.023C35.0457 100.046 50.5924 85.3788 49.5172 80.2523C48.4419 75.1258 51.4384 65.7516 61.0061 64.5384C70.5738 63.3253 76.2681 63.6303 88.9741 64.7214C101.68 65.8125 104.9 67.4669 113.79 63.5836C122.152 59.9312 121.713 48.3576 130.804 47.5689C137.274 47.0075 139.329 53.5432 146.306 53.5883C149.968 53.6119 153.089 52.2796 156.578 53.3915C163.618 55.6355 163.516 58.8495 168.9 60.9442C174.684 63.1941 178.286 60.7306 183.947 63.2739C195.696 68.553 193.59 81.1424 197.008 93.5617C202.05 111.88 203.144 123.362 200.092 142.115Z" fill="#BAEC99"/>
<path d="M175.148 190.668C175.148 190.668 194.467 171.349 200.092 142.115C203.682 123.458 202.05 111.88 197.009 93.5621C193.59 81.1427 195.697 68.5534 183.947 63.2743C178.286 60.731 174.684 63.1945 168.9 60.9445C163.516 58.8499 163.618 55.6359 156.578 53.3919C153.089 52.28 149.968 53.6122 146.306 53.5886C139.329 53.5435 137.274 47.0078 130.804 47.5692C121.713 48.3579 122.152 59.9315 113.79 63.584C104.9 67.4672 101.68 65.8128 88.9742 64.7217C76.2682 63.6306 70.5739 63.3256 61.0062 64.5387C51.4385 65.7519 48.442 75.1261 49.5173 80.2526C50.5926 85.3792 35.0458 100.046 30.6754 106.023C26.305 112.001 53.0682 137.474 74.8299 144.576C94.7623 151.081 128.449 141.82 128.449 141.82C128.449 141.82 95.7483 173.731 72.7693 167.183C62.8696 164.362 52.0911 154.405 46.6046 150.179M43.6489 148.304C40.4459 147.409 41.0806 167.646 49.675 176.341C58.2694 185.036 73.8759 192.857 91.7312 195.997C106.956 198.675 131.265 194.036 131.265 194.036" stroke="#1E6F5C"/>
<path d="M47.1989 150.678C47.1011 150.53 46.9146 150.43 46.7715 150.325C46.6666 150.248 46.5617 150.172 46.4568 150.095" stroke="#1E6F5C" stroke-linecap="round"/>
<path d="M43.6782 148.371L43.4779 148.224" stroke="#1E6F5C" stroke-linecap="round"/>
<path d="M53.6076 70.6527C49.8846 70.1229 50.8222 73.699 49.0341 77.4203L49.7468 80.0794C52.1855 77.4075 57.9637 80.4571 58.9674 76.9998C59.9597 73.5816 56.8415 71.113 53.6076 70.6527Z" fill="#1E6F5C"/>
<path d="M53.5586 68.7896C58.8197 69.1429 62.236 71.8976 61.5401 77.09C61.2868 78.9803 59.918 80.9182 56.3113 80.2229" stroke="#1E6F5C"/>
<path d="M175.148 190.668C175.148 190.668 194.87 170.342 200.092 142.115C203.548 123.432 202.05 111.88 197.009 93.5617C193.59 81.1424 195.696 68.553 183.947 63.2739C178.286 60.7306 174.684 63.1941 168.9 60.9442C163.516 58.8495 163.618 55.6355 156.578 53.3915C153.089 52.2796 149.968 53.6119 146.306 53.5883C139.329 53.5432 137.487 55.7505 131.809 58.9043C122.064 64.3182 121.231 60.3334 113.79 63.5837C104.9 67.4669 101.68 65.8125 88.9742 64.7214C76.2682 63.6303 70.5739 63.3253 61.0062 64.5384C51.4385 65.7516 48.442 75.1258 49.5173 80.2523C50.5926 85.3789 35.0458 100.046 30.6754 106.023C26.305 112.001 53.0682 137.474 74.8299 144.576C94.7623 151.081 128.448 141.82 128.448 141.82C128.448 141.82 95.7482 173.731 72.7692 167.183C63.1046 164.429 52.6023 154.873 47.0042 150.49M43.6489 148.303C40.4459 147.408 41.0806 167.646 49.675 176.341C58.2694 185.036 73.8758 192.857 91.7311 195.997C106.955 198.674 131.265 194.036 131.265 194.036" stroke="#1E6F5C"/>
<path d="M174.773 85.5062C160.075 75.4659 145.845 103.468 145.845 103.468C145.845 103.468 152.896 106.803 156.996 109.616C161.01 112.37 163.954 115.202 163.954 115.202C163.954 115.202 189.47 95.5466 174.773 85.5062Z" fill="white"/>
<mask id="mask0_43_1009" style="mask-type:alpha" maskUnits="userSpaceOnUse" x="145" y="83" width="35" height="33">
<path d="M174.494 85.3152C159.796 75.2748 145.566 103.277 145.566 103.277C145.566 103.277 152.616 106.612 156.717 109.425C160.731 112.179 165.128 115.575 165.128 115.575C165.128 115.575 189.191 95.3555 174.494 85.3152Z" fill="#C4C4C4"/>
</mask>
<g mask="url(#mask0_43_1009)">
<ellipse rx="12.4058" ry="14.2936" transform="matrix(-0.825722 -0.564078 -0.564078 0.825722 156.477 98.253)" fill="#2F2CC4"/>
</g>
<mask id="mask1_43_1009" style="mask-type:alpha" maskUnits="userSpaceOnUse" x="145" y="83" width="35" height="33">
<path d="M174.493 85.3151C159.796 75.2748 145.566 103.277 145.566 103.277C145.566 103.277 152.616 106.612 156.717 109.425C160.73 112.179 163.954 115.202 163.954 115.202C163.954 115.202 189.191 95.3555 174.493 85.3151Z" fill="#C4C4C4"/>
</mask>
<g mask="url(#mask1_43_1009)">
<ellipse rx="9.43918" ry="11.327" transform="matrix(-0.825722 -0.564078 -0.564078 0.825722 156.994 98.9316)" fill="#141352"/>
</g>
<path d="M145.845 103.468L145.738 103.694L145.506 103.584L145.622 103.355L145.845 103.468ZM145.845 103.468C145.622 103.355 145.622 103.355 145.622 103.355L145.623 103.354L145.625 103.349L145.633 103.334L145.664 103.273C145.692 103.22 145.733 103.141 145.788 103.039C145.896 102.835 146.057 102.537 146.267 102.163C146.687 101.413 147.302 100.355 148.087 99.116C149.655 96.6401 151.903 93.4393 154.615 90.551C157.324 87.6656 160.513 85.0741 163.968 83.8415C167.437 82.6039 171.167 82.7404 174.914 85.2997C176.781 86.5754 178.023 88.0129 178.754 89.5579C179.485 91.1032 179.698 92.7412 179.532 94.4067C179.2 97.7282 177.356 101.171 175.076 104.267C172.793 107.369 170.05 110.152 167.881 112.157C166.796 113.161 165.854 113.97 165.182 114.53C164.846 114.81 164.578 115.027 164.393 115.174C164.301 115.248 164.23 115.304 164.181 115.342L164.126 115.385L164.112 115.396L164.108 115.399L164.107 115.4C164.107 115.4 164.107 115.4 163.954 115.202L164.107 115.4L163.936 115.531L163.781 115.382L163.781 115.382L163.781 115.382L163.779 115.38L163.773 115.374L163.748 115.351C163.726 115.33 163.693 115.298 163.649 115.257C163.562 115.175 163.432 115.055 163.263 114.901C162.926 114.594 162.435 114.156 161.818 113.632C160.585 112.584 158.852 111.193 156.854 109.822C154.817 108.425 152.041 106.893 149.767 105.709C148.632 105.117 147.624 104.614 146.9 104.258C146.539 104.08 146.248 103.939 146.047 103.842C145.947 103.794 145.87 103.757 145.818 103.732L145.758 103.704L145.743 103.697L145.739 103.695L145.738 103.694L145.738 103.694L145.845 103.468Z" stroke="#1E6F5C" stroke-width="0.5"/>
<rect width="5.45046" height="4.67183" rx="0.3" transform="matrix(-0.567421 -0.823428 -0.823428 0.567421 168.406 93.7747)" fill="white" fill-opacity="0.8"/>
<rect width="3.89319" height="3.89319" rx="0.3" transform="matrix(-0.567421 -0.823428 -0.823428 0.567421 167.166 97.4653)" fill="white"/>
<path d="M84.9995 121.354C81.0109 125.405 71.3464 123.089 71.3464 123.089C71.3464 123.089 77.7382 120.629 79.6096 117.085C81.432 113.634 76.7094 109.756 79.8533 107.475C82.9615 105.22 86.6064 107.484 88.2544 110.6C90.1517 114.186 88.125 118.18 84.9995 121.354Z" fill="#1E6F5C"/>
<path d="M77.5501 111.349C75.5274 107.941 76.9952 105.844 78.8219 104.896C83.8399 102.294 87.884 104.757 90.1635 109.97C92.7879 115.971 89.7694 120.732 84.6435 124.734C82.7297 126.228 78.3045 126.04 74.766 125.711" stroke="#1E6F5C"/>
<path d="M174.094 62.2886C173.09 62.3057 171.555 62.3258 170.646 62.7455C170.149 62.9747 169.607 63.0675 169.112 63.2985C168.577 63.5483 168.159 63.7897 167.644 64.055C167.159 64.3051 166.786 64.7139 166.423 65.0992C166.094 65.4486 165.585 65.6782 165.223 66.0222C164.397 66.8065 163.292 67.4787 162.599 68.4256" stroke="#1E6F5C" stroke-linecap="round"/>
<path d="M195.608 86.7779C195.607 87.2826 195.512 87.6099 195.727 88.0526C195.847 88.2979 195.511 88.5544 195.501 88.8411C195.481 89.4416 195.434 90.1432 195.26 90.7283C195.147 91.1094 195.403 91.2837 195.3 91.633C195.207 91.9461 195.015 92.0816 195.069 92.4278C195.131 92.8279 194.613 93.4067 194.759 93.6904" stroke="#1E6F5C" stroke-linecap="round"/>
<ellipse rx="19.8126" ry="3.91294" transform="matrix(-0.961174 0.275945 0.275945 0.961174 84.4046 71.0465)" fill="url(#paint1_radial_43_1009)" fill-opacity="0.1"/>
<path d="M95.9151 33.1513C105.262 39.8813 91.259 62.2747 91.259 62.2747L67.9596 69.0177C67.9596 69.0177 42.8334 61.9801 46.7909 52.1887C49.1802 46.2774 54.1732 43.6805 60.5424 43.3883C66.9911 43.0925 72.938 54.4923 75.1678 51.0924C77.3976 47.6925 70.892 40.8811 73.9035 35.6191C78.2001 28.1118 88.8954 28.097 95.9151 33.1513Z" fill="#2CA1C6" stroke="#258AAA"/>
<path d="M100.466 39.6898C109.342 44.791 94.4226 64.018 94.4226 64.018L71.1232 70.7609C71.1232 70.7609 46.7119 66.1937 51.1015 57.895C53.7515 52.8849 58.8021 50.4868 65.0937 49.9269C71.464 49.3599 76.7554 58.4945 79.1228 55.5702C81.4902 52.6458 75.419 47.3354 78.6499 42.8314C83.2594 36.4055 93.8008 35.8589 100.466 39.6898Z" fill="#39C8F5" stroke="#258AAA"/>
<path d="M97.083 47.3399C103.817 50.4812 91.5805 63.9172 91.5805 63.9172L73.2394 69.2252C73.2394 69.2252 54.4067 66.9558 58.094 61.2242C60.32 57.7639 63.935 56.2302 68.8461 55.6457C73.8187 55.0538 78.9424 62.0449 80.8798 59.9981C82.8173 57.9513 79.7313 53.8209 82.3924 50.6821C86.189 46.2041 92.0259 44.9807 97.083 47.3399Z" fill="#FDFFA8"/>
<ellipse rx="1.32303" ry="13.0292" transform="matrix(-0.290378 -0.956912 -0.956912 0.290378 82.6382 67.5972)" fill="#258AAA"/>
<path d="M94.4091 64.0646C94.4091 64.0646 100.246 62.4363 102.98 59.915C103.925 59.0433 103.894 57.1391 102.729 56.854C101.901 56.6514 100.733 57.052 100.813 57.9006C100.876 58.5534 101.456 59.0322 102.108 58.9699" stroke="#2CA1C6"/>
<path d="M94.4241 64.0772C94.4241 64.0772 100.314 66.4596 103.862 65.3446C105.186 64.9285 106.156 63.5335 105.341 62.6531C104.763 62.0273 103.567 61.7167 103.166 62.4692C102.858 63.048 103.078 63.7672 103.656 64.0754" stroke="#2CA1C6"/>
<circle r="2.42555" transform="matrix(-0.959554 -0.281524 -0.281524 0.959554 98.8874 43.3177)" fill="#FDFFA8"/>
<circle r="2.42555" transform="matrix(-0.959554 -0.281524 -0.281524 0.959554 90.8474 40.959)" fill="#FDFFA8"/>
<circle r="2.42555" transform="matrix(-0.959554 -0.281524 -0.281524 0.959554 83.01 44.1746)" fill="#FDFFA8"/>
<circle r="1.54353" transform="matrix(-0.959554 -0.281524 -0.281524 0.959554 67.1373 52.8461)" fill="#FDFFA8"/>
<circle r="1.54353" transform="matrix(-0.959554 -0.281524 -0.281524 0.959554 59.6725 54.7927)" fill="#FDFFA8"/>
<circle r="1.54353" transform="matrix(-0.959554 -0.281524 -0.281524 0.959554 54.9723 59.8476)" fill="#FDFFA8"/>
<defs>
<filter id="filter0_f_43_1009" x="9.12744" y="404.023" width="377.421" height="93.741" filterUnits="userSpaceOnUse" color-interpolation-filters="sRGB">
<feFlood flood-opacity="0" result="BackgroundImageFix"/>
<feBlend mode="normal" in="SourceGraphic" in2="BackgroundImageFix" result="shape"/>
<feGaussianBlur stdDeviation="5.5" result="effect1_foregroundBlur_43_1009"/>
</filter>
<radialGradient id="paint0_radial_43_1009" cx="0" cy="0" r="1" gradientUnits="userSpaceOnUse" gradientTransform="translate(177.716 35.843) rotate(90) scale(35.843 177.716)">
<stop stop-opacity="0.27"/>
<stop offset="1" stop-opacity="0"/>
</radialGradient>
<radialGradient id="paint1_radial_43_1009" cx="0" cy="0" r="1" gradientUnits="userSpaceOnUse" gradientTransform="translate(19.8126 3.91294) rotate(90) scale(3.91294 19.8126)">
<stop/>
<stop offset="1" stop-color="#C4C4C4" stop-opacity="0"/>
</radialGradient>
</defs>
</svg>
