<svg width="348" height="90" viewBox="0 0 348 90" fill="none" xmlns="http://www.w3.org/2000/svg">
<rect width="348" height="90" rx="9" fill="white"/>
<rect x="256" y="37" width="82" height="43" rx="6" fill="white"/>
<path d="M288.229 59.6738C288.229 60.2051 288.105 60.6523 287.859 61.0156C287.613 61.3789 287.277 61.6543 286.852 61.8418C286.43 62.0254 285.953 62.1172 285.422 62.1172C284.891 62.1172 284.412 62.0254 283.986 61.8418C283.561 61.6543 283.225 61.3789 282.979 61.0156C282.732 60.6523 282.609 60.2051 282.609 59.6738C282.609 59.3223 282.678 59.0039 282.814 58.7188C282.951 58.4297 283.145 58.1816 283.395 57.9746C283.648 57.7637 283.945 57.6016 284.285 57.4883C284.629 57.375 285.004 57.3184 285.41 57.3184C285.949 57.3184 286.432 57.418 286.857 57.6172C287.283 57.8164 287.617 58.0918 287.859 58.4434C288.105 58.7949 288.229 59.2051 288.229 59.6738ZM286.811 59.6035C286.811 59.3184 286.752 59.0684 286.635 58.8535C286.518 58.6387 286.354 58.4727 286.143 58.3555C285.932 58.2383 285.688 58.1797 285.41 58.1797C285.129 58.1797 284.885 58.2383 284.678 58.3555C284.471 58.4727 284.309 58.6387 284.191 58.8535C284.078 59.0684 284.021 59.3184 284.021 59.6035C284.021 59.8926 284.078 60.1426 284.191 60.3535C284.305 60.5605 284.467 60.7188 284.678 60.8281C284.889 60.9375 285.137 60.9922 285.422 60.9922C285.707 60.9922 285.953 60.9375 286.16 60.8281C286.367 60.7188 286.527 60.5605 286.641 60.3535C286.754 60.1426 286.811 59.8926 286.811 59.6035ZM288.035 55.7129C288.035 56.1387 287.922 56.5176 287.695 56.8496C287.473 57.1816 287.164 57.4434 286.77 57.6348C286.375 57.8223 285.926 57.916 285.422 57.916C284.914 57.916 284.461 57.8223 284.062 57.6348C283.668 57.4434 283.357 57.1816 283.131 56.8496C282.908 56.5176 282.797 56.1387 282.797 55.7129C282.797 55.2051 282.908 54.7773 283.131 54.4297C283.357 54.0781 283.668 53.8105 284.062 53.627C284.457 53.4434 284.908 53.3516 285.416 53.3516C285.924 53.3516 286.375 53.4434 286.77 53.627C287.164 53.8105 287.473 54.0781 287.695 54.4297C287.922 54.7773 288.035 55.2051 288.035 55.7129ZM286.623 55.7598C286.623 55.5059 286.572 55.2832 286.471 55.0918C286.373 54.8965 286.234 54.7441 286.055 54.6348C285.875 54.5254 285.662 54.4707 285.416 54.4707C285.17 54.4707 284.957 54.5234 284.777 54.6289C284.598 54.7344 284.459 54.8828 284.361 55.0742C284.264 55.2656 284.215 55.4941 284.215 55.7598C284.215 56.0215 284.264 56.25 284.361 56.4453C284.459 56.6367 284.598 56.7871 284.777 56.8965C284.961 57.0059 285.176 57.0605 285.422 57.0605C285.668 57.0605 285.881 57.0059 286.061 56.8965C286.24 56.7871 286.379 56.6367 286.477 56.4453C286.574 56.25 286.623 56.0215 286.623 55.7598ZM295.061 57.3242V58.5957H289.213V57.3242H295.061ZM292.822 54.9336V61.1445H291.457V54.9336H292.822ZM300.621 56.9492V62H299.209V55.6602H300.539L300.621 56.9492ZM300.393 58.5957L299.912 58.5898C299.912 58.1523 299.967 57.748 300.076 57.377C300.186 57.0059 300.346 56.6836 300.557 56.4102C300.768 56.1328 301.029 55.9199 301.342 55.7715C301.658 55.6191 302.023 55.543 302.438 55.543C302.727 55.543 302.99 55.5859 303.229 55.6719C303.471 55.7539 303.68 55.8848 303.855 56.0645C304.035 56.2441 304.172 56.4746 304.266 56.7559C304.363 57.0371 304.412 57.377 304.412 57.7754V62H303V57.8984C303 57.5898 302.953 57.3477 302.859 57.1719C302.77 56.9961 302.639 56.8711 302.467 56.7969C302.299 56.7188 302.098 56.6797 301.863 56.6797C301.598 56.6797 301.371 56.7305 301.184 56.832C301 56.9336 300.85 57.0723 300.732 57.248C300.615 57.4238 300.529 57.627 300.475 57.8574C300.42 58.0879 300.393 58.334 300.393 58.5957ZM304.324 58.2207L303.662 58.3672C303.662 57.9844 303.715 57.623 303.82 57.2832C303.93 56.9395 304.088 56.6387 304.295 56.3809C304.506 56.1191 304.766 55.9141 305.074 55.7656C305.383 55.6172 305.736 55.543 306.135 55.543C306.459 55.543 306.748 55.5879 307.002 55.6777C307.26 55.7637 307.479 55.9004 307.658 56.0879C307.838 56.2754 307.975 56.5195 308.068 56.8203C308.162 57.1172 308.209 57.4766 308.209 57.8984V62H306.791V57.8926C306.791 57.5723 306.744 57.3242 306.65 57.1484C306.561 56.9727 306.432 56.8516 306.264 56.7852C306.096 56.7148 305.895 56.6797 305.66 56.6797C305.441 56.6797 305.248 56.7207 305.08 56.8027C304.916 56.8809 304.777 56.9922 304.664 57.1367C304.551 57.2773 304.465 57.4395 304.406 57.623C304.352 57.8066 304.324 58.0059 304.324 58.2207ZM311.174 55.6602V62H309.756V55.6602H311.174ZM309.662 53.9961C309.662 53.7812 309.732 53.6035 309.873 53.4629C310.018 53.3184 310.217 53.2461 310.471 53.2461C310.721 53.2461 310.918 53.3184 311.062 53.4629C311.207 53.6035 311.279 53.7812 311.279 53.9961C311.279 54.207 311.207 54.3828 311.062 54.5234C310.918 54.6641 310.721 54.7344 310.471 54.7344C310.217 54.7344 310.018 54.6641 309.873 54.5234C309.732 54.3828 309.662 54.207 309.662 53.9961Z" fill="#626365"/>
<rect x="174" y="37" width="82" height="43" rx="6" fill="#E8F0FD"/>
<path d="M201.924 58.959V60.084H195.771L195.725 59.2344L199.404 53.4688H200.535L199.311 55.5664L197.195 58.959H201.924ZM200.857 53.4688V62H199.445V53.4688H200.857ZM208.779 57.793V58.918H205.68V57.793H208.779ZM218.5 59.6738C218.5 60.2051 218.377 60.6523 218.131 61.0156C217.885 61.3789 217.549 61.6543 217.123 61.8418C216.701 62.0254 216.225 62.1172 215.693 62.1172C215.162 62.1172 214.684 62.0254 214.258 61.8418C213.832 61.6543 213.496 61.3789 213.25 61.0156C213.004 60.6523 212.881 60.2051 212.881 59.6738C212.881 59.3223 212.949 59.0039 213.086 58.7188C213.223 58.4297 213.416 58.1816 213.666 57.9746C213.92 57.7637 214.217 57.6016 214.557 57.4883C214.9 57.375 215.275 57.3184 215.682 57.3184C216.221 57.3184 216.703 57.418 217.129 57.6172C217.555 57.8164 217.889 58.0918 218.131 58.4434C218.377 58.7949 218.5 59.2051 218.5 59.6738ZM217.082 59.6035C217.082 59.3184 217.023 59.0684 216.906 58.8535C216.789 58.6387 216.625 58.4727 216.414 58.3555C216.203 58.2383 215.959 58.1797 215.682 58.1797C215.4 58.1797 215.156 58.2383 214.949 58.3555C214.742 58.4727 214.58 58.6387 214.463 58.8535C214.35 59.0684 214.293 59.3184 214.293 59.6035C214.293 59.8926 214.35 60.1426 214.463 60.3535C214.576 60.5605 214.738 60.7188 214.949 60.8281C215.16 60.9375 215.408 60.9922 215.693 60.9922C215.979 60.9922 216.225 60.9375 216.432 60.8281C216.639 60.7188 216.799 60.5605 216.912 60.3535C217.025 60.1426 217.082 59.8926 217.082 59.6035ZM218.307 55.7129C218.307 56.1387 218.193 56.5176 217.967 56.8496C217.744 57.1816 217.436 57.4434 217.041 57.6348C216.646 57.8223 216.197 57.916 215.693 57.916C215.186 57.916 214.732 57.8223 214.334 57.6348C213.939 57.4434 213.629 57.1816 213.402 56.8496C213.18 56.5176 213.068 56.1387 213.068 55.7129C213.068 55.2051 213.18 54.7773 213.402 54.4297C213.629 54.0781 213.939 53.8105 214.334 53.627C214.729 53.4434 215.18 53.3516 215.688 53.3516C216.195 53.3516 216.646 53.4434 217.041 53.627C217.436 53.8105 217.744 54.0781 217.967 54.4297C218.193 54.7773 218.307 55.2051 218.307 55.7129ZM216.895 55.7598C216.895 55.5059 216.844 55.2832 216.742 55.0918C216.645 54.8965 216.506 54.7441 216.326 54.6348C216.146 54.5254 215.934 54.4707 215.688 54.4707C215.441 54.4707 215.229 54.5234 215.049 54.6289C214.869 54.7344 214.73 54.8828 214.633 55.0742C214.535 55.2656 214.486 55.4941 214.486 55.7598C214.486 56.0215 214.535 56.25 214.633 56.4453C214.73 56.6367 214.869 56.7871 215.049 56.8965C215.232 57.0059 215.447 57.0605 215.693 57.0605C215.939 57.0605 216.152 57.0059 216.332 56.8965C216.512 56.7871 216.65 56.6367 216.748 56.4453C216.846 56.25 216.895 56.0215 216.895 55.7598ZM224.225 56.9492V62H222.812V55.6602H224.143L224.225 56.9492ZM223.996 58.5957L223.516 58.5898C223.516 58.1523 223.57 57.748 223.68 57.377C223.789 57.0059 223.949 56.6836 224.16 56.4102C224.371 56.1328 224.633 55.9199 224.945 55.7715C225.262 55.6191 225.627 55.543 226.041 55.543C226.33 55.543 226.594 55.5859 226.832 55.6719C227.074 55.7539 227.283 55.8848 227.459 56.0645C227.639 56.2441 227.775 56.4746 227.869 56.7559C227.967 57.0371 228.016 57.377 228.016 57.7754V62H226.604V57.8984C226.604 57.5898 226.557 57.3477 226.463 57.1719C226.373 56.9961 226.242 56.8711 226.07 56.7969C225.902 56.7188 225.701 56.6797 225.467 56.6797C225.201 56.6797 224.975 56.7305 224.787 56.832C224.604 56.9336 224.453 57.0723 224.336 57.248C224.219 57.4238 224.133 57.627 224.078 57.8574C224.023 58.0879 223.996 58.334 223.996 58.5957ZM227.928 58.2207L227.266 58.3672C227.266 57.9844 227.318 57.623 227.424 57.2832C227.533 56.9395 227.691 56.6387 227.898 56.3809C228.109 56.1191 228.369 55.9141 228.678 55.7656C228.986 55.6172 229.34 55.543 229.738 55.543C230.062 55.543 230.352 55.5879 230.605 55.6777C230.863 55.7637 231.082 55.9004 231.262 56.0879C231.441 56.2754 231.578 56.5195 231.672 56.8203C231.766 57.1172 231.812 57.4766 231.812 57.8984V62H230.395V57.8926C230.395 57.5723 230.348 57.3242 230.254 57.1484C230.164 56.9727 230.035 56.8516 229.867 56.7852C229.699 56.7148 229.498 56.6797 229.264 56.6797C229.045 56.6797 228.852 56.7207 228.684 56.8027C228.52 56.8809 228.381 56.9922 228.268 57.1367C228.154 57.2773 228.068 57.4395 228.01 57.623C227.955 57.8066 227.928 58.0059 227.928 58.2207ZM234.777 55.6602V62H233.359V55.6602H234.777ZM233.266 53.9961C233.266 53.7812 233.336 53.6035 233.477 53.4629C233.621 53.3184 233.82 53.2461 234.074 53.2461C234.324 53.2461 234.521 53.3184 234.666 53.4629C234.811 53.6035 234.883 53.7812 234.883 53.9961C234.883 54.207 234.811 54.3828 234.666 54.5234C234.521 54.6641 234.324 54.7344 234.074 54.7344C233.82 54.7344 233.621 54.6641 233.477 54.5234C233.336 54.3828 233.266 54.207 233.266 53.9961Z" fill="#3671D9"/>
<rect x="92" y="37" width="82" height="43" rx="6" fill="white"/>
<path d="M119.607 57.0195V58.4141C119.607 59.082 119.541 59.6523 119.408 60.125C119.279 60.5938 119.092 60.9746 118.846 61.2676C118.6 61.5605 118.305 61.7754 117.961 61.9121C117.621 62.0488 117.24 62.1172 116.818 62.1172C116.482 62.1172 116.17 62.0742 115.881 61.9883C115.596 61.9023 115.338 61.7676 115.107 61.584C114.877 61.4004 114.68 61.1641 114.516 60.875C114.355 60.582 114.23 60.2324 114.141 59.8262C114.055 59.4199 114.012 58.9492 114.012 58.4141V57.0195C114.012 56.3477 114.078 55.7812 114.211 55.3203C114.344 54.8555 114.533 54.4785 114.779 54.1895C115.025 53.8965 115.318 53.6836 115.658 53.5508C116.002 53.418 116.385 53.3516 116.807 53.3516C117.146 53.3516 117.459 53.3945 117.744 53.4805C118.033 53.5625 118.291 53.6934 118.518 53.873C118.748 54.0527 118.943 54.2871 119.104 54.5762C119.268 54.8613 119.393 55.207 119.479 55.6133C119.564 56.0156 119.607 56.4844 119.607 57.0195ZM118.195 58.6133V56.8086C118.195 56.4688 118.176 56.1699 118.137 55.9121C118.098 55.6504 118.039 55.4297 117.961 55.25C117.887 55.0664 117.793 54.918 117.68 54.8047C117.566 54.6875 117.438 54.6035 117.293 54.5527C117.148 54.498 116.986 54.4707 116.807 54.4707C116.588 54.4707 116.393 54.5137 116.221 54.5996C116.049 54.6816 115.904 54.8145 115.787 54.998C115.67 55.1816 115.58 55.4238 115.518 55.7246C115.459 56.0215 115.43 56.3828 115.43 56.8086V58.6133C115.43 58.957 115.449 59.2598 115.488 59.5215C115.527 59.7832 115.586 60.0078 115.664 60.1953C115.742 60.3789 115.836 60.5312 115.945 60.6523C116.059 60.7695 116.188 60.8555 116.332 60.9102C116.48 60.9648 116.643 60.9922 116.818 60.9922C117.041 60.9922 117.238 60.9492 117.41 60.8633C117.582 60.7773 117.727 60.6406 117.844 60.4531C117.961 60.2617 118.049 60.0137 118.107 59.709C118.166 59.4043 118.195 59.0391 118.195 58.6133ZM126.779 57.793V58.918H123.68V57.793H126.779ZM132.58 57.0957H133.424C133.752 57.0957 134.023 57.0391 134.238 56.9258C134.457 56.8125 134.619 56.6562 134.725 56.457C134.83 56.2578 134.883 56.0293 134.883 55.7715C134.883 55.502 134.834 55.2715 134.736 55.0801C134.643 54.8848 134.498 54.7344 134.303 54.6289C134.111 54.5234 133.867 54.4707 133.57 54.4707C133.32 54.4707 133.094 54.5215 132.891 54.623C132.691 54.7207 132.533 54.8613 132.416 55.0449C132.299 55.2246 132.24 55.4395 132.24 55.6895H130.822C130.822 55.2363 130.941 54.834 131.18 54.4824C131.418 54.1309 131.742 53.8555 132.152 53.6562C132.566 53.4531 133.031 53.3516 133.547 53.3516C134.098 53.3516 134.578 53.4434 134.988 53.627C135.402 53.8066 135.725 54.0762 135.955 54.4355C136.186 54.7949 136.301 55.2402 136.301 55.7715C136.301 56.0137 136.244 56.2598 136.131 56.5098C136.018 56.7598 135.85 56.9883 135.627 57.1953C135.404 57.3984 135.127 57.5645 134.795 57.6934C134.463 57.8184 134.078 57.8809 133.641 57.8809H132.58V57.0957ZM132.58 58.1973V57.4238H133.641C134.141 57.4238 134.566 57.4824 134.918 57.5996C135.273 57.7168 135.562 57.8789 135.785 58.0859C136.008 58.2891 136.17 58.5215 136.271 58.7832C136.377 59.0449 136.43 59.3223 136.43 59.6152C136.43 60.0137 136.357 60.3691 136.213 60.6816C136.072 60.9902 135.871 61.252 135.609 61.4668C135.348 61.6816 135.041 61.8438 134.689 61.9531C134.342 62.0625 133.963 62.1172 133.553 62.1172C133.186 62.1172 132.834 62.0664 132.498 61.9648C132.162 61.8633 131.861 61.7129 131.596 61.5137C131.33 61.3105 131.119 61.0586 130.963 60.7578C130.811 60.4531 130.734 60.1016 130.734 59.7031H132.146C132.146 59.957 132.205 60.1816 132.322 60.377C132.443 60.5684 132.611 60.7188 132.826 60.8281C133.045 60.9375 133.295 60.9922 133.576 60.9922C133.873 60.9922 134.129 60.9395 134.344 60.834C134.559 60.7285 134.723 60.5723 134.836 60.3652C134.953 60.1582 135.012 59.9082 135.012 59.6152C135.012 59.2832 134.947 59.0137 134.818 58.8066C134.689 58.5996 134.506 58.4473 134.268 58.3496C134.029 58.248 133.748 58.1973 133.424 58.1973H132.58ZM142.225 56.9492V62H140.812V55.6602H142.143L142.225 56.9492ZM141.996 58.5957L141.516 58.5898C141.516 58.1523 141.57 57.748 141.68 57.377C141.789 57.0059 141.949 56.6836 142.16 56.4102C142.371 56.1328 142.633 55.9199 142.945 55.7715C143.262 55.6191 143.627 55.543 144.041 55.543C144.33 55.543 144.594 55.5859 144.832 55.6719C145.074 55.7539 145.283 55.8848 145.459 56.0645C145.639 56.2441 145.775 56.4746 145.869 56.7559C145.967 57.0371 146.016 57.377 146.016 57.7754V62H144.604V57.8984C144.604 57.5898 144.557 57.3477 144.463 57.1719C144.373 56.9961 144.242 56.8711 144.07 56.7969C143.902 56.7188 143.701 56.6797 143.467 56.6797C143.201 56.6797 142.975 56.7305 142.787 56.832C142.604 56.9336 142.453 57.0723 142.336 57.248C142.219 57.4238 142.133 57.627 142.078 57.8574C142.023 58.0879 141.996 58.334 141.996 58.5957ZM145.928 58.2207L145.266 58.3672C145.266 57.9844 145.318 57.623 145.424 57.2832C145.533 56.9395 145.691 56.6387 145.898 56.3809C146.109 56.1191 146.369 55.9141 146.678 55.7656C146.986 55.6172 147.34 55.543 147.738 55.543C148.062 55.543 148.352 55.5879 148.605 55.6777C148.863 55.7637 149.082 55.9004 149.262 56.0879C149.441 56.2754 149.578 56.5195 149.672 56.8203C149.766 57.1172 149.812 57.4766 149.812 57.8984V62H148.395V57.8926C148.395 57.5723 148.348 57.3242 148.254 57.1484C148.164 56.9727 148.035 56.8516 147.867 56.7852C147.699 56.7148 147.498 56.6797 147.264 56.6797C147.045 56.6797 146.852 56.7207 146.684 56.8027C146.52 56.8809 146.381 56.9922 146.268 57.1367C146.154 57.2773 146.068 57.4395 146.01 57.623C145.955 57.8066 145.928 58.0059 145.928 58.2207ZM152.777 55.6602V62H151.359V55.6602H152.777ZM151.266 53.9961C151.266 53.7812 151.336 53.6035 151.477 53.4629C151.621 53.3184 151.82 53.2461 152.074 53.2461C152.324 53.2461 152.521 53.3184 152.666 53.4629C152.811 53.6035 152.883 53.7812 152.883 53.9961C152.883 54.207 152.811 54.3828 152.666 54.5234C152.521 54.6641 152.324 54.7344 152.074 54.7344C151.82 54.7344 151.621 54.6641 151.477 54.5234C151.336 54.3828 151.266 54.207 151.266 53.9961Z" fill="#626365"/>
<path d="M44.1895 54.6055L41.6406 62H40.0996L43.3105 53.4688H44.2949L44.1895 54.6055ZM46.3223 62L43.7676 54.6055L43.6562 53.4688H44.6465L47.8691 62H46.3223ZM46.1992 58.8359V60.002H41.5586V58.8359H46.1992ZM49.9785 57.0137V62H48.5664V55.6602H49.8965L49.9785 57.0137ZM49.7266 58.5957L49.2695 58.5898C49.2734 58.1406 49.3359 57.7285 49.457 57.3535C49.582 56.9785 49.7539 56.6562 49.9727 56.3867C50.1953 56.1172 50.4609 55.9102 50.7695 55.7656C51.0781 55.6172 51.4219 55.543 51.8008 55.543C52.1055 55.543 52.3809 55.5859 52.627 55.6719C52.877 55.7539 53.0898 55.8887 53.2656 56.0762C53.4453 56.2637 53.582 56.5078 53.6758 56.8086C53.7695 57.1055 53.8164 57.4707 53.8164 57.9043V62H52.3984V57.8984C52.3984 57.5938 52.3535 57.3535 52.2637 57.1777C52.1777 56.998 52.0508 56.8711 51.8828 56.7969C51.7188 56.7188 51.5137 56.6797 51.2676 56.6797C51.0254 56.6797 50.8086 56.7305 50.6172 56.832C50.4258 56.9336 50.2637 57.0723 50.1309 57.248C50.002 57.4238 49.9023 57.627 49.832 57.8574C49.7617 58.0879 49.7266 58.334 49.7266 58.5957ZM57.0977 61.3086L58.8203 55.6602H60.332L57.7891 62.9668C57.7305 63.123 57.6543 63.293 57.5605 63.4766C57.4668 63.6602 57.3438 63.834 57.1914 63.998C57.043 64.166 56.8574 64.3008 56.6348 64.4023C56.4121 64.5078 56.1426 64.5605 55.8262 64.5605C55.7012 64.5605 55.5801 64.5488 55.4629 64.5254C55.3496 64.5059 55.2422 64.4844 55.1406 64.4609L55.1348 63.3828C55.1738 63.3867 55.2207 63.3906 55.2754 63.3945C55.334 63.3984 55.3809 63.4004 55.416 63.4004C55.6504 63.4004 55.8457 63.3711 56.002 63.3125C56.1582 63.2578 56.2852 63.168 56.3828 63.043C56.4844 62.918 56.5703 62.75 56.6406 62.5391L57.0977 61.3086ZM56.125 55.6602L57.6309 60.4062L57.8828 61.8945L56.9043 62.1465L54.6016 55.6602H56.125Z" fill="#626365"/>
<rect x="10.5" y="36.5" width="328" height="44" rx="6.5" stroke="#E8E8E8"/>
<path d="M17.2109 20.834V22H12.9277V20.834H17.2109ZM13.3379 13.4688V22H11.8672V13.4688H13.3379ZM21.002 22.1172C20.5332 22.1172 20.1094 22.041 19.7305 21.8887C19.3555 21.7324 19.0352 21.5156 18.7695 21.2383C18.5078 20.9609 18.3066 20.6348 18.166 20.2598C18.0254 19.8848 17.9551 19.4805 17.9551 19.0469V18.8125C17.9551 18.3164 18.0273 17.8672 18.1719 17.4648C18.3164 17.0625 18.5176 16.7188 18.7754 16.4336C19.0332 16.1445 19.3379 15.9238 19.6895 15.7715C20.041 15.6191 20.4219 15.543 20.832 15.543C21.2852 15.543 21.6816 15.6191 22.0215 15.7715C22.3613 15.9238 22.6426 16.1387 22.8652 16.416C23.0918 16.6895 23.2598 17.0156 23.3691 17.3945C23.4824 17.7734 23.5391 18.1914 23.5391 18.6484V19.252H18.6406V18.2383H22.1445V18.127C22.1367 17.873 22.0859 17.6348 21.9922 17.4121C21.9023 17.1895 21.7637 17.0098 21.5762 16.873C21.3887 16.7363 21.1387 16.668 20.8262 16.668C20.5918 16.668 20.3828 16.7188 20.1992 16.8203C20.0195 16.918 19.8691 17.0605 19.748 17.248C19.627 17.4355 19.5332 17.6621 19.4668 17.9277C19.4043 18.1895 19.373 18.4844 19.373 18.8125V19.0469C19.373 19.3242 19.4102 19.582 19.4844 19.8203C19.5625 20.0547 19.6758 20.2598 19.8242 20.4355C19.9727 20.6113 20.1523 20.75 20.3633 20.8516C20.5742 20.9492 20.8145 20.998 21.084 20.998C21.4238 20.998 21.7266 20.9297 21.9922 20.793C22.2578 20.6562 22.4883 20.4629 22.6836 20.2129L23.4277 20.9336C23.291 21.1328 23.1133 21.3242 22.8945 21.5078C22.6758 21.6875 22.4082 21.834 22.0918 21.9473C21.7793 22.0605 21.416 22.1172 21.002 22.1172ZM26.041 17.0137V22H24.6289V15.6602H25.959L26.041 17.0137ZM25.7891 18.5957L25.332 18.5898C25.3359 18.1406 25.3984 17.7285 25.5195 17.3535C25.6445 16.9785 25.8164 16.6562 26.0352 16.3867C26.2578 16.1172 26.5234 15.9102 26.832 15.7656C27.1406 15.6172 27.4844 15.543 27.8633 15.543C28.168 15.543 28.4434 15.5859 28.6895 15.6719C28.9395 15.7539 29.1523 15.8887 29.3281 16.0762C29.5078 16.2637 29.6445 16.5078 29.7383 16.8086C29.832 17.1055 29.8789 17.4707 29.8789 17.9043V22H28.4609V17.8984C28.4609 17.5938 28.416 17.3535 28.3262 17.1777C28.2402 16.998 28.1133 16.8711 27.9453 16.7969C27.7812 16.7188 27.5762 16.6797 27.3301 16.6797C27.0879 16.6797 26.8711 16.7305 26.6797 16.832C26.4883 16.9336 26.3262 17.0723 26.1934 17.248C26.0645 17.4238 25.9648 17.627 25.8945 17.8574C25.8242 18.0879 25.7891 18.334 25.7891 18.5957ZM35.3809 15.6602H36.6641V21.8242C36.6641 22.3945 36.543 22.8789 36.3008 23.2773C36.0586 23.6758 35.7207 23.9785 35.2871 24.1855C34.8535 24.3965 34.3516 24.502 33.7812 24.502C33.5391 24.502 33.2695 24.4668 32.9727 24.3965C32.6797 24.3262 32.3945 24.2129 32.1172 24.0566C31.8438 23.9043 31.6152 23.7031 31.4316 23.4531L32.0938 22.6211C32.3203 22.8906 32.5703 23.0879 32.8438 23.2129C33.1172 23.3379 33.4043 23.4004 33.7051 23.4004C34.0293 23.4004 34.3047 23.3398 34.5312 23.2188C34.7617 23.1016 34.9395 22.9277 35.0645 22.6973C35.1895 22.4668 35.252 22.1855 35.252 21.8535V17.0957L35.3809 15.6602ZM31.0742 18.9004V18.7773C31.0742 18.2969 31.1328 17.8594 31.25 17.4648C31.3672 17.0664 31.5352 16.7246 31.7539 16.4395C31.9727 16.1504 32.2383 15.9297 32.5508 15.7773C32.8633 15.6211 33.2168 15.543 33.6113 15.543C34.0215 15.543 34.3711 15.6172 34.6602 15.7656C34.9531 15.9141 35.1973 16.127 35.3926 16.4043C35.5879 16.6777 35.7402 17.0059 35.8496 17.3887C35.9629 17.7676 36.0469 18.1895 36.1016 18.6543V19.0469C36.0508 19.5 35.9648 19.9141 35.8438 20.2891C35.7227 20.6641 35.5625 20.9883 35.3633 21.2617C35.1641 21.5352 34.918 21.7461 34.625 21.8945C34.3359 22.043 33.9941 22.1172 33.5996 22.1172C33.2129 22.1172 32.8633 22.0371 32.5508 21.877C32.2422 21.7168 31.9766 21.4922 31.7539 21.2031C31.5352 20.9141 31.3672 20.5742 31.25 20.1836C31.1328 19.7891 31.0742 19.3613 31.0742 18.9004ZM32.4863 18.7773V18.9004C32.4863 19.1895 32.5137 19.459 32.5684 19.709C32.627 19.959 32.7148 20.1797 32.832 20.3711C32.9531 20.5586 33.1055 20.707 33.2891 20.8164C33.4766 20.9219 33.6973 20.9746 33.9512 20.9746C34.2832 20.9746 34.5547 20.9043 34.7656 20.7637C34.9805 20.623 35.1445 20.4336 35.2578 20.1953C35.375 19.9531 35.457 19.6836 35.5039 19.3867V18.3262C35.4805 18.0957 35.4316 17.8809 35.3574 17.6816C35.2871 17.4824 35.1914 17.3086 35.0703 17.1602C34.9492 17.0078 34.7969 16.8906 34.6133 16.8086C34.4297 16.7227 34.2129 16.6797 33.9629 16.6797C33.709 16.6797 33.4883 16.7344 33.3008 16.8438C33.1133 16.9531 32.959 17.1035 32.8379 17.2949C32.7207 17.4863 32.6328 17.709 32.5742 17.9629C32.5156 18.2168 32.4863 18.4883 32.4863 18.7773ZM41.0352 15.6602V16.6914H37.4609V15.6602H41.0352ZM38.4922 14.1074H39.9043V20.248C39.9043 20.4434 39.9316 20.5938 39.9863 20.6992C40.0449 20.8008 40.125 20.8691 40.2266 20.9043C40.3281 20.9395 40.4473 20.957 40.584 20.957C40.6816 20.957 40.7754 20.9512 40.8652 20.9395C40.9551 20.9277 41.0273 20.916 41.082 20.9043L41.0879 21.9824C40.9707 22.0176 40.834 22.0488 40.6777 22.0762C40.5254 22.1035 40.3496 22.1172 40.1504 22.1172C39.8262 22.1172 39.5391 22.0605 39.2891 21.9473C39.0391 21.8301 38.8438 21.6406 38.7031 21.3789C38.5625 21.1172 38.4922 20.7695 38.4922 20.3359V14.1074ZM43.5195 13V22H42.1133V13H43.5195ZM43.2734 18.5957L42.8164 18.5898C42.8203 18.1523 42.8809 17.748 42.998 17.377C43.1191 17.0059 43.2871 16.6836 43.502 16.4102C43.7207 16.1328 43.9824 15.9199 44.2871 15.7715C44.5918 15.6191 44.9297 15.543 45.3008 15.543C45.6133 15.543 45.8945 15.5859 46.1445 15.6719C46.3984 15.7578 46.6172 15.8965 46.8008 16.0879C46.9844 16.2754 47.123 16.5215 47.2168 16.8262C47.3145 17.127 47.3633 17.4941 47.3633 17.9277V22H45.9453V17.916C45.9453 17.6113 45.9004 17.3691 45.8105 17.1895C45.7246 17.0098 45.5977 16.8809 45.4297 16.8027C45.2617 16.7207 45.0566 16.6797 44.8145 16.6797C44.5605 16.6797 44.3359 16.7305 44.1406 16.832C43.9492 16.9336 43.7891 17.0723 43.6602 17.248C43.5312 17.4238 43.4336 17.627 43.3672 17.8574C43.3047 18.0879 43.2734 18.334 43.2734 18.5957Z" fill="#3E3F43"/>
</svg>
