<svg width="183" height="96" viewBox="0 0 183 96" fill="none" xmlns="http://www.w3.org/2000/svg">
<rect width="183" height="96" rx="9" fill="white"/>
<path d="M17.3828 22.125C17.3828 21.8594 17.3411 21.625 17.2578 21.4219C17.1797 21.2135 17.0391 21.026 16.8359 20.8594C16.638 20.6927 16.362 20.5339 16.0078 20.3828C15.6589 20.2318 15.2161 20.0781 14.6797 19.9219C14.1172 19.7552 13.6094 19.5703 13.1562 19.3672C12.7031 19.1589 12.3151 18.9219 11.9922 18.6562C11.6693 18.3906 11.4219 18.0859 11.25 17.7422C11.0781 17.3984 10.9922 17.0052 10.9922 16.5625C10.9922 16.1198 11.0833 15.7109 11.2656 15.3359C11.4479 14.9609 11.7083 14.6354 12.0469 14.3594C12.3906 14.0781 12.7995 13.8594 13.2734 13.7031C13.7474 13.5469 14.276 13.4688 14.8594 13.4688C15.7135 13.4688 16.4375 13.6328 17.0312 13.9609C17.6302 14.2839 18.0859 14.7083 18.3984 15.2344C18.7109 15.7552 18.8672 16.3125 18.8672 16.9062H17.3672C17.3672 16.4792 17.276 16.1016 17.0938 15.7734C16.9115 15.4401 16.6354 15.1797 16.2656 14.9922C15.8958 14.7995 15.4271 14.7031 14.8594 14.7031C14.3229 14.7031 13.8802 14.7839 13.5312 14.9453C13.1823 15.1068 12.9219 15.3255 12.75 15.6016C12.5833 15.8776 12.5 16.1927 12.5 16.5469C12.5 16.7865 12.5495 17.0052 12.6484 17.2031C12.7526 17.3958 12.9115 17.5755 13.125 17.7422C13.3438 17.9089 13.6198 18.0625 13.9531 18.2031C14.2917 18.3438 14.6953 18.4792 15.1641 18.6094C15.8099 18.7917 16.3672 18.9948 16.8359 19.2188C17.3047 19.4427 17.6901 19.6953 17.9922 19.9766C18.2995 20.2526 18.526 20.5677 18.6719 20.9219C18.8229 21.2708 18.8984 21.6667 18.8984 22.1094C18.8984 22.5729 18.8047 22.9922 18.6172 23.3672C18.4297 23.7422 18.1615 24.0625 17.8125 24.3281C17.4635 24.5938 17.0443 24.7995 16.5547 24.9453C16.0703 25.0859 15.5286 25.1562 14.9297 25.1562C14.4036 25.1562 13.8854 25.0833 13.375 24.9375C12.8698 24.7917 12.4089 24.5729 11.9922 24.2812C11.5807 23.9896 11.25 23.6302 11 23.2031C10.7552 22.7708 10.6328 22.2708 10.6328 21.7031H12.1328C12.1328 22.0938 12.2083 22.4297 12.3594 22.7109C12.5104 22.987 12.7161 23.2161 12.9766 23.3984C13.2422 23.5807 13.5417 23.7161 13.875 23.8047C14.2135 23.888 14.5651 23.9297 14.9297 23.9297C15.4557 23.9297 15.901 23.8568 16.2656 23.7109C16.6302 23.5651 16.9062 23.3568 17.0938 23.0859C17.2865 22.8151 17.3828 22.4948 17.3828 22.125ZM22.0469 13V25H20.6016V13H22.0469ZM21.7031 20.4531L21.1016 20.4297C21.1068 19.8516 21.1927 19.3177 21.3594 18.8281C21.526 18.3333 21.7604 17.9036 22.0625 17.5391C22.3646 17.1745 22.724 16.8932 23.1406 16.6953C23.5625 16.4922 24.0286 16.3906 24.5391 16.3906C24.9557 16.3906 25.3307 16.4479 25.6641 16.5625C25.9974 16.6719 26.2812 16.849 26.5156 17.0938C26.7552 17.3385 26.9375 17.6562 27.0625 18.0469C27.1875 18.4323 27.25 18.9036 27.25 19.4609V25H25.7969V19.4453C25.7969 19.0026 25.7318 18.6484 25.6016 18.3828C25.4714 18.112 25.2812 17.9167 25.0312 17.7969C24.7812 17.6719 24.474 17.6094 24.1094 17.6094C23.75 17.6094 23.4219 17.6849 23.125 17.8359C22.8333 17.987 22.5807 18.1953 22.3672 18.4609C22.1589 18.7266 21.9948 19.0312 21.875 19.375C21.7604 19.7135 21.7031 20.0729 21.7031 20.4531ZM34.3984 23.5547V19.2031C34.3984 18.8698 34.3307 18.5807 34.1953 18.3359C34.0651 18.0859 33.8672 17.8932 33.6016 17.7578C33.3359 17.6224 33.0078 17.5547 32.6172 17.5547C32.2526 17.5547 31.9323 17.6172 31.6562 17.7422C31.3854 17.8672 31.1719 18.0312 31.0156 18.2344C30.8646 18.4375 30.7891 18.6562 30.7891 18.8906H29.3438C29.3438 18.5885 29.4219 18.2891 29.5781 17.9922C29.7344 17.6953 29.9583 17.4271 30.25 17.1875C30.5469 16.9427 30.901 16.75 31.3125 16.6094C31.7292 16.4635 32.1927 16.3906 32.7031 16.3906C33.3177 16.3906 33.8594 16.4948 34.3281 16.7031C34.8021 16.9115 35.1719 17.2266 35.4375 17.6484C35.7083 18.0651 35.8438 18.5885 35.8438 19.2188V23.1562C35.8438 23.4375 35.8672 23.737 35.9141 24.0547C35.9661 24.3724 36.0417 24.6458 36.1406 24.875V25H34.6328C34.5599 24.8333 34.5026 24.612 34.4609 24.3359C34.4193 24.0547 34.3984 23.7943 34.3984 23.5547ZM34.6484 19.875L34.6641 20.8906H33.2031C32.7917 20.8906 32.4245 20.9245 32.1016 20.9922C31.7786 21.0547 31.5078 21.151 31.2891 21.2812C31.0703 21.4115 30.9036 21.5755 30.7891 21.7734C30.6745 21.9661 30.6172 22.1927 30.6172 22.4531C30.6172 22.7188 30.6771 22.9609 30.7969 23.1797C30.9167 23.3984 31.0964 23.5729 31.3359 23.7031C31.5807 23.8281 31.8802 23.8906 32.2344 23.8906C32.6771 23.8906 33.0677 23.7969 33.4062 23.6094C33.7448 23.4219 34.013 23.1927 34.2109 22.9219C34.4141 22.651 34.5234 22.388 34.5391 22.1328L35.1562 22.8281C35.1198 23.0469 35.0208 23.2891 34.8594 23.5547C34.6979 23.8203 34.4818 24.0755 34.2109 24.3203C33.9453 24.5599 33.6276 24.7604 33.2578 24.9219C32.8932 25.0781 32.4818 25.1562 32.0234 25.1562C31.4505 25.1562 30.9479 25.0443 30.5156 24.8203C30.0885 24.5964 29.7552 24.2969 29.5156 23.9219C29.2812 23.5417 29.1641 23.1172 29.1641 22.6484C29.1641 22.1953 29.2526 21.7969 29.4297 21.4531C29.6068 21.1042 29.862 20.8151 30.1953 20.5859C30.5286 20.3516 30.9297 20.1745 31.3984 20.0547C31.8672 19.9349 32.3906 19.875 32.9688 19.875H34.6484ZM41.6562 16.5469V17.6562H37.0859V16.5469H41.6562ZM38.6328 14.4922H40.0781V22.9062C40.0781 23.1927 40.1224 23.4089 40.2109 23.5547C40.2995 23.7005 40.4141 23.7969 40.5547 23.8438C40.6953 23.8906 40.8464 23.9141 41.0078 23.9141C41.1276 23.9141 41.2526 23.9036 41.3828 23.8828C41.5182 23.8568 41.6198 23.8359 41.6875 23.8203L41.6953 25C41.5807 25.0365 41.4297 25.0703 41.2422 25.1016C41.0599 25.138 40.8385 25.1562 40.5781 25.1562C40.224 25.1562 39.8984 25.0859 39.6016 24.9453C39.3047 24.8047 39.0677 24.5703 38.8906 24.2422C38.7188 23.9089 38.6328 23.4609 38.6328 22.8984V14.4922ZM46.8906 16.5469V17.6562H42.3203V16.5469H46.8906ZM43.8672 14.4922H45.3125V22.9062C45.3125 23.1927 45.3568 23.4089 45.4453 23.5547C45.5339 23.7005 45.6484 23.7969 45.7891 23.8438C45.9297 23.8906 46.0807 23.9141 46.2422 23.9141C46.362 23.9141 46.487 23.9036 46.6172 23.8828C46.7526 23.8568 46.8542 23.8359 46.9219 23.8203L46.9297 25C46.8151 25.0365 46.6641 25.0703 46.4766 25.1016C46.2943 25.138 46.0729 25.1562 45.8125 25.1562C45.4583 25.1562 45.1328 25.0859 44.8359 24.9453C44.5391 24.8047 44.3021 24.5703 44.125 24.2422C43.9531 23.9089 43.8672 23.4609 43.8672 22.8984V14.4922ZM48.0469 20.8672V20.6875C48.0469 20.0781 48.1354 19.513 48.3125 18.9922C48.4896 18.4661 48.7448 18.0104 49.0781 17.625C49.4115 17.2344 49.8151 16.9323 50.2891 16.7188C50.763 16.5 51.2943 16.3906 51.8828 16.3906C52.4766 16.3906 53.0104 16.5 53.4844 16.7188C53.9635 16.9323 54.3698 17.2344 54.7031 17.625C55.0417 18.0104 55.2995 18.4661 55.4766 18.9922C55.6536 19.513 55.7422 20.0781 55.7422 20.6875V20.8672C55.7422 21.4766 55.6536 22.0417 55.4766 22.5625C55.2995 23.0833 55.0417 23.5391 54.7031 23.9297C54.3698 24.3151 53.9661 24.6172 53.4922 24.8359C53.0234 25.0495 52.4922 25.1562 51.8984 25.1562C51.3047 25.1562 50.7708 25.0495 50.2969 24.8359C49.8229 24.6172 49.4167 24.3151 49.0781 23.9297C48.7448 23.5391 48.4896 23.0833 48.3125 22.5625C48.1354 22.0417 48.0469 21.4766 48.0469 20.8672ZM49.4922 20.6875V20.8672C49.4922 21.2891 49.5417 21.6875 49.6406 22.0625C49.7396 22.4323 49.888 22.7604 50.0859 23.0469C50.2891 23.3333 50.5417 23.5599 50.8438 23.7266C51.1458 23.888 51.4974 23.9688 51.8984 23.9688C52.2943 23.9688 52.6406 23.888 52.9375 23.7266C53.2396 23.5599 53.4896 23.3333 53.6875 23.0469C53.8854 22.7604 54.0339 22.4323 54.1328 22.0625C54.237 21.6875 54.2891 21.2891 54.2891 20.8672V20.6875C54.2891 20.2708 54.237 19.8776 54.1328 19.5078C54.0339 19.1328 53.8828 18.8021 53.6797 18.5156C53.4818 18.224 53.2318 17.9948 52.9297 17.8281C52.6328 17.6615 52.2839 17.5781 51.8828 17.5781C51.487 17.5781 51.138 17.6615 50.8359 17.8281C50.5391 17.9948 50.2891 18.224 50.0859 18.5156C49.888 18.8021 49.7396 19.1328 49.6406 19.5078C49.5417 19.8776 49.4922 20.2708 49.4922 20.6875ZM59 18.3516V25H57.5547V16.5469H58.9219L59 18.3516ZM58.6562 20.4531L58.0547 20.4297C58.0599 19.8516 58.1458 19.3177 58.3125 18.8281C58.4792 18.3333 58.7135 17.9036 59.0156 17.5391C59.3177 17.1745 59.6771 16.8932 60.0938 16.6953C60.5156 16.4922 60.9818 16.3906 61.4922 16.3906C61.9089 16.3906 62.2839 16.4479 62.6172 16.5625C62.9505 16.6719 63.2344 16.849 63.4688 17.0938C63.7083 17.3385 63.8906 17.6562 64.0156 18.0469C64.1406 18.4323 64.2031 18.9036 64.2031 19.4609V25H62.75V19.4453C62.75 19.0026 62.6849 18.6484 62.5547 18.3828C62.4245 18.112 62.2344 17.9167 61.9844 17.7969C61.7344 17.6719 61.4271 17.6094 61.0625 17.6094C60.7031 17.6094 60.375 17.6849 60.0781 17.8359C59.7865 17.987 59.5339 18.1953 59.3203 18.4609C59.112 18.7266 58.9479 19.0312 58.8281 19.375C58.7135 19.7135 58.6562 20.0729 58.6562 20.4531ZM71.0625 13.625H72.5234L76.25 22.8984L79.9688 13.625H81.4375L76.8125 25H75.6719L71.0625 13.625ZM70.5859 13.625H71.875L72.0859 20.5625V25H70.5859V13.625ZM80.6172 13.625H81.9062V25H80.4062V20.5625L80.6172 13.625ZM83.9531 20.8672V20.6875C83.9531 20.0781 84.0417 19.513 84.2188 18.9922C84.3958 18.4661 84.651 18.0104 84.9844 17.625C85.3177 17.2344 85.7214 16.9323 86.1953 16.7188C86.6693 16.5 87.2005 16.3906 87.7891 16.3906C88.3828 16.3906 88.9167 16.5 89.3906 16.7188C89.8698 16.9323 90.276 17.2344 90.6094 17.625C90.9479 18.0104 91.2057 18.4661 91.3828 18.9922C91.5599 19.513 91.6484 20.0781 91.6484 20.6875V20.8672C91.6484 21.4766 91.5599 22.0417 91.3828 22.5625C91.2057 23.0833 90.9479 23.5391 90.6094 23.9297C90.276 24.3151 89.8724 24.6172 89.3984 24.8359C88.9297 25.0495 88.3984 25.1562 87.8047 25.1562C87.2109 25.1562 86.6771 25.0495 86.2031 24.8359C85.7292 24.6172 85.3229 24.3151 84.9844 23.9297C84.651 23.5391 84.3958 23.0833 84.2188 22.5625C84.0417 22.0417 83.9531 21.4766 83.9531 20.8672ZM85.3984 20.6875V20.8672C85.3984 21.2891 85.4479 21.6875 85.5469 22.0625C85.6458 22.4323 85.7943 22.7604 85.9922 23.0469C86.1953 23.3333 86.4479 23.5599 86.75 23.7266C87.0521 23.888 87.4036 23.9688 87.8047 23.9688C88.2005 23.9688 88.5469 23.888 88.8438 23.7266C89.1458 23.5599 89.3958 23.3333 89.5938 23.0469C89.7917 22.7604 89.9401 22.4323 90.0391 22.0625C90.1432 21.6875 90.1953 21.2891 90.1953 20.8672V20.6875C90.1953 20.2708 90.1432 19.8776 90.0391 19.5078C89.9401 19.1328 89.7891 18.8021 89.5859 18.5156C89.388 18.224 89.138 17.9948 88.8359 17.8281C88.5391 17.6615 88.1901 17.5781 87.7891 17.5781C87.3932 17.5781 87.0443 17.6615 86.7422 17.8281C86.4453 17.9948 86.1953 18.224 85.9922 18.5156C85.7943 18.8021 85.6458 19.1328 85.5469 19.5078C85.4479 19.8776 85.3984 20.2708 85.3984 20.6875ZM93.0781 20.8672V20.6875C93.0781 20.0781 93.1667 19.513 93.3438 18.9922C93.5208 18.4661 93.776 18.0104 94.1094 17.625C94.4427 17.2344 94.8464 16.9323 95.3203 16.7188C95.7943 16.5 96.3255 16.3906 96.9141 16.3906C97.5078 16.3906 98.0417 16.5 98.5156 16.7188C98.9948 16.9323 99.401 17.2344 99.7344 17.625C100.073 18.0104 100.331 18.4661 100.508 18.9922C100.685 19.513 100.773 20.0781 100.773 20.6875V20.8672C100.773 21.4766 100.685 22.0417 100.508 22.5625C100.331 23.0833 100.073 23.5391 99.7344 23.9297C99.401 24.3151 98.9974 24.6172 98.5234 24.8359C98.0547 25.0495 97.5234 25.1562 96.9297 25.1562C96.3359 25.1562 95.8021 25.0495 95.3281 24.8359C94.8542 24.6172 94.4479 24.3151 94.1094 23.9297C93.776 23.5391 93.5208 23.0833 93.3438 22.5625C93.1667 22.0417 93.0781 21.4766 93.0781 20.8672ZM94.5234 20.6875V20.8672C94.5234 21.2891 94.5729 21.6875 94.6719 22.0625C94.7708 22.4323 94.9193 22.7604 95.1172 23.0469C95.3203 23.3333 95.5729 23.5599 95.875 23.7266C96.1771 23.888 96.5286 23.9688 96.9297 23.9688C97.3255 23.9688 97.6719 23.888 97.9688 23.7266C98.2708 23.5599 98.5208 23.3333 98.7188 23.0469C98.9167 22.7604 99.0651 22.4323 99.1641 22.0625C99.2682 21.6875 99.3203 21.2891 99.3203 20.8672V20.6875C99.3203 20.2708 99.2682 19.8776 99.1641 19.5078C99.0651 19.1328 98.9141 18.8021 98.7109 18.5156C98.513 18.224 98.263 17.9948 97.9609 17.8281C97.6641 17.6615 97.3151 17.5781 96.9141 17.5781C96.5182 17.5781 96.1693 17.6615 95.8672 17.8281C95.5703 17.9948 95.3203 18.224 95.1172 18.5156C94.9193 18.8021 94.7708 19.1328 94.6719 19.5078C94.5729 19.8776 94.5234 20.2708 94.5234 20.6875ZM104.031 17.875V25H102.586V16.5469H103.992L104.031 17.875ZM106.672 16.5L106.664 17.8438C106.544 17.8177 106.43 17.8021 106.32 17.7969C106.216 17.7865 106.096 17.7812 105.961 17.7812C105.628 17.7812 105.333 17.8333 105.078 17.9375C104.823 18.0417 104.607 18.1875 104.43 18.375C104.253 18.5625 104.112 18.7865 104.008 19.0469C103.909 19.3021 103.844 19.5833 103.812 19.8906L103.406 20.125C103.406 19.6146 103.456 19.1354 103.555 18.6875C103.659 18.2396 103.818 17.8438 104.031 17.5C104.245 17.151 104.516 16.8802 104.844 16.6875C105.177 16.4896 105.573 16.3906 106.031 16.3906C106.135 16.3906 106.255 16.4036 106.391 16.4297C106.526 16.4505 106.62 16.474 106.672 16.5ZM119.062 21.3828H120.562C120.484 22.1016 120.279 22.7448 119.945 23.3125C119.612 23.8802 119.141 24.3307 118.531 24.6641C117.922 24.9922 117.161 25.1562 116.25 25.1562C115.583 25.1562 114.977 25.0312 114.43 24.7812C113.888 24.5312 113.422 24.1771 113.031 23.7188C112.641 23.2552 112.339 22.7005 112.125 22.0547C111.917 21.4036 111.812 20.6797 111.812 19.8828V18.75C111.812 17.9531 111.917 17.2318 112.125 16.5859C112.339 15.9349 112.643 15.3776 113.039 14.9141C113.44 14.4505 113.922 14.0938 114.484 13.8438C115.047 13.5938 115.68 13.4688 116.383 13.4688C117.242 13.4688 117.969 13.6302 118.562 13.9531C119.156 14.276 119.617 14.724 119.945 15.2969C120.279 15.8646 120.484 16.5234 120.562 17.2734H119.062C118.99 16.7422 118.854 16.2865 118.656 15.9062C118.458 15.5208 118.177 15.224 117.812 15.0156C117.448 14.8073 116.971 14.7031 116.383 14.7031C115.878 14.7031 115.432 14.7995 115.047 14.9922C114.667 15.1849 114.346 15.4583 114.086 15.8125C113.831 16.1667 113.638 16.5911 113.508 17.0859C113.378 17.5807 113.312 18.1302 113.312 18.7344V19.8828C113.312 20.4401 113.37 20.9635 113.484 21.4531C113.604 21.9427 113.784 22.3724 114.023 22.7422C114.263 23.112 114.568 23.4036 114.938 23.6172C115.307 23.8255 115.745 23.9297 116.25 23.9297C116.891 23.9297 117.401 23.8281 117.781 23.625C118.161 23.4219 118.448 23.1302 118.641 22.75C118.839 22.3698 118.979 21.9141 119.062 21.3828ZM123.969 16.5469V25H122.516V16.5469H123.969ZM122.406 14.3047C122.406 14.0703 122.477 13.8724 122.617 13.7109C122.763 13.5495 122.977 13.4688 123.258 13.4688C123.534 13.4688 123.745 13.5495 123.891 13.7109C124.042 13.8724 124.117 14.0703 124.117 14.3047C124.117 14.5286 124.042 14.7214 123.891 14.8828C123.745 15.0391 123.534 15.1172 123.258 15.1172C122.977 15.1172 122.763 15.0391 122.617 14.8828C122.477 14.7214 122.406 14.5286 122.406 14.3047ZM127.734 17.875V25H126.289V16.5469H127.695L127.734 17.875ZM130.375 16.5L130.367 17.8438C130.247 17.8177 130.133 17.8021 130.023 17.7969C129.919 17.7865 129.799 17.7812 129.664 17.7812C129.331 17.7812 129.036 17.8333 128.781 17.9375C128.526 18.0417 128.31 18.1875 128.133 18.375C127.956 18.5625 127.815 18.7865 127.711 19.0469C127.612 19.3021 127.547 19.5833 127.516 19.8906L127.109 20.125C127.109 19.6146 127.159 19.1354 127.258 18.6875C127.362 18.2396 127.521 17.8438 127.734 17.5C127.948 17.151 128.219 16.8802 128.547 16.6875C128.88 16.4896 129.276 16.3906 129.734 16.3906C129.839 16.3906 129.958 16.4036 130.094 16.4297C130.229 16.4505 130.323 16.474 130.375 16.5ZM134.938 23.9688C135.281 23.9688 135.599 23.8984 135.891 23.7578C136.182 23.6172 136.422 23.4245 136.609 23.1797C136.797 22.9297 136.904 22.6458 136.93 22.3281H138.305C138.279 22.8281 138.109 23.2943 137.797 23.7266C137.49 24.1536 137.086 24.5 136.586 24.7656C136.086 25.026 135.536 25.1562 134.938 25.1562C134.302 25.1562 133.747 25.0443 133.273 24.8203C132.805 24.5964 132.414 24.2891 132.102 23.8984C131.794 23.5078 131.562 23.0599 131.406 22.5547C131.255 22.0443 131.18 21.5052 131.18 20.9375V20.6094C131.18 20.0417 131.255 19.5052 131.406 19C131.562 18.4896 131.794 18.0391 132.102 17.6484C132.414 17.2578 132.805 16.9505 133.273 16.7266C133.747 16.5026 134.302 16.3906 134.938 16.3906C135.599 16.3906 136.177 16.526 136.672 16.7969C137.167 17.0625 137.555 17.4271 137.836 17.8906C138.122 18.349 138.279 18.8698 138.305 19.4531H136.93C136.904 19.1042 136.805 18.7891 136.633 18.5078C136.466 18.2266 136.237 18.0026 135.945 17.8359C135.659 17.6641 135.323 17.5781 134.938 17.5781C134.495 17.5781 134.122 17.6667 133.82 17.8438C133.523 18.0156 133.286 18.25 133.109 18.5469C132.938 18.8385 132.812 19.1641 132.734 19.5234C132.661 19.8776 132.625 20.2396 132.625 20.6094V20.9375C132.625 21.3073 132.661 21.6719 132.734 22.0312C132.807 22.3906 132.93 22.7161 133.102 23.0078C133.279 23.2995 133.516 23.5339 133.812 23.7109C134.115 23.8828 134.49 23.9688 134.938 23.9688ZM145.102 23.0469V16.5469H146.555V25H145.172L145.102 23.0469ZM145.375 21.2656L145.977 21.25C145.977 21.8125 145.917 22.3333 145.797 22.8125C145.682 23.2865 145.495 23.6979 145.234 24.0469C144.974 24.3958 144.633 24.6693 144.211 24.8672C143.789 25.0599 143.276 25.1562 142.672 25.1562C142.26 25.1562 141.883 25.0964 141.539 24.9766C141.201 24.8568 140.909 24.6719 140.664 24.4219C140.419 24.1719 140.229 23.8464 140.094 23.4453C139.964 23.0443 139.898 22.5625 139.898 22V16.5469H141.344V22.0156C141.344 22.3958 141.385 22.7109 141.469 22.9609C141.557 23.2057 141.674 23.401 141.82 23.5469C141.971 23.6875 142.138 23.7865 142.32 23.8438C142.508 23.901 142.701 23.9297 142.898 23.9297C143.513 23.9297 144 23.8125 144.359 23.5781C144.719 23.3385 144.977 23.0182 145.133 22.6172C145.294 22.2109 145.375 21.7604 145.375 21.2656ZM150.328 13V25H148.875V13H150.328ZM157.633 23.5547V19.2031C157.633 18.8698 157.565 18.5807 157.43 18.3359C157.299 18.0859 157.102 17.8932 156.836 17.7578C156.57 17.6224 156.242 17.5547 155.852 17.5547C155.487 17.5547 155.167 17.6172 154.891 17.7422C154.62 17.8672 154.406 18.0312 154.25 18.2344C154.099 18.4375 154.023 18.6562 154.023 18.8906H152.578C152.578 18.5885 152.656 18.2891 152.812 17.9922C152.969 17.6953 153.193 17.4271 153.484 17.1875C153.781 16.9427 154.135 16.75 154.547 16.6094C154.964 16.4635 155.427 16.3906 155.938 16.3906C156.552 16.3906 157.094 16.4948 157.562 16.7031C158.036 16.9115 158.406 17.2266 158.672 17.6484C158.943 18.0651 159.078 18.5885 159.078 19.2188V23.1562C159.078 23.4375 159.102 23.737 159.148 24.0547C159.201 24.3724 159.276 24.6458 159.375 24.875V25H157.867C157.794 24.8333 157.737 24.612 157.695 24.3359C157.654 24.0547 157.633 23.7943 157.633 23.5547ZM157.883 19.875L157.898 20.8906H156.438C156.026 20.8906 155.659 20.9245 155.336 20.9922C155.013 21.0547 154.742 21.151 154.523 21.2812C154.305 21.4115 154.138 21.5755 154.023 21.7734C153.909 21.9661 153.852 22.1927 153.852 22.4531C153.852 22.7188 153.911 22.9609 154.031 23.1797C154.151 23.3984 154.331 23.5729 154.57 23.7031C154.815 23.8281 155.115 23.8906 155.469 23.8906C155.911 23.8906 156.302 23.7969 156.641 23.6094C156.979 23.4219 157.247 23.1927 157.445 22.9219C157.648 22.651 157.758 22.388 157.773 22.1328L158.391 22.8281C158.354 23.0469 158.255 23.2891 158.094 23.5547C157.932 23.8203 157.716 24.0755 157.445 24.3203C157.18 24.5599 156.862 24.7604 156.492 24.9219C156.128 25.0781 155.716 25.1562 155.258 25.1562C154.685 25.1562 154.182 25.0443 153.75 24.8203C153.323 24.5964 152.99 24.2969 152.75 23.9219C152.516 23.5417 152.398 23.1172 152.398 22.6484C152.398 22.1953 152.487 21.7969 152.664 21.4531C152.841 21.1042 153.096 20.8151 153.43 20.5859C153.763 20.3516 154.164 20.1745 154.633 20.0547C155.102 19.9349 155.625 19.875 156.203 19.875H157.883ZM162.797 17.875V25H161.352V16.5469H162.758L162.797 17.875ZM165.438 16.5L165.43 17.8438C165.31 17.8177 165.195 17.8021 165.086 17.7969C164.982 17.7865 164.862 17.7812 164.727 17.7812C164.393 17.7812 164.099 17.8333 163.844 17.9375C163.589 18.0417 163.372 18.1875 163.195 18.375C163.018 18.5625 162.878 18.7865 162.773 19.0469C162.674 19.3021 162.609 19.5833 162.578 19.8906L162.172 20.125C162.172 19.6146 162.221 19.1354 162.32 18.6875C162.424 18.2396 162.583 17.8438 162.797 17.5C163.01 17.151 163.281 16.8802 163.609 16.6875C163.943 16.4896 164.339 16.3906 164.797 16.3906C164.901 16.3906 165.021 16.4036 165.156 16.4297C165.292 16.4505 165.385 16.474 165.438 16.5Z" fill="#3E3F43"/>
<path d="M16.4746 42.1289V43.0195H10.3105V42.3809L14.1309 36.4688H15.0156L14.0664 38.1797L11.541 42.1289H16.4746ZM15.2852 36.4688V45H14.2012V36.4688H15.2852ZM17.5938 44.4258C17.5938 44.2422 17.6504 44.0879 17.7637 43.9629C17.8809 43.834 18.0488 43.7695 18.2676 43.7695C18.4863 43.7695 18.6523 43.834 18.7656 43.9629C18.8828 44.0879 18.9414 44.2422 18.9414 44.4258C18.9414 44.6055 18.8828 44.7578 18.7656 44.8828C18.6523 45.0078 18.4863 45.0703 18.2676 45.0703C18.0488 45.0703 17.8809 45.0078 17.7637 44.8828C17.6504 44.7578 17.5938 44.6055 17.5938 44.4258ZM21.9941 40.9395L21.127 40.7168L21.5547 36.4688H25.9316V37.4707H22.4746L22.2168 39.791C22.373 39.7012 22.5703 39.6172 22.8086 39.5391C23.0508 39.4609 23.3281 39.4219 23.6406 39.4219C24.0352 39.4219 24.3887 39.4902 24.7012 39.627C25.0137 39.7598 25.2793 39.9512 25.498 40.2012C25.7207 40.4512 25.8906 40.752 26.0078 41.1035C26.125 41.4551 26.1836 41.8477 26.1836 42.2812C26.1836 42.6914 26.127 43.0684 26.0137 43.4121C25.9043 43.7559 25.7383 44.0566 25.5156 44.3145C25.293 44.5684 25.0117 44.7656 24.6719 44.9062C24.3359 45.0469 23.9395 45.1172 23.4824 45.1172C23.1387 45.1172 22.8125 45.0703 22.5039 44.9766C22.1992 44.8789 21.9258 44.7324 21.6836 44.5371C21.4453 44.3379 21.25 44.0918 21.0977 43.7988C20.9492 43.502 20.8555 43.1543 20.8164 42.7559H21.8477C21.8945 43.0762 21.9883 43.3457 22.1289 43.5645C22.2695 43.7832 22.4531 43.9492 22.6797 44.0625C22.9102 44.1719 23.1777 44.2266 23.4824 44.2266C23.7402 44.2266 23.9688 44.1816 24.168 44.0918C24.3672 44.002 24.5352 43.873 24.6719 43.7051C24.8086 43.5371 24.9121 43.334 24.9824 43.0957C25.0566 42.8574 25.0938 42.5898 25.0938 42.293C25.0938 42.0234 25.0566 41.7734 24.9824 41.543C24.9082 41.3125 24.7969 41.1113 24.6484 40.9395C24.5039 40.7676 24.3262 40.6348 24.1152 40.541C23.9043 40.4434 23.6621 40.3945 23.3887 40.3945C23.0254 40.3945 22.75 40.4434 22.5625 40.541C22.3789 40.6387 22.1895 40.7715 21.9941 40.9395Z" fill="#626365"/>
<path d="M82.8098 35.5854C82.8697 35.4011 83.1304 35.4011 83.1903 35.5854L84.3022 39.0077C84.329 39.0901 84.4058 39.1459 84.4924 39.1459H88.0908C88.2846 39.1459 88.3651 39.3938 88.2084 39.5077L85.2972 41.6228C85.2271 41.6737 85.1978 41.764 85.2246 41.8464L86.3365 45.2687C86.3964 45.453 86.1855 45.6062 86.0288 45.4923L83.1176 43.3772C83.0475 43.3263 82.9526 43.3263 82.8825 43.3772L79.9713 45.4923C79.8146 45.6062 79.6037 45.453 79.6635 45.2687L80.7755 41.8464C80.8023 41.764 80.773 41.6737 80.7029 41.6228L77.7917 39.5077C77.6349 39.3938 77.7155 39.1459 77.9092 39.1459H81.5076C81.5943 39.1459 81.6711 39.0901 81.6979 39.0077L82.8098 35.5854Z" fill="#D9D9D9"/>
<path d="M82.8048 35.6005C82.84 35.4922 82.9999 35.5175 82.9999 35.6314V36V43.2153C82.9999 43.2796 82.969 43.34 82.9167 43.3776L79.9689 45.4976C79.812 45.6105 79.6022 45.4573 79.6619 45.2735L80.7754 41.8464C80.8022 41.764 80.7729 41.6737 80.7028 41.6228L77.7916 39.5077C77.6349 39.3938 77.7154 39.1459 77.9092 39.1459H81.5076C81.5942 39.1459 81.671 39.0901 81.6978 39.0077L82.8048 35.6005Z" fill="#F9AB00"/>
<path d="M70.8098 35.5854C70.8697 35.4011 71.1303 35.4011 71.1902 35.5854L72.3022 39.0077C72.329 39.0901 72.4057 39.1459 72.4924 39.1459H76.0908C76.2845 39.1459 76.3651 39.3938 76.2084 39.5077L73.2972 41.6228C73.2271 41.6737 73.1978 41.764 73.2245 41.8464L74.3365 45.2687C74.3964 45.453 74.1855 45.6062 74.0287 45.4923L71.1176 43.3772C71.0475 43.3263 70.9525 43.3263 70.8824 43.3772L67.9713 45.4923C67.8145 45.6062 67.6036 45.453 67.6635 45.2687L68.7755 41.8464C68.8022 41.764 68.7729 41.6737 68.7028 41.6228L65.7916 39.5077C65.6349 39.3938 65.7155 39.1459 65.9092 39.1459H69.5076C69.5943 39.1459 69.671 39.0901 69.6978 39.0077L70.8098 35.5854Z" fill="#F9AB00"/>
<path d="M58.8098 35.5854C58.8697 35.4011 59.1303 35.4011 59.1902 35.5854L60.3022 39.0077C60.329 39.0901 60.4057 39.1459 60.4924 39.1459H64.0908C64.2845 39.1459 64.3651 39.3938 64.2084 39.5077L61.2972 41.6228C61.2271 41.6737 61.1978 41.764 61.2245 41.8464L62.3365 45.2687C62.3964 45.453 62.1855 45.6062 62.0287 45.4923L59.1176 43.3772C59.0475 43.3263 58.9525 43.3263 58.8824 43.3772L55.9713 45.4923C55.8145 45.6062 55.6036 45.453 55.6635 45.2687L56.7755 41.8464C56.8022 41.764 56.7729 41.6737 56.7028 41.6228L53.7916 39.5077C53.6349 39.3938 53.7155 39.1459 53.9092 39.1459H57.5076C57.5943 39.1459 57.671 39.0901 57.6978 39.0077L58.8098 35.5854Z" fill="#F9AB00"/>
<path d="M46.8098 35.5854C46.8697 35.4011 47.1303 35.4011 47.1902 35.5854L48.3022 39.0077C48.329 39.0901 48.4057 39.1459 48.4924 39.1459H52.0908C52.2845 39.1459 52.3651 39.3938 52.2084 39.5077L49.2972 41.6228C49.2271 41.6737 49.1978 41.764 49.2245 41.8464L50.3365 45.2687C50.3964 45.453 50.1855 45.6062 50.0287 45.4923L47.1176 43.3772C47.0475 43.3263 46.9525 43.3263 46.8824 43.3772L43.9713 45.4923C43.8145 45.6062 43.6036 45.453 43.6635 45.2687L44.7755 41.8464C44.8022 41.764 44.7729 41.6737 44.7028 41.6228L41.7916 39.5077C41.6349 39.3938 41.7155 39.1459 41.9092 39.1459H45.5076C45.5943 39.1459 45.671 39.0901 45.6978 39.0077L46.8098 35.5854Z" fill="#F9AB00"/>
<path d="M34.8098 35.5854C34.8697 35.4011 35.1303 35.4011 35.1902 35.5854L36.3022 39.0077C36.329 39.0901 36.4057 39.1459 36.4924 39.1459H40.0908C40.2845 39.1459 40.3651 39.3938 40.2084 39.5077L37.2972 41.6228C37.2271 41.6737 37.1978 41.764 37.2245 41.8464L38.3365 45.2687C38.3964 45.453 38.1855 45.6062 38.0287 45.4923L35.1176 43.3772C35.0475 43.3263 34.9525 43.3263 34.8824 43.3772L31.9713 45.4923C31.8145 45.6062 31.6036 45.453 31.6635 45.2687L32.7755 41.8464C32.8022 41.764 32.7729 41.6737 32.7028 41.6228L29.7916 39.5077C29.6349 39.3938 29.7155 39.1459 29.9092 39.1459H33.5076C33.5943 39.1459 33.671 39.0901 33.6978 39.0077L34.8098 35.5854Z" fill="#F9AB00"/>
<path d="M91.4915 41.5898V41.5312C91.4915 40.6797 91.5872 39.9102 91.7786 39.2227C91.97 38.5312 92.2142 37.9258 92.511 37.4062C92.8079 36.8867 93.1204 36.457 93.4485 36.1172C93.7767 35.7734 94.0794 35.5254 94.3568 35.373L94.5853 36.0879C94.3548 36.2637 94.1204 36.5059 93.8821 36.8145C93.6478 37.123 93.431 37.502 93.2318 37.9512C93.0364 38.4004 92.8782 38.9219 92.7571 39.5156C92.636 40.1094 92.5755 40.7773 92.5755 41.5195V41.6016C92.5755 42.3438 92.636 43.0137 92.7571 43.6113C92.8782 44.2051 93.0364 44.7285 93.2318 45.1816C93.431 45.6348 93.6478 46.0195 93.8821 46.3359C94.1204 46.6562 94.3548 46.9102 94.5853 47.0977L94.3568 47.7539C94.0794 47.6016 93.7767 47.3535 93.4485 47.0098C93.1204 46.6699 92.8079 46.2402 92.511 45.7207C92.2142 45.2051 91.97 44.6016 91.7786 43.9102C91.5872 43.2188 91.4915 42.4453 91.4915 41.5898ZM97.1107 40.2012H97.8841C98.263 40.2012 98.5755 40.1387 98.8216 40.0137C99.0716 39.8848 99.2571 39.7109 99.3782 39.4922C99.5032 39.2695 99.5657 39.0195 99.5657 38.7422C99.5657 38.4141 99.511 38.1387 99.4017 37.916C99.2923 37.6934 99.1282 37.5254 98.9095 37.4121C98.6907 37.2988 98.4134 37.2422 98.0775 37.2422C97.7728 37.2422 97.5032 37.3027 97.2689 37.4238C97.0384 37.541 96.8568 37.709 96.7239 37.9277C96.595 38.1465 96.5306 38.4043 96.5306 38.7012H95.4466C95.4466 38.2676 95.556 37.873 95.7747 37.5176C95.9935 37.1621 96.3001 36.8789 96.6946 36.668C97.0931 36.457 97.554 36.3516 98.0775 36.3516C98.5931 36.3516 99.0443 36.4434 99.431 36.627C99.8177 36.8066 100.118 37.0762 100.333 37.4355C100.548 37.791 100.656 38.2344 100.656 38.7656C100.656 38.9805 100.605 39.2109 100.503 39.457C100.406 39.6992 100.251 39.9258 100.04 40.1367C99.8333 40.3477 99.5638 40.5215 99.2318 40.6582C98.8997 40.791 98.5013 40.8574 98.0364 40.8574H97.1107V40.2012ZM97.1107 41.0918V40.4414H98.0364C98.5794 40.4414 99.0286 40.5059 99.3841 40.6348C99.7396 40.7637 100.019 40.9355 100.222 41.1504C100.429 41.3652 100.574 41.6016 100.656 41.8594C100.742 42.1133 100.784 42.3672 100.784 42.6211C100.784 43.0195 100.716 43.373 100.579 43.6816C100.447 43.9902 100.257 44.252 100.011 44.4668C99.7689 44.6816 99.4837 44.8438 99.1556 44.9531C98.8275 45.0625 98.47 45.1172 98.0833 45.1172C97.7122 45.1172 97.3626 45.0645 97.0345 44.959C96.7103 44.8535 96.4232 44.7012 96.1732 44.502C95.9232 44.2988 95.7278 44.0508 95.5872 43.7578C95.4466 43.4609 95.3763 43.123 95.3763 42.7441H96.4603C96.4603 43.041 96.5247 43.3008 96.6536 43.5234C96.7864 43.7461 96.9739 43.9199 97.2161 44.0449C97.4622 44.166 97.7513 44.2266 98.0833 44.2266C98.4153 44.2266 98.7005 44.1699 98.9388 44.0566C99.181 43.9395 99.3665 43.7637 99.4954 43.5293C99.6282 43.2949 99.6946 43 99.6946 42.6445C99.6946 42.2891 99.6204 41.998 99.472 41.7715C99.3235 41.541 99.1126 41.3711 98.8392 41.2617C98.5696 41.1484 98.2513 41.0918 97.8841 41.0918H97.1107ZM107.868 44.1094V45H102.284V44.2207L105.079 41.1094C105.423 40.7266 105.689 40.4023 105.876 40.1367C106.068 39.8672 106.201 39.627 106.275 39.416C106.353 39.2012 106.392 38.9824 106.392 38.7598C106.392 38.4785 106.333 38.2246 106.216 37.998C106.103 37.7676 105.935 37.584 105.712 37.4473C105.49 37.3105 105.22 37.2422 104.904 37.2422C104.525 37.2422 104.208 37.3164 103.954 37.4648C103.704 37.6094 103.517 37.8125 103.392 38.0742C103.267 38.3359 103.204 38.6367 103.204 38.9766H102.12C102.12 38.4961 102.226 38.0566 102.437 37.6582C102.648 37.2598 102.96 36.9434 103.374 36.709C103.788 36.4707 104.298 36.3516 104.904 36.3516C105.443 36.3516 105.904 36.4473 106.286 36.6387C106.669 36.8262 106.962 37.0918 107.165 37.4355C107.372 37.7754 107.476 38.1738 107.476 38.6309C107.476 38.8809 107.433 39.1348 107.347 39.3926C107.265 39.6465 107.15 39.9004 107.001 40.1543C106.857 40.4082 106.687 40.6582 106.492 40.9043C106.3 41.1504 106.095 41.3926 105.876 41.6309L103.591 44.1094H107.868ZM111.642 41.5312V41.5898C111.642 42.4453 111.546 43.2188 111.355 43.9102C111.163 44.6016 110.919 45.2051 110.622 45.7207C110.326 46.2402 110.013 46.6699 109.685 47.0098C109.357 47.3535 109.054 47.6016 108.777 47.7539L108.548 47.0977C108.779 46.9219 109.011 46.6758 109.245 46.3594C109.48 46.0469 109.697 45.6602 109.896 45.1992C110.095 44.7422 110.255 44.2148 110.376 43.6172C110.497 43.0156 110.558 42.3438 110.558 41.6016V41.5195C110.558 40.7773 110.493 40.1074 110.365 39.5098C110.236 38.9082 110.068 38.3789 109.861 37.9219C109.658 37.4648 109.439 37.0801 109.204 36.7676C108.974 36.4512 108.755 36.207 108.548 36.0352L108.777 35.373C109.054 35.5254 109.357 35.7734 109.685 36.1172C110.013 36.457 110.326 36.8867 110.622 37.4062C110.919 37.9258 111.163 38.5312 111.355 39.2227C111.546 39.9102 111.642 40.6797 111.642 41.5312Z" fill="#626365"/>
<path fill-rule="evenodd" clip-rule="evenodd" d="M122.29 39.2497H121.123V38.083H122.29V39.2497ZM122.29 43.9163H121.123V40.4163H122.29V43.9163ZM121.712 46.833C124.932 46.833 127.54 44.2197 127.54 40.9997C127.54 37.7797 124.932 35.1663 121.712 35.1663C118.486 35.1663 115.873 37.7797 115.873 40.9997C115.873 44.2197 118.486 46.833 121.712 46.833ZM121.706 36.333C124.285 36.333 126.373 38.4213 126.373 40.9997C126.373 43.578 124.285 45.6663 121.706 45.6663C119.128 45.6663 117.04 43.578 117.04 40.9997C117.04 38.4213 119.128 36.333 121.706 36.333Z" fill="#626365"/>
<path d="M16.5625 59.1367V60.0566H11.9453V59.1367H16.5625ZM12.1211 55.4688V64H10.9902V55.4688H12.1211ZM17.5469 55.4688V64H16.4219V55.4688H17.5469ZM20.5703 57.6602V64H19.4805V57.6602H20.5703ZM19.3984 55.9785C19.3984 55.8027 19.4512 55.6543 19.5566 55.5332C19.666 55.4121 19.8262 55.3516 20.0371 55.3516C20.2441 55.3516 20.4023 55.4121 20.5117 55.5332C20.625 55.6543 20.6816 55.8027 20.6816 55.9785C20.6816 56.1465 20.625 56.291 20.5117 56.4121C20.4023 56.5293 20.2441 56.5879 20.0371 56.5879C19.8262 56.5879 19.666 56.5293 19.5566 56.4121C19.4512 56.291 19.3984 56.1465 19.3984 55.9785ZM23.4004 55V64H22.3105V55H23.4004ZM27.2734 57.6602L24.5078 60.6191L22.9609 62.2246L22.873 61.0703L23.9805 59.7461L25.9492 57.6602H27.2734ZM26.2832 64L24.0215 60.9766L24.584 60.0098L27.5605 64H26.2832ZM29.5703 57.6602V64H28.4805V57.6602H29.5703ZM28.3984 55.9785C28.3984 55.8027 28.4512 55.6543 28.5566 55.5332C28.666 55.4121 28.8262 55.3516 29.0371 55.3516C29.2441 55.3516 29.4023 55.4121 29.5117 55.5332C29.625 55.6543 29.6816 55.8027 29.6816 55.9785C29.6816 56.1465 29.625 56.291 29.5117 56.4121C29.4023 56.5293 29.2441 56.5879 29.0371 56.5879C28.8262 56.5879 28.666 56.5293 28.5566 56.4121C28.4512 56.291 28.3984 56.1465 28.3984 55.9785ZM32.3945 59.0137V64H31.3105V57.6602H32.3359L32.3945 59.0137ZM32.1367 60.5898L31.6855 60.5723C31.6895 60.1387 31.7539 59.7383 31.8789 59.3711C32.0039 59 32.1797 58.6777 32.4062 58.4043C32.6328 58.1309 32.9023 57.9199 33.2148 57.7715C33.5312 57.6191 33.8809 57.543 34.2637 57.543C34.5762 57.543 34.8574 57.5859 35.1074 57.6719C35.3574 57.7539 35.5703 57.8867 35.7461 58.0703C35.9258 58.2539 36.0625 58.4922 36.1562 58.7852C36.25 59.0742 36.2969 59.4277 36.2969 59.8457V64H35.207V59.834C35.207 59.502 35.1582 59.2363 35.0605 59.0371C34.9629 58.834 34.8203 58.6875 34.6328 58.5977C34.4453 58.5039 34.2148 58.457 33.9414 58.457C33.6719 58.457 33.4258 58.5137 33.2031 58.627C32.9844 58.7402 32.7949 58.8965 32.6348 59.0957C32.4785 59.2949 32.3555 59.5234 32.2656 59.7812C32.1797 60.0352 32.1367 60.3047 32.1367 60.5898ZM42.0508 57.6602H43.0352V63.8652C43.0352 64.4238 42.9219 64.9004 42.6953 65.2949C42.4688 65.6895 42.1523 65.9883 41.7461 66.1914C41.3438 66.3984 40.8789 66.502 40.3516 66.502C40.1328 66.502 39.875 66.4668 39.5781 66.3965C39.2852 66.3301 38.9961 66.2148 38.7109 66.0508C38.4297 65.8906 38.1934 65.6738 38.002 65.4004L38.5703 64.7559C38.8359 65.0762 39.1133 65.2988 39.4023 65.4238C39.6953 65.5488 39.9844 65.6113 40.2695 65.6113C40.6133 65.6113 40.9102 65.5469 41.1602 65.418C41.4102 65.2891 41.6035 65.0977 41.7402 64.8438C41.8809 64.5938 41.9512 64.2852 41.9512 63.918V59.0547L42.0508 57.6602ZM37.6855 60.9004V60.7773C37.6855 60.293 37.7422 59.8535 37.8555 59.459C37.9727 59.0605 38.1387 58.7188 38.3535 58.4336C38.5723 58.1484 38.8359 57.9297 39.1445 57.7773C39.4531 57.6211 39.8008 57.543 40.1875 57.543C40.5859 57.543 40.9336 57.6133 41.2305 57.7539C41.5312 57.8906 41.7852 58.0918 41.9922 58.3574C42.2031 58.6191 42.3691 58.9355 42.4902 59.3066C42.6113 59.6777 42.6953 60.0977 42.7422 60.5664V61.1055C42.6992 61.5703 42.6152 61.9883 42.4902 62.3594C42.3691 62.7305 42.2031 63.0469 41.9922 63.3086C41.7852 63.5703 41.5312 63.7715 41.2305 63.9121C40.9297 64.0488 40.5781 64.1172 40.1758 64.1172C39.7969 64.1172 39.4531 64.0371 39.1445 63.877C38.8398 63.7168 38.5781 63.4922 38.3594 63.2031C38.1406 62.9141 37.9727 62.5742 37.8555 62.1836C37.7422 61.7891 37.6855 61.3613 37.6855 60.9004ZM38.7695 60.7773V60.9004C38.7695 61.2168 38.8008 61.5137 38.8633 61.791C38.9297 62.0684 39.0293 62.3125 39.1621 62.5234C39.2988 62.7344 39.4727 62.9004 39.6836 63.0215C39.8945 63.1387 40.1465 63.1973 40.4395 63.1973C40.7988 63.1973 41.0957 63.1211 41.3301 62.9688C41.5645 62.8164 41.75 62.6152 41.8867 62.3652C42.0273 62.1152 42.1367 61.8438 42.2148 61.5508V60.1387C42.1719 59.9238 42.1055 59.7168 42.0156 59.5176C41.9297 59.3145 41.8164 59.1348 41.6758 58.9785C41.5391 58.8184 41.3691 58.6914 41.166 58.5977C40.9629 58.5039 40.7246 58.457 40.4512 58.457C40.1543 58.457 39.8984 58.5195 39.6836 58.6445C39.4727 58.7656 39.2988 58.9336 39.1621 59.1484C39.0293 59.3594 38.9297 59.6055 38.8633 59.8867C38.8008 60.1641 38.7695 60.4609 38.7695 60.7773ZM51.3965 62.916V59.6523C51.3965 59.4023 51.3457 59.1855 51.2441 59.002C51.1465 58.8145 50.998 58.6699 50.7988 58.5684C50.5996 58.4668 50.3535 58.416 50.0605 58.416C49.7871 58.416 49.5469 58.4629 49.3398 58.5566C49.1367 58.6504 48.9766 58.7734 48.8594 58.9258C48.7461 59.0781 48.6895 59.2422 48.6895 59.418H47.6055C47.6055 59.1914 47.6641 58.9668 47.7812 58.7441C47.8984 58.5215 48.0664 58.3203 48.2852 58.1406C48.5078 57.957 48.7734 57.8125 49.082 57.707C49.3945 57.5977 49.7422 57.543 50.125 57.543C50.5859 57.543 50.9922 57.6211 51.3438 57.7773C51.6992 57.9336 51.9766 58.1699 52.1758 58.4863C52.3789 58.7988 52.4805 59.1914 52.4805 59.6641V62.6172C52.4805 62.8281 52.498 63.0527 52.5332 63.291C52.5723 63.5293 52.6289 63.7344 52.7031 63.9062V64H51.5723C51.5176 63.875 51.4746 63.709 51.4434 63.502C51.4121 63.291 51.3965 63.0957 51.3965 62.916ZM51.584 60.1562L51.5957 60.918H50.5C50.1914 60.918 49.916 60.9434 49.6738 60.9941C49.4316 61.041 49.2285 61.1133 49.0645 61.2109C48.9004 61.3086 48.7754 61.4316 48.6895 61.5801C48.6035 61.7246 48.5605 61.8945 48.5605 62.0898C48.5605 62.2891 48.6055 62.4707 48.6953 62.6348C48.7852 62.7988 48.9199 62.9297 49.0996 63.0273C49.2832 63.1211 49.5078 63.168 49.7734 63.168C50.1055 63.168 50.3984 63.0977 50.6523 62.957C50.9062 62.8164 51.1074 62.6445 51.2559 62.4414C51.4082 62.2383 51.4902 62.041 51.502 61.8496L51.9648 62.3711C51.9375 62.5352 51.8633 62.7168 51.7422 62.916C51.6211 63.1152 51.459 63.3066 51.2559 63.4902C51.0566 63.6699 50.8184 63.8203 50.541 63.9414C50.2676 64.0586 49.959 64.1172 49.6152 64.1172C49.1855 64.1172 48.8086 64.0332 48.4844 63.8652C48.1641 63.6973 47.9141 63.4727 47.7344 63.1914C47.5586 62.9062 47.4707 62.5879 47.4707 62.2363C47.4707 61.8965 47.5371 61.5977 47.6699 61.3398C47.8027 61.0781 47.9941 60.8613 48.2441 60.6895C48.4941 60.5137 48.7949 60.3809 49.1465 60.291C49.498 60.2012 49.8906 60.1562 50.3242 60.1562H51.584ZM55.2695 58.6562V64H54.1855V57.6602H55.2402L55.2695 58.6562ZM57.25 57.625L57.2441 58.6328C57.1543 58.6133 57.0684 58.6016 56.9863 58.5977C56.9082 58.5898 56.8184 58.5859 56.7168 58.5859C56.4668 58.5859 56.2461 58.625 56.0547 58.7031C55.8633 58.7812 55.7012 58.8906 55.5684 59.0312C55.4355 59.1719 55.3301 59.3398 55.252 59.5352C55.1777 59.7266 55.1289 59.9375 55.1055 60.168L54.8008 60.3438C54.8008 59.9609 54.8379 59.6016 54.9121 59.2656C54.9902 58.9297 55.1094 58.6328 55.2695 58.375C55.4297 58.1133 55.6328 57.9102 55.8789 57.7656C56.1289 57.6172 56.4258 57.543 56.7695 57.543C56.8477 57.543 56.9375 57.5527 57.0391 57.5723C57.1406 57.5879 57.2109 57.6055 57.25 57.625ZM60.7656 64.1172C60.3242 64.1172 59.9238 64.043 59.5645 63.8945C59.209 63.7422 58.9023 63.5293 58.6445 63.2559C58.3906 62.9824 58.1953 62.6582 58.0586 62.2832C57.9219 61.9082 57.8535 61.498 57.8535 61.0527V60.8066C57.8535 60.291 57.9297 59.832 58.082 59.4297C58.2344 59.0234 58.4414 58.6797 58.7031 58.3984C58.9648 58.1172 59.2617 57.9043 59.5938 57.7598C59.9258 57.6152 60.2695 57.543 60.625 57.543C61.0781 57.543 61.4688 57.6211 61.7969 57.7773C62.1289 57.9336 62.4004 58.1523 62.6113 58.4336C62.8223 58.7109 62.9785 59.0391 63.0801 59.418C63.1816 59.793 63.2324 60.2031 63.2324 60.6484V61.1348H58.498V60.25H62.1484V60.168C62.1328 59.8867 62.0742 59.6133 61.9727 59.3477C61.875 59.082 61.7188 58.8633 61.5039 58.6914C61.2891 58.5195 60.9961 58.4336 60.625 58.4336C60.3789 58.4336 60.1523 58.4863 59.9453 58.5918C59.7383 58.6934 59.5605 58.8457 59.4121 59.0488C59.2637 59.252 59.1484 59.5 59.0664 59.793C58.9844 60.0859 58.9434 60.4238 58.9434 60.8066V61.0527C58.9434 61.3535 58.9844 61.6367 59.0664 61.9023C59.1523 62.1641 59.2754 62.3945 59.4355 62.5938C59.5996 62.793 59.7969 62.9492 60.0273 63.0625C60.2617 63.1758 60.5273 63.2324 60.8242 63.2324C61.207 63.2324 61.5312 63.1543 61.7969 62.998C62.0625 62.8418 62.2949 62.6328 62.4941 62.3711L63.1504 62.8926C63.0137 63.0996 62.8398 63.2969 62.6289 63.4844C62.418 63.6719 62.1582 63.8242 61.8496 63.9414C61.5449 64.0586 61.1836 64.1172 60.7656 64.1172ZM68.2363 62.916V59.6523C68.2363 59.4023 68.1855 59.1855 68.084 59.002C67.9863 58.8145 67.8379 58.6699 67.6387 58.5684C67.4395 58.4668 67.1934 58.416 66.9004 58.416C66.627 58.416 66.3867 58.4629 66.1797 58.5566C65.9766 58.6504 65.8164 58.7734 65.6992 58.9258C65.5859 59.0781 65.5293 59.2422 65.5293 59.418H64.4453C64.4453 59.1914 64.5039 58.9668 64.6211 58.7441C64.7383 58.5215 64.9062 58.3203 65.125 58.1406C65.3477 57.957 65.6133 57.8125 65.9219 57.707C66.2344 57.5977 66.582 57.543 66.9648 57.543C67.4258 57.543 67.832 57.6211 68.1836 57.7773C68.5391 57.9336 68.8164 58.1699 69.0156 58.4863C69.2188 58.7988 69.3203 59.1914 69.3203 59.6641V62.6172C69.3203 62.8281 69.3379 63.0527 69.373 63.291C69.4121 63.5293 69.4688 63.7344 69.543 63.9062V64H68.4121C68.3574 63.875 68.3145 63.709 68.2832 63.502C68.252 63.291 68.2363 63.0957 68.2363 62.916ZM68.4238 60.1562L68.4355 60.918H67.3398C67.0312 60.918 66.7559 60.9434 66.5137 60.9941C66.2715 61.041 66.0684 61.1133 65.9043 61.2109C65.7402 61.3086 65.6152 61.4316 65.5293 61.5801C65.4434 61.7246 65.4004 61.8945 65.4004 62.0898C65.4004 62.2891 65.4453 62.4707 65.5352 62.6348C65.625 62.7988 65.7598 62.9297 65.9395 63.0273C66.123 63.1211 66.3477 63.168 66.6133 63.168C66.9453 63.168 67.2383 63.0977 67.4922 62.957C67.7461 62.8164 67.9473 62.6445 68.0957 62.4414C68.248 62.2383 68.3301 62.041 68.3418 61.8496L68.8047 62.3711C68.7773 62.5352 68.7031 62.7168 68.582 62.916C68.4609 63.1152 68.2988 63.3066 68.0957 63.4902C67.8965 63.6699 67.6582 63.8203 67.3809 63.9414C67.1074 64.0586 66.7988 64.1172 66.4551 64.1172C66.0254 64.1172 65.6484 64.0332 65.3242 63.8652C65.0039 63.6973 64.7539 63.4727 64.5742 63.1914C64.3984 62.9062 64.3105 62.5879 64.3105 62.2363C64.3105 61.8965 64.377 61.5977 64.5098 61.3398C64.6426 61.0781 64.834 60.8613 65.084 60.6895C65.334 60.5137 65.6348 60.3809 65.9863 60.291C66.3379 60.2012 66.7305 60.1562 67.1641 60.1562H68.4238ZM76.2578 59.9277V60.8184H73.3984V59.9277H76.2578ZM83.7402 55.4219V64H82.6562V56.7754L80.4707 57.5723V56.5938L83.5703 55.4219H83.7402ZM88.2988 59.9395L87.4316 59.7168L87.8594 55.4688H92.2363V56.4707H88.7793L88.5215 58.791C88.6777 58.7012 88.875 58.6172 89.1133 58.5391C89.3555 58.4609 89.6328 58.4219 89.9453 58.4219C90.3398 58.4219 90.6934 58.4902 91.0059 58.627C91.3184 58.7598 91.584 58.9512 91.8027 59.2012C92.0254 59.4512 92.1953 59.752 92.3125 60.1035C92.4297 60.4551 92.4883 60.8477 92.4883 61.2812C92.4883 61.6914 92.4316 62.0684 92.3184 62.4121C92.209 62.7559 92.043 63.0566 91.8203 63.3145C91.5977 63.5684 91.3164 63.7656 90.9766 63.9062C90.6406 64.0469 90.2441 64.1172 89.7871 64.1172C89.4434 64.1172 89.1172 64.0703 88.8086 63.9766C88.5039 63.8789 88.2305 63.7324 87.9883 63.5371C87.75 63.3379 87.5547 63.0918 87.4023 62.7988C87.2539 62.502 87.1602 62.1543 87.1211 61.7559H88.1523C88.1992 62.0762 88.293 62.3457 88.4336 62.5645C88.5742 62.7832 88.7578 62.9492 88.9844 63.0625C89.2148 63.1719 89.4824 63.2266 89.7871 63.2266C90.0449 63.2266 90.2734 63.1816 90.4727 63.0918C90.6719 63.002 90.8398 62.873 90.9766 62.7051C91.1133 62.5371 91.2168 62.334 91.2871 62.0957C91.3613 61.8574 91.3984 61.5898 91.3984 61.293C91.3984 61.0234 91.3613 60.7734 91.2871 60.543C91.2129 60.3125 91.1016 60.1113 90.9531 59.9395C90.8086 59.7676 90.6309 59.6348 90.4199 59.541C90.209 59.4434 89.9668 59.3945 89.6934 59.3945C89.3301 59.3945 89.0547 59.4434 88.8672 59.541C88.6836 59.6387 88.4941 59.7715 88.2988 59.9395ZM97.8379 55.457H97.9316V56.377H97.8379C97.2637 56.377 96.7832 56.4707 96.3965 56.6582C96.0098 56.8418 95.7031 57.0898 95.4766 57.4023C95.25 57.7109 95.0859 58.0586 94.9844 58.4453C94.8867 58.832 94.8379 59.2246 94.8379 59.623V60.877C94.8379 61.2559 94.8828 61.5918 94.9727 61.8848C95.0625 62.1738 95.1855 62.418 95.3418 62.6172C95.498 62.8164 95.6738 62.9668 95.8691 63.0684C96.0684 63.1699 96.2754 63.2207 96.4902 63.2207C96.7402 63.2207 96.9629 63.1738 97.1582 63.0801C97.3535 62.9824 97.5176 62.8477 97.6504 62.6758C97.7871 62.5 97.8906 62.293 97.9609 62.0547C98.0312 61.8164 98.0664 61.5547 98.0664 61.2695C98.0664 61.0156 98.0352 60.7715 97.9727 60.5371C97.9102 60.2988 97.8145 60.0879 97.6855 59.9043C97.5566 59.7168 97.3945 59.5703 97.1992 59.4648C97.0078 59.3555 96.7793 59.3008 96.5137 59.3008C96.2129 59.3008 95.9316 59.375 95.6699 59.5234C95.4121 59.668 95.1992 59.8594 95.0312 60.0977C94.8672 60.332 94.7734 60.5879 94.75 60.8652L94.1758 60.8594C94.2305 60.4219 94.332 60.0488 94.4805 59.7402C94.6328 59.4277 94.8203 59.1738 95.043 58.9785C95.2695 58.7793 95.5215 58.6348 95.7988 58.5449C96.0801 58.4512 96.377 58.4043 96.6895 58.4043C97.1152 58.4043 97.4824 58.4844 97.791 58.6445C98.0996 58.8047 98.3535 59.0195 98.5527 59.2891C98.752 59.5547 98.8984 59.8555 98.9922 60.1914C99.0898 60.5234 99.1387 60.8652 99.1387 61.2168C99.1387 61.6191 99.082 61.9961 98.9688 62.3477C98.8555 62.6992 98.6855 63.0078 98.459 63.2734C98.2363 63.5391 97.9609 63.7461 97.6328 63.8945C97.3047 64.043 96.9238 64.1172 96.4902 64.1172C96.0293 64.1172 95.627 64.0234 95.2832 63.8359C94.9395 63.6445 94.6543 63.3906 94.4277 63.0742C94.2012 62.7578 94.0312 62.4062 93.918 62.0195C93.8047 61.6328 93.748 61.2402 93.748 60.8418V60.332C93.748 59.7305 93.8086 59.1406 93.9297 58.5625C94.0508 57.9844 94.2598 57.4609 94.5566 56.9922C94.8574 56.5234 95.2734 56.1504 95.8047 55.873C96.3359 55.5957 97.0137 55.457 97.8379 55.457ZM104.6 58.9199V64H103.51V57.6602H104.541L104.6 58.9199ZM104.377 60.5898L103.873 60.5723C103.877 60.1387 103.934 59.7383 104.043 59.3711C104.152 59 104.314 58.6777 104.529 58.4043C104.744 58.1309 105.012 57.9199 105.332 57.7715C105.652 57.6191 106.023 57.543 106.445 57.543C106.742 57.543 107.016 57.5859 107.266 57.6719C107.516 57.7539 107.732 57.8848 107.916 58.0645C108.1 58.2441 108.242 58.4746 108.344 58.7559C108.445 59.0371 108.496 59.377 108.496 59.7754V64H107.412V59.8281C107.412 59.4961 107.355 59.2305 107.242 59.0312C107.133 58.832 106.977 58.6875 106.773 58.5977C106.57 58.5039 106.332 58.457 106.059 58.457C105.738 58.457 105.471 58.5137 105.256 58.627C105.041 58.7402 104.869 58.8965 104.74 59.0957C104.611 59.2949 104.518 59.5234 104.459 59.7812C104.404 60.0352 104.377 60.3047 104.377 60.5898ZM108.484 59.9922L107.758 60.2148C107.762 59.8672 107.818 59.5332 107.928 59.2129C108.041 58.8926 108.203 58.6074 108.414 58.3574C108.629 58.1074 108.893 57.9102 109.205 57.7656C109.518 57.6172 109.875 57.543 110.277 57.543C110.617 57.543 110.918 57.5879 111.18 57.6777C111.445 57.7676 111.668 57.9062 111.848 58.0938C112.031 58.2773 112.17 58.5137 112.264 58.8027C112.357 59.0918 112.404 59.4355 112.404 59.834V64H111.314V59.8223C111.314 59.4668 111.258 59.1914 111.145 58.9961C111.035 58.7969 110.879 58.6582 110.676 58.5801C110.477 58.498 110.238 58.457 109.961 58.457C109.723 58.457 109.512 58.498 109.328 58.5801C109.145 58.6621 108.99 58.7754 108.865 58.9199C108.74 59.0605 108.645 59.2227 108.578 59.4062C108.516 59.5898 108.484 59.7852 108.484 59.9922ZM115.223 57.6602V64H114.133V57.6602H115.223ZM114.051 55.9785C114.051 55.8027 114.104 55.6543 114.209 55.5332C114.318 55.4121 114.479 55.3516 114.689 55.3516C114.896 55.3516 115.055 55.4121 115.164 55.5332C115.277 55.6543 115.334 55.8027 115.334 55.9785C115.334 56.1465 115.277 56.291 115.164 56.4121C115.055 56.5293 114.896 56.5879 114.689 56.5879C114.479 56.5879 114.318 56.5293 114.209 56.4121C114.104 56.291 114.051 56.1465 114.051 55.9785Z" fill="#626365"/>
<path d="M14.1426 74.4688V83H13.0293V74.4688H14.1426ZM16.8848 74.4688V75.3945H10.293V74.4688H16.8848ZM18.625 77.6562V83H17.541V76.6602H18.5957L18.625 77.6562ZM20.6055 76.625L20.5996 77.6328C20.5098 77.6133 20.4238 77.6016 20.3418 77.5977C20.2637 77.5898 20.1738 77.5859 20.0723 77.5859C19.8223 77.5859 19.6016 77.625 19.4102 77.7031C19.2188 77.7812 19.0566 77.8906 18.9238 78.0312C18.791 78.1719 18.6855 78.3398 18.6074 78.5352C18.5332 78.7266 18.4844 78.9375 18.4609 79.168L18.1562 79.3438C18.1562 78.9609 18.1934 78.6016 18.2676 78.2656C18.3457 77.9297 18.4648 77.6328 18.625 77.375C18.7852 77.1133 18.9883 76.9102 19.2344 76.7656C19.4844 76.6172 19.7812 76.543 20.125 76.543C20.2031 76.543 20.293 76.5527 20.3945 76.5723C20.4961 76.5879 20.5664 76.6055 20.6055 76.625ZM25.1113 81.916V78.6523C25.1113 78.4023 25.0605 78.1855 24.959 78.002C24.8613 77.8145 24.7129 77.6699 24.5137 77.5684C24.3145 77.4668 24.0684 77.416 23.7754 77.416C23.502 77.416 23.2617 77.4629 23.0547 77.5566C22.8516 77.6504 22.6914 77.7734 22.5742 77.9258C22.4609 78.0781 22.4043 78.2422 22.4043 78.418H21.3203C21.3203 78.1914 21.3789 77.9668 21.4961 77.7441C21.6133 77.5215 21.7812 77.3203 22 77.1406C22.2227 76.957 22.4883 76.8125 22.7969 76.707C23.1094 76.5977 23.457 76.543 23.8398 76.543C24.3008 76.543 24.707 76.6211 25.0586 76.7773C25.4141 76.9336 25.6914 77.1699 25.8906 77.4863C26.0938 77.7988 26.1953 78.1914 26.1953 78.6641V81.6172C26.1953 81.8281 26.2129 82.0527 26.248 82.291C26.2871 82.5293 26.3438 82.7344 26.418 82.9062V83H25.2871C25.2324 82.875 25.1895 82.709 25.1582 82.502C25.127 82.291 25.1113 82.0957 25.1113 81.916ZM25.2988 79.1562L25.3105 79.918H24.2148C23.9062 79.918 23.6309 79.9434 23.3887 79.9941C23.1465 80.041 22.9434 80.1133 22.7793 80.2109C22.6152 80.3086 22.4902 80.4316 22.4043 80.5801C22.3184 80.7246 22.2754 80.8945 22.2754 81.0898C22.2754 81.2891 22.3203 81.4707 22.4102 81.6348C22.5 81.7988 22.6348 81.9297 22.8145 82.0273C22.998 82.1211 23.2227 82.168 23.4883 82.168C23.8203 82.168 24.1133 82.0977 24.3672 81.957C24.6211 81.8164 24.8223 81.6445 24.9707 81.4414C25.123 81.2383 25.2051 81.041 25.2168 80.8496L25.6797 81.3711C25.6523 81.5352 25.5781 81.7168 25.457 81.916C25.3359 82.1152 25.1738 82.3066 24.9707 82.4902C24.7715 82.6699 24.5332 82.8203 24.2559 82.9414C23.9824 83.0586 23.6738 83.1172 23.3301 83.1172C22.9004 83.1172 22.5234 83.0332 22.1992 82.8652C21.8789 82.6973 21.6289 82.4727 21.4492 82.1914C21.2734 81.9062 21.1855 81.5879 21.1855 81.2363C21.1855 80.8965 21.252 80.5977 21.3848 80.3398C21.5176 80.0781 21.709 79.8613 21.959 79.6895C22.209 79.5137 22.5098 79.3809 22.8613 79.291C23.2129 79.2012 23.6055 79.1562 24.0391 79.1562H25.2988ZM29.0781 76.6602V83H27.9883V76.6602H29.0781ZM27.9062 74.9785C27.9062 74.8027 27.959 74.6543 28.0645 74.5332C28.1738 74.4121 28.334 74.3516 28.5449 74.3516C28.752 74.3516 28.9102 74.4121 29.0195 74.5332C29.1328 74.6543 29.1895 74.8027 29.1895 74.9785C29.1895 75.1465 29.1328 75.291 29.0195 75.4121C28.9102 75.5293 28.752 75.5879 28.5449 75.5879C28.334 75.5879 28.1738 75.5293 28.0645 75.4121C27.959 75.291 27.9062 75.1465 27.9062 74.9785ZM31.9961 74V83H30.9062V74H31.9961ZM37.8906 74V83H36.8008V74H37.8906ZM42.2617 83.1172C41.8203 83.1172 41.4199 83.043 41.0605 82.8945C40.7051 82.7422 40.3984 82.5293 40.1406 82.2559C39.8867 81.9824 39.6914 81.6582 39.5547 81.2832C39.418 80.9082 39.3496 80.498 39.3496 80.0527V79.8066C39.3496 79.291 39.4258 78.832 39.5781 78.4297C39.7305 78.0234 39.9375 77.6797 40.1992 77.3984C40.4609 77.1172 40.7578 76.9043 41.0898 76.7598C41.4219 76.6152 41.7656 76.543 42.1211 76.543C42.5742 76.543 42.9648 76.6211 43.293 76.7773C43.625 76.9336 43.8965 77.1523 44.1074 77.4336C44.3184 77.7109 44.4746 78.0391 44.5762 78.418C44.6777 78.793 44.7285 79.2031 44.7285 79.6484V80.1348H39.9941V79.25H43.6445V79.168C43.6289 78.8867 43.5703 78.6133 43.4688 78.3477C43.3711 78.082 43.2148 77.8633 43 77.6914C42.7852 77.5195 42.4922 77.4336 42.1211 77.4336C41.875 77.4336 41.6484 77.4863 41.4414 77.5918C41.2344 77.6934 41.0566 77.8457 40.9082 78.0488C40.7598 78.252 40.6445 78.5 40.5625 78.793C40.4805 79.0859 40.4395 79.4238 40.4395 79.8066V80.0527C40.4395 80.3535 40.4805 80.6367 40.5625 80.9023C40.6484 81.1641 40.7715 81.3945 40.9316 81.5938C41.0957 81.793 41.293 81.9492 41.5234 82.0625C41.7578 82.1758 42.0234 82.2324 42.3203 82.2324C42.7031 82.2324 43.0273 82.1543 43.293 81.998C43.5586 81.8418 43.791 81.6328 43.9902 81.3711L44.6465 81.8926C44.5098 82.0996 44.3359 82.2969 44.125 82.4844C43.9141 82.6719 43.6543 82.8242 43.3457 82.9414C43.041 83.0586 42.6797 83.1172 42.2617 83.1172ZM47.0781 78.0137V83H45.9941V76.6602H47.0195L47.0781 78.0137ZM46.8203 79.5898L46.3691 79.5723C46.373 79.1387 46.4375 78.7383 46.5625 78.3711C46.6875 78 46.8633 77.6777 47.0898 77.4043C47.3164 77.1309 47.5859 76.9199 47.8984 76.7715C48.2148 76.6191 48.5645 76.543 48.9473 76.543C49.2598 76.543 49.541 76.5859 49.791 76.6719C50.041 76.7539 50.2539 76.8867 50.4297 77.0703C50.6094 77.2539 50.7461 77.4922 50.8398 77.7852C50.9336 78.0742 50.9805 78.4277 50.9805 78.8457V83H49.8906V78.834C49.8906 78.502 49.8418 78.2363 49.7441 78.0371C49.6465 77.834 49.5039 77.6875 49.3164 77.5977C49.1289 77.5039 48.8984 77.457 48.625 77.457C48.3555 77.457 48.1094 77.5137 47.8867 77.627C47.668 77.7402 47.4785 77.8965 47.3184 78.0957C47.1621 78.2949 47.0391 78.5234 46.9492 78.7812C46.8633 79.0352 46.8203 79.3047 46.8203 79.5898ZM56.7344 76.6602H57.7188V82.8652C57.7188 83.4238 57.6055 83.9004 57.3789 84.2949C57.1523 84.6895 56.8359 84.9883 56.4297 85.1914C56.0273 85.3984 55.5625 85.502 55.0352 85.502C54.8164 85.502 54.5586 85.4668 54.2617 85.3965C53.9688 85.3301 53.6797 85.2148 53.3945 85.0508C53.1133 84.8906 52.877 84.6738 52.6855 84.4004L53.2539 83.7559C53.5195 84.0762 53.7969 84.2988 54.0859 84.4238C54.3789 84.5488 54.668 84.6113 54.9531 84.6113C55.2969 84.6113 55.5938 84.5469 55.8438 84.418C56.0938 84.2891 56.2871 84.0977 56.4238 83.8438C56.5645 83.5938 56.6348 83.2852 56.6348 82.918V78.0547L56.7344 76.6602ZM52.3691 79.9004V79.7773C52.3691 79.293 52.4258 78.8535 52.5391 78.459C52.6562 78.0605 52.8223 77.7188 53.0371 77.4336C53.2559 77.1484 53.5195 76.9297 53.8281 76.7773C54.1367 76.6211 54.4844 76.543 54.8711 76.543C55.2695 76.543 55.6172 76.6133 55.9141 76.7539C56.2148 76.8906 56.4688 77.0918 56.6758 77.3574C56.8867 77.6191 57.0527 77.9355 57.1738 78.3066C57.2949 78.6777 57.3789 79.0977 57.4258 79.5664V80.1055C57.3828 80.5703 57.2988 80.9883 57.1738 81.3594C57.0527 81.7305 56.8867 82.0469 56.6758 82.3086C56.4688 82.5703 56.2148 82.7715 55.9141 82.9121C55.6133 83.0488 55.2617 83.1172 54.8594 83.1172C54.4805 83.1172 54.1367 83.0371 53.8281 82.877C53.5234 82.7168 53.2617 82.4922 53.043 82.2031C52.8242 81.9141 52.6562 81.5742 52.5391 81.1836C52.4258 80.7891 52.3691 80.3613 52.3691 79.9004ZM53.4531 79.7773V79.9004C53.4531 80.2168 53.4844 80.5137 53.5469 80.791C53.6133 81.0684 53.7129 81.3125 53.8457 81.5234C53.9824 81.7344 54.1562 81.9004 54.3672 82.0215C54.5781 82.1387 54.8301 82.1973 55.123 82.1973C55.4824 82.1973 55.7793 82.1211 56.0137 81.9688C56.248 81.8164 56.4336 81.6152 56.5703 81.3652C56.7109 81.1152 56.8203 80.8438 56.8984 80.5508V79.1387C56.8555 78.9238 56.7891 78.7168 56.6992 78.5176C56.6133 78.3145 56.5 78.1348 56.3594 77.9785C56.2227 77.8184 56.0527 77.6914 55.8496 77.5977C55.6465 77.5039 55.4082 77.457 55.1348 77.457C54.8379 77.457 54.582 77.5195 54.3672 77.6445C54.1562 77.7656 53.9824 77.9336 53.8457 78.1484C53.7129 78.3594 53.6133 78.6055 53.5469 78.8867C53.4844 79.1641 53.4531 79.4609 53.4531 79.7773ZM62.0195 76.6602V77.4922H58.5918V76.6602H62.0195ZM59.752 75.1191H60.8359V81.4297C60.8359 81.6445 60.8691 81.8066 60.9355 81.916C61.002 82.0254 61.0879 82.0977 61.1934 82.1328C61.2988 82.168 61.4121 82.1855 61.5332 82.1855C61.623 82.1855 61.7168 82.1777 61.8145 82.1621C61.916 82.1426 61.9922 82.127 62.043 82.1152L62.0488 83C61.9629 83.0273 61.8496 83.0527 61.709 83.0762C61.5723 83.1035 61.4062 83.1172 61.2109 83.1172C60.9453 83.1172 60.7012 83.0645 60.4785 82.959C60.2559 82.8535 60.0781 82.6777 59.9453 82.4316C59.8164 82.1816 59.752 81.8457 59.752 81.4238V75.1191ZM64.375 74V83H63.291V74H64.375ZM64.1172 79.5898L63.666 79.5723C63.6699 79.1387 63.7344 78.7383 63.8594 78.3711C63.9844 78 64.1602 77.6777 64.3867 77.4043C64.6133 77.1309 64.8828 76.9199 65.1953 76.7715C65.5117 76.6191 65.8613 76.543 66.2441 76.543C66.5566 76.543 66.8379 76.5859 67.0879 76.6719C67.3379 76.7539 67.5508 76.8867 67.7266 77.0703C67.9062 77.2539 68.043 77.4922 68.1367 77.7852C68.2305 78.0742 68.2773 78.4277 68.2773 78.8457V83H67.1875V78.834C67.1875 78.502 67.1387 78.2363 67.041 78.0371C66.9434 77.834 66.8008 77.6875 66.6133 77.5977C66.4258 77.5039 66.1953 77.457 65.9219 77.457C65.6523 77.457 65.4062 77.5137 65.1836 77.627C64.9648 77.7402 64.7754 77.8965 64.6152 78.0957C64.459 78.2949 64.3359 78.5234 64.2461 78.7812C64.1602 79.0352 64.1172 79.3047 64.1172 79.5898ZM75.1328 78.9277V79.8184H72.2734V78.9277H75.1328ZM84.8184 80.1289V81.0195H78.6543V80.3809L82.4746 74.4688H83.3594L82.4102 76.1797L79.8848 80.1289H84.8184ZM83.6289 74.4688V83H82.5449V74.4688H83.6289ZM89.9746 77.9199V83H88.8848V76.6602H89.916L89.9746 77.9199ZM89.752 79.5898L89.248 79.5723C89.252 79.1387 89.3086 78.7383 89.418 78.3711C89.5273 78 89.6895 77.6777 89.9043 77.4043C90.1191 77.1309 90.3867 76.9199 90.707 76.7715C91.0273 76.6191 91.3984 76.543 91.8203 76.543C92.1172 76.543 92.3906 76.5859 92.6406 76.6719C92.8906 76.7539 93.1074 76.8848 93.291 77.0645C93.4746 77.2441 93.6172 77.4746 93.7188 77.7559C93.8203 78.0371 93.8711 78.377 93.8711 78.7754V83H92.7871V78.8281C92.7871 78.4961 92.7305 78.2305 92.6172 78.0312C92.5078 77.832 92.3516 77.6875 92.1484 77.5977C91.9453 77.5039 91.707 77.457 91.4336 77.457C91.1133 77.457 90.8457 77.5137 90.6309 77.627C90.416 77.7402 90.2441 77.8965 90.1152 78.0957C89.9863 78.2949 89.8926 78.5234 89.834 78.7812C89.7793 79.0352 89.752 79.3047 89.752 79.5898ZM93.8594 78.9922L93.1328 79.2148C93.1367 78.8672 93.1934 78.5332 93.3027 78.2129C93.416 77.8926 93.5781 77.6074 93.7891 77.3574C94.0039 77.1074 94.2676 76.9102 94.5801 76.7656C94.8926 76.6172 95.25 76.543 95.6523 76.543C95.9922 76.543 96.293 76.5879 96.5547 76.6777C96.8203 76.7676 97.043 76.9062 97.2227 77.0938C97.4062 77.2773 97.5449 77.5137 97.6387 77.8027C97.7324 78.0918 97.7793 78.4355 97.7793 78.834V83H96.6895V78.8223C96.6895 78.4668 96.6328 78.1914 96.5195 77.9961C96.4102 77.7969 96.2539 77.6582 96.0508 77.5801C95.8516 77.498 95.6133 77.457 95.3359 77.457C95.0977 77.457 94.8867 77.498 94.7031 77.5801C94.5195 77.6621 94.3652 77.7754 94.2402 77.9199C94.1152 78.0605 94.0195 78.2227 93.9531 78.4062C93.8906 78.5898 93.8594 78.7852 93.8594 78.9922ZM100.598 76.6602V83H99.5078V76.6602H100.598ZM99.4258 74.9785C99.4258 74.8027 99.4785 74.6543 99.584 74.5332C99.6934 74.4121 99.8535 74.3516 100.064 74.3516C100.271 74.3516 100.43 74.4121 100.539 74.5332C100.652 74.6543 100.709 74.8027 100.709 74.9785C100.709 75.1465 100.652 75.291 100.539 75.4121C100.43 75.5293 100.271 75.5879 100.064 75.5879C99.8535 75.5879 99.6934 75.5293 99.584 75.4121C99.4785 75.291 99.4258 75.1465 99.4258 74.9785ZM105.273 79.5898V79.5312C105.273 78.6797 105.369 77.9102 105.561 77.2227C105.752 76.5312 105.996 75.9258 106.293 75.4062C106.59 74.8867 106.902 74.457 107.23 74.1172C107.559 73.7734 107.861 73.5254 108.139 73.373L108.367 74.0879C108.137 74.2637 107.902 74.5059 107.664 74.8145C107.43 75.123 107.213 75.502 107.014 75.9512C106.818 76.4004 106.66 76.9219 106.539 77.5156C106.418 78.1094 106.357 78.7773 106.357 79.5195V79.6016C106.357 80.3438 106.418 81.0137 106.539 81.6113C106.66 82.2051 106.818 82.7285 107.014 83.1816C107.213 83.6348 107.43 84.0195 107.664 84.3359C107.902 84.6562 108.137 84.9102 108.367 85.0977L108.139 85.7539C107.861 85.6016 107.559 85.3535 107.23 85.0098C106.902 84.6699 106.59 84.2402 106.293 83.7207C105.996 83.2051 105.752 82.6016 105.561 81.9102C105.369 81.2188 105.273 80.4453 105.273 79.5898ZM114.689 80.6914C114.689 81.2109 114.568 81.6523 114.326 82.0156C114.088 82.375 113.764 82.6484 113.354 82.8359C112.947 83.0234 112.488 83.1172 111.977 83.1172C111.465 83.1172 111.004 83.0234 110.594 82.8359C110.184 82.6484 109.859 82.375 109.621 82.0156C109.383 81.6523 109.264 81.2109 109.264 80.6914C109.264 80.3516 109.328 80.041 109.457 79.7598C109.59 79.4746 109.775 79.2266 110.014 79.0156C110.256 78.8047 110.541 78.6426 110.869 78.5293C111.201 78.4121 111.566 78.3535 111.965 78.3535C112.488 78.3535 112.955 78.4551 113.365 78.6582C113.775 78.8574 114.098 79.1328 114.332 79.4844C114.57 79.8359 114.689 80.2383 114.689 80.6914ZM113.6 80.668C113.6 80.3516 113.531 80.0723 113.395 79.8301C113.258 79.584 113.066 79.3926 112.82 79.2559C112.574 79.1191 112.289 79.0508 111.965 79.0508C111.633 79.0508 111.346 79.1191 111.104 79.2559C110.865 79.3926 110.68 79.584 110.547 79.8301C110.414 80.0723 110.348 80.3516 110.348 80.668C110.348 80.9961 110.412 81.2773 110.541 81.5117C110.674 81.7422 110.861 81.9199 111.104 82.0449C111.35 82.166 111.641 82.2266 111.977 82.2266C112.312 82.2266 112.602 82.166 112.844 82.0449C113.086 81.9199 113.271 81.7422 113.4 81.5117C113.533 81.2773 113.6 80.9961 113.6 80.668ZM114.49 76.6895C114.49 77.1035 114.381 77.4766 114.162 77.8086C113.943 78.1406 113.645 78.4023 113.266 78.5938C112.887 78.7852 112.457 78.8809 111.977 78.8809C111.488 78.8809 111.053 78.7852 110.67 78.5938C110.291 78.4023 109.994 78.1406 109.779 77.8086C109.564 77.4766 109.457 77.1035 109.457 76.6895C109.457 76.1934 109.564 75.7715 109.779 75.4238C109.998 75.0762 110.297 74.8105 110.676 74.627C111.055 74.4434 111.486 74.3516 111.971 74.3516C112.459 74.3516 112.893 74.4434 113.271 74.627C113.65 74.8105 113.947 75.0762 114.162 75.4238C114.381 75.7715 114.49 76.1934 114.49 76.6895ZM113.406 76.707C113.406 76.4219 113.346 76.1699 113.225 75.9512C113.104 75.7324 112.936 75.5605 112.721 75.4355C112.506 75.3066 112.256 75.2422 111.971 75.2422C111.686 75.2422 111.436 75.3027 111.221 75.4238C111.01 75.541 110.844 75.709 110.723 75.9277C110.605 76.1465 110.547 76.4062 110.547 76.707C110.547 77 110.605 77.2559 110.723 77.4746C110.844 77.6934 111.012 77.8633 111.227 77.9844C111.441 78.1055 111.691 78.166 111.977 78.166C112.262 78.166 112.51 78.1055 112.721 77.9844C112.936 77.8633 113.104 77.6934 113.225 77.4746C113.346 77.2559 113.406 77 113.406 76.707ZM121.826 80.1289V81.0195H115.662V80.3809L119.482 74.4688H120.367L119.418 76.1797L116.893 80.1289H121.826ZM120.637 74.4688V83H119.553V74.4688H120.637ZM128.576 80.1289V81.0195H122.412V80.3809L126.232 74.4688H127.117L126.168 76.1797L123.643 80.1289H128.576ZM127.387 74.4688V83H126.303V74.4688H127.387ZM134.939 80.6914C134.939 81.2109 134.818 81.6523 134.576 82.0156C134.338 82.375 134.014 82.6484 133.604 82.8359C133.197 83.0234 132.738 83.1172 132.227 83.1172C131.715 83.1172 131.254 83.0234 130.844 82.8359C130.434 82.6484 130.109 82.375 129.871 82.0156C129.633 81.6523 129.514 81.2109 129.514 80.6914C129.514 80.3516 129.578 80.041 129.707 79.7598C129.84 79.4746 130.025 79.2266 130.264 79.0156C130.506 78.8047 130.791 78.6426 131.119 78.5293C131.451 78.4121 131.816 78.3535 132.215 78.3535C132.738 78.3535 133.205 78.4551 133.615 78.6582C134.025 78.8574 134.348 79.1328 134.582 79.4844C134.82 79.8359 134.939 80.2383 134.939 80.6914ZM133.85 80.668C133.85 80.3516 133.781 80.0723 133.645 79.8301C133.508 79.584 133.316 79.3926 133.07 79.2559C132.824 79.1191 132.539 79.0508 132.215 79.0508C131.883 79.0508 131.596 79.1191 131.354 79.2559C131.115 79.3926 130.93 79.584 130.797 79.8301C130.664 80.0723 130.598 80.3516 130.598 80.668C130.598 80.9961 130.662 81.2773 130.791 81.5117C130.924 81.7422 131.111 81.9199 131.354 82.0449C131.6 82.166 131.891 82.2266 132.227 82.2266C132.562 82.2266 132.852 82.166 133.094 82.0449C133.336 81.9199 133.521 81.7422 133.65 81.5117C133.783 81.2773 133.85 80.9961 133.85 80.668ZM134.74 76.6895C134.74 77.1035 134.631 77.4766 134.412 77.8086C134.193 78.1406 133.895 78.4023 133.516 78.5938C133.137 78.7852 132.707 78.8809 132.227 78.8809C131.738 78.8809 131.303 78.7852 130.92 78.5938C130.541 78.4023 130.244 78.1406 130.029 77.8086C129.814 77.4766 129.707 77.1035 129.707 76.6895C129.707 76.1934 129.814 75.7715 130.029 75.4238C130.248 75.0762 130.547 74.8105 130.926 74.627C131.305 74.4434 131.736 74.3516 132.221 74.3516C132.709 74.3516 133.143 74.4434 133.521 74.627C133.9 74.8105 134.197 75.0762 134.412 75.4238C134.631 75.7715 134.74 76.1934 134.74 76.6895ZM133.656 76.707C133.656 76.4219 133.596 76.1699 133.475 75.9512C133.354 75.7324 133.186 75.5605 132.971 75.4355C132.756 75.3066 132.506 75.2422 132.221 75.2422C131.936 75.2422 131.686 75.3027 131.471 75.4238C131.26 75.541 131.094 75.709 130.973 75.9277C130.855 76.1465 130.797 76.4062 130.797 76.707C130.797 77 130.855 77.2559 130.973 77.4746C131.094 77.6934 131.262 77.8633 131.477 77.9844C131.691 78.1055 131.941 78.166 132.227 78.166C132.512 78.166 132.76 78.1055 132.971 77.9844C133.186 77.8633 133.354 77.6934 133.475 77.4746C133.596 77.2559 133.656 77 133.656 76.707ZM143.096 81.3184C143.096 81.1621 143.061 81.0176 142.99 80.8848C142.924 80.748 142.785 80.625 142.574 80.5156C142.367 80.4023 142.055 80.3047 141.637 80.2227C141.285 80.1484 140.967 80.0605 140.682 79.959C140.4 79.8574 140.16 79.7344 139.961 79.5898C139.766 79.4453 139.615 79.2754 139.51 79.0801C139.404 78.8848 139.352 78.6562 139.352 78.3945C139.352 78.1445 139.406 77.9082 139.516 77.6855C139.629 77.4629 139.787 77.2656 139.99 77.0938C140.197 76.9219 140.445 76.7871 140.734 76.6895C141.023 76.5918 141.346 76.543 141.701 76.543C142.209 76.543 142.643 76.6328 143.002 76.8125C143.361 76.9922 143.637 77.2324 143.828 77.5332C144.02 77.8301 144.115 78.1602 144.115 78.5234H143.031C143.031 78.3477 142.979 78.1777 142.873 78.0137C142.771 77.8457 142.621 77.707 142.422 77.5977C142.227 77.4883 141.986 77.4336 141.701 77.4336C141.4 77.4336 141.156 77.4805 140.969 77.5742C140.785 77.6641 140.65 77.7793 140.564 77.9199C140.482 78.0605 140.441 78.209 140.441 78.3652C140.441 78.4824 140.461 78.5879 140.5 78.6816C140.543 78.7715 140.617 78.8555 140.723 78.9336C140.828 79.0078 140.977 79.0781 141.168 79.1445C141.359 79.2109 141.604 79.2773 141.9 79.3438C142.42 79.4609 142.848 79.6016 143.184 79.7656C143.52 79.9297 143.77 80.1309 143.934 80.3691C144.098 80.6074 144.18 80.8965 144.18 81.2363C144.18 81.5137 144.121 81.7676 144.004 81.998C143.891 82.2285 143.725 82.4277 143.506 82.5957C143.291 82.7598 143.033 82.8887 142.732 82.9824C142.436 83.0723 142.102 83.1172 141.73 83.1172C141.172 83.1172 140.699 83.0176 140.312 82.8184C139.926 82.6191 139.633 82.3613 139.434 82.0449C139.234 81.7285 139.135 81.3945 139.135 81.043H140.225C140.24 81.3398 140.326 81.5762 140.482 81.752C140.639 81.9238 140.83 82.0469 141.057 82.1211C141.283 82.1914 141.508 82.2266 141.73 82.2266C142.027 82.2266 142.275 82.1875 142.475 82.1094C142.678 82.0312 142.832 81.9238 142.938 81.7871C143.043 81.6504 143.096 81.4941 143.096 81.3184ZM148.258 76.6602V77.4922H144.83V76.6602H148.258ZM145.99 75.1191H147.074V81.4297C147.074 81.6445 147.107 81.8066 147.174 81.916C147.24 82.0254 147.326 82.0977 147.432 82.1328C147.537 82.168 147.65 82.1855 147.771 82.1855C147.861 82.1855 147.955 82.1777 148.053 82.1621C148.154 82.1426 148.23 82.127 148.281 82.1152L148.287 83C148.201 83.0273 148.088 83.0527 147.947 83.0762C147.811 83.1035 147.645 83.1172 147.449 83.1172C147.184 83.1172 146.939 83.0645 146.717 82.959C146.494 82.8535 146.316 82.6777 146.184 82.4316C146.055 82.1816 145.99 81.8457 145.99 81.4238V75.1191ZM152.16 83.1172C151.719 83.1172 151.318 83.043 150.959 82.8945C150.604 82.7422 150.297 82.5293 150.039 82.2559C149.785 81.9824 149.59 81.6582 149.453 81.2832C149.316 80.9082 149.248 80.498 149.248 80.0527V79.8066C149.248 79.291 149.324 78.832 149.477 78.4297C149.629 78.0234 149.836 77.6797 150.098 77.3984C150.359 77.1172 150.656 76.9043 150.988 76.7598C151.32 76.6152 151.664 76.543 152.02 76.543C152.473 76.543 152.863 76.6211 153.191 76.7773C153.523 76.9336 153.795 77.1523 154.006 77.4336C154.217 77.7109 154.373 78.0391 154.475 78.418C154.576 78.793 154.627 79.2031 154.627 79.6484V80.1348H149.893V79.25H153.543V79.168C153.527 78.8867 153.469 78.6133 153.367 78.3477C153.27 78.082 153.113 77.8633 152.898 77.6914C152.684 77.5195 152.391 77.4336 152.02 77.4336C151.773 77.4336 151.547 77.4863 151.34 77.5918C151.133 77.6934 150.955 77.8457 150.807 78.0488C150.658 78.252 150.543 78.5 150.461 78.793C150.379 79.0859 150.338 79.4238 150.338 79.8066V80.0527C150.338 80.3535 150.379 80.6367 150.461 80.9023C150.547 81.1641 150.67 81.3945 150.83 81.5938C150.994 81.793 151.191 81.9492 151.422 82.0625C151.656 82.1758 151.922 82.2324 152.219 82.2324C152.602 82.2324 152.926 82.1543 153.191 81.998C153.457 81.8418 153.689 81.6328 153.889 81.3711L154.545 81.8926C154.408 82.0996 154.234 82.2969 154.023 82.4844C153.812 82.6719 153.553 82.8242 153.244 82.9414C152.939 83.0586 152.578 83.1172 152.16 83.1172ZM156.977 77.8789V85.4375H155.887V76.6602H156.883L156.977 77.8789ZM161.248 79.7773V79.9004C161.248 80.3613 161.193 80.7891 161.084 81.1836C160.975 81.5742 160.814 81.9141 160.604 82.2031C160.396 82.4922 160.141 82.7168 159.836 82.877C159.531 83.0371 159.182 83.1172 158.787 83.1172C158.385 83.1172 158.029 83.0508 157.721 82.918C157.412 82.7852 157.15 82.5918 156.936 82.3379C156.721 82.084 156.549 81.7793 156.42 81.4238C156.295 81.0684 156.209 80.668 156.162 80.2227V79.5664C156.209 79.0977 156.297 78.6777 156.426 78.3066C156.555 77.9355 156.725 77.6191 156.936 77.3574C157.15 77.0918 157.41 76.8906 157.715 76.7539C158.02 76.6133 158.371 76.543 158.77 76.543C159.168 76.543 159.521 76.6211 159.83 76.7773C160.139 76.9297 160.398 77.1484 160.609 77.4336C160.82 77.7188 160.979 78.0605 161.084 78.459C161.193 78.8535 161.248 79.293 161.248 79.7773ZM160.158 79.9004V79.7773C160.158 79.4609 160.125 79.1641 160.059 78.8867C159.992 78.6055 159.889 78.3594 159.748 78.1484C159.611 77.9336 159.436 77.7656 159.221 77.6445C159.006 77.5195 158.75 77.457 158.453 77.457C158.18 77.457 157.941 77.5039 157.738 77.5977C157.539 77.6914 157.369 77.8184 157.229 77.9785C157.088 78.1348 156.973 78.3145 156.883 78.5176C156.797 78.7168 156.732 78.9238 156.689 79.1387V80.6562C156.768 80.9297 156.877 81.1875 157.018 81.4297C157.158 81.668 157.346 81.8613 157.58 82.0098C157.814 82.1543 158.109 82.2266 158.465 82.2266C158.758 82.2266 159.01 82.166 159.221 82.0449C159.436 81.9199 159.611 81.75 159.748 81.5352C159.889 81.3203 159.992 81.0742 160.059 80.7969C160.125 80.5156 160.158 80.2168 160.158 79.9004ZM166.322 81.3184C166.322 81.1621 166.287 81.0176 166.217 80.8848C166.15 80.748 166.012 80.625 165.801 80.5156C165.594 80.4023 165.281 80.3047 164.863 80.2227C164.512 80.1484 164.193 80.0605 163.908 79.959C163.627 79.8574 163.387 79.7344 163.188 79.5898C162.992 79.4453 162.842 79.2754 162.736 79.0801C162.631 78.8848 162.578 78.6562 162.578 78.3945C162.578 78.1445 162.633 77.9082 162.742 77.6855C162.855 77.4629 163.014 77.2656 163.217 77.0938C163.424 76.9219 163.672 76.7871 163.961 76.6895C164.25 76.5918 164.572 76.543 164.928 76.543C165.436 76.543 165.869 76.6328 166.229 76.8125C166.588 76.9922 166.863 77.2324 167.055 77.5332C167.246 77.8301 167.342 78.1602 167.342 78.5234H166.258C166.258 78.3477 166.205 78.1777 166.1 78.0137C165.998 77.8457 165.848 77.707 165.648 77.5977C165.453 77.4883 165.213 77.4336 164.928 77.4336C164.627 77.4336 164.383 77.4805 164.195 77.5742C164.012 77.6641 163.877 77.7793 163.791 77.9199C163.709 78.0605 163.668 78.209 163.668 78.3652C163.668 78.4824 163.688 78.5879 163.727 78.6816C163.77 78.7715 163.844 78.8555 163.949 78.9336C164.055 79.0078 164.203 79.0781 164.395 79.1445C164.586 79.2109 164.83 79.2773 165.127 79.3438C165.646 79.4609 166.074 79.6016 166.41 79.7656C166.746 79.9297 166.996 80.1309 167.16 80.3691C167.324 80.6074 167.406 80.8965 167.406 81.2363C167.406 81.5137 167.348 81.7676 167.23 81.998C167.117 82.2285 166.951 82.4277 166.732 82.5957C166.518 82.7598 166.26 82.8887 165.959 82.9824C165.662 83.0723 165.328 83.1172 164.957 83.1172C164.398 83.1172 163.926 83.0176 163.539 82.8184C163.152 82.6191 162.859 82.3613 162.66 82.0449C162.461 81.7285 162.361 81.3945 162.361 81.043H163.451C163.467 81.3398 163.553 81.5762 163.709 81.752C163.865 81.9238 164.057 82.0469 164.283 82.1211C164.51 82.1914 164.734 82.2266 164.957 82.2266C165.254 82.2266 165.502 82.1875 165.701 82.1094C165.904 82.0312 166.059 81.9238 166.164 81.7871C166.27 81.6504 166.322 81.4941 166.322 81.3184ZM171.326 79.5312V79.5898C171.326 80.4453 171.23 81.2188 171.039 81.9102C170.848 82.6016 170.604 83.2051 170.307 83.7207C170.01 84.2402 169.697 84.6699 169.369 85.0098C169.041 85.3535 168.738 85.6016 168.461 85.7539L168.232 85.0977C168.463 84.9219 168.695 84.6758 168.93 84.3594C169.164 84.0469 169.381 83.6602 169.58 83.1992C169.779 82.7422 169.939 82.2148 170.061 81.6172C170.182 81.0156 170.242 80.3438 170.242 79.6016V79.5195C170.242 78.7773 170.178 78.1074 170.049 77.5098C169.92 76.9082 169.752 76.3789 169.545 75.9219C169.342 75.4648 169.123 75.0801 168.889 74.7676C168.658 74.4512 168.439 74.207 168.232 74.0352L168.461 73.373C168.738 73.5254 169.041 73.7734 169.369 74.1172C169.697 74.457 170.01 74.8867 170.307 75.4062C170.604 75.9258 170.848 76.5312 171.039 77.2227C171.23 77.9102 171.326 78.6797 171.326 79.5312Z" fill="#626365"/>
</svg>
