<svg width="126" height="102" viewBox="0 0 126 102" fill="none" xmlns="http://www.w3.org/2000/svg">
<path d="M63.9688 75.5C63.9688 77.625 64.0625 79.3125 64.25 80.5625C64.5 81.8125 64.9375 82.7812 65.5625 83.4688C66.25 84.0938 67.1562 84.5312 68.2812 84.7812C69.4688 84.9688 71.0312 85.0625 72.9688 85.0625V88.4375C71.2812 88.4375 69.2812 88.4375 66.9688 88.4375C64.6562 88.375 62.25 88.3438 59.75 88.3438C57.25 88.3438 54.8125 88.375 52.4375 88.4375C50.125 88.4375 48.125 88.4688 46.4375 88.5312V85.0625C48.3125 85.0625 49.8125 84.9688 50.9375 84.7812C52.125 84.5312 53.0625 84.0938 53.75 83.4688C54.375 82.7812 54.8125 81.8125 55.0625 80.5625C55.3125 79.3125 55.4375 77.625 55.4375 75.5V29.9375C55.4375 28.0625 55.3438 26.5625 55.1562 25.4375C54.9688 24.3125 54.5625 23.4688 53.9375 22.9062C53.3125 22.3438 52.4375 21.9688 51.3125 21.7812C50.1875 21.5938 48.6562 21.5 46.7188 21.5V18.125C48.0312 18.1875 49.75 18.25 51.875 18.3125C54.0625 18.3125 56.3125 18.2812 58.625 18.2188C60.9375 18.2188 63.1562 18.2188 65.2812 18.2188C67.4062 18.1563 69.125 18.0937 70.4375 18.0312C74 18.0312 77.2812 18.5313 80.2812 19.5312C83.2812 20.4688 85.8438 21.8125 87.9688 23.5625C90.0938 25.375 91.75 27.5313 92.9375 30.0312C94.125 32.4688 94.7188 35.2188 94.7188 38.2812C94.7188 41.3438 94.1562 44.125 93.0312 46.625C91.9062 49.0625 90.4062 51.1562 88.5312 52.9062C86.6562 54.7188 84.4688 56.1562 81.9688 57.2188C79.5312 58.2188 76.9375 58.75 74.1875 58.8125C72.8125 58.875 71.1875 58.9062 69.3125 58.9062C67.4375 58.9062 65.6562 58.9062 63.9688 58.9062V75.5ZM63.9688 54.125C65.4688 54.3125 67 54.4375 68.5625 54.5C70.1875 54.5625 71.5625 54.5625 72.6875 54.5C76.4375 54.375 79.5 52.9688 81.875 50.2812C84.3125 47.5312 85.5312 43.75 85.5312 38.9375C85.5312 36.125 85.0312 33.6562 84.0312 31.5312C83.0938 29.4063 81.875 27.6562 80.375 26.2812C78.8125 24.8437 77 23.7813 74.9375 23.0938C72.9375 22.4062 70.875 22.0625 68.75 22.0625C68.0625 22.0625 67.2188 22.125 66.2188 22.25C65.2188 22.3125 64.4688 22.375 63.9688 22.4375V54.125Z" fill="#83C5BE"/>
<path d="M50.6686 70.7989C50.3499 70.8503 49.9065 70.8946 49.3385 70.9319C48.7766 70.9897 48.1707 70.9381 47.5208 70.7773C46.8708 70.6165 46.2503 70.2574 45.6593 69.7001C45.0744 69.1632 44.6159 68.3432 44.2839 67.2401C43.9027 65.9736 43.7399 64.5076 43.7956 62.8422C43.8656 61.1503 44.0294 59.3632 44.2872 57.481C44.545 55.5989 44.7783 53.7463 44.9871 51.9235C45.1513 50.4705 45.1319 49.4069 44.929 48.7328C44.7261 48.0587 44.3693 47.7985 43.8586 47.9522C43.2866 48.1244 42.567 48.8422 41.6997 50.1058C40.8467 51.3429 39.9513 53.1051 39.0134 55.3924C38.7729 55.9995 38.4784 56.8345 38.1299 57.8974C37.7753 58.9398 37.4106 60.0967 37.0358 61.368C36.6549 62.6189 36.2903 63.8872 35.942 65.1727C35.6081 66.4318 35.321 67.5876 35.0809 68.6401C34.8611 69.6865 34.7189 70.5091 34.654 71.1079C34.5791 71.8211 34.4018 72.3423 34.1221 72.6715C33.8486 73.0212 33.5587 73.2421 33.2523 73.3344C32.9867 73.4143 32.7303 73.4135 32.4829 73.332C32.256 73.2443 32.1119 73.0984 32.0504 72.8941C32.0135 72.7715 32.0134 72.6602 32.0501 72.56C32.0988 72.278 32.2474 71.5872 32.4957 70.4876C32.7439 69.3881 32.9715 67.9606 33.1783 66.2051C33.379 64.4293 33.4752 62.4175 33.467 60.1698C33.4731 57.8955 33.2512 55.456 32.8013 52.8511C32.7561 52.5528 32.6843 52.2402 32.5859 51.9134C32.3707 51.1984 32.0913 50.7144 31.7478 50.4613C31.3982 50.1878 31.019 50.1126 30.6105 50.2355C30.1611 50.3708 29.7088 50.7186 29.2536 51.2789C28.7985 51.8392 28.3854 52.5762 28.0143 53.4899C27.3803 55.0843 26.8412 56.5499 26.3969 57.8867C25.9465 59.203 25.5575 60.5009 25.2296 61.7804C24.9223 63.0537 24.6364 64.3985 24.3721 65.8148C24.1282 67.2249 23.8895 68.8006 23.6561 70.5417C23.4166 72.2624 23.1487 74.2591 22.8524 76.5315C22.8078 76.9014 22.6334 77.2101 22.3292 77.4577C22.0454 77.699 21.7605 77.8628 21.4745 77.9489C21.1885 78.0349 20.9351 78.0444 20.7144 77.9771C20.4936 77.9099 20.3801 77.7547 20.3737 77.5116C20.6589 76.5346 20.9204 75.3308 21.1581 73.9002C21.3959 72.4697 21.5998 70.9267 21.7699 69.2714C21.9544 67.5896 22.0846 65.9129 22.1607 64.2413C22.2511 62.5432 22.2875 60.9616 22.2698 59.4966C22.2459 58.0111 22.1549 56.7463 21.9966 55.7023C21.9391 55.3631 21.8775 55.0475 21.8118 54.7554C21.7462 54.4632 21.6734 54.1844 21.5934 53.9188C21.12 52.3458 20.4447 51.3238 19.5677 50.8525C18.7111 50.3752 17.7619 50.2933 16.72 50.6069C15.8416 50.8713 14.943 51.3646 14.0241 52.0867C13.1196 52.7823 12.2407 53.6372 11.3875 54.6515C10.5547 55.6596 9.79666 56.7678 9.11324 57.9761C8.42367 59.1639 7.86798 60.3894 7.44616 61.6526C7.01819 62.8954 6.77001 64.1063 6.70162 65.2854C6.66356 66.1211 6.67756 66.9078 6.74362 67.6454C6.82397 68.3564 6.9533 69.0082 7.13161 69.6006C7.47595 70.7445 7.9723 71.6534 8.62066 72.3271C9.28945 72.9947 10.0326 73.4282 10.8501 73.6277C11.6881 73.821 12.5156 73.7947 13.3327 73.5488C13.6187 73.4627 13.9261 73.3368 14.255 73.1709C14.5981 72.9786 14.8799 72.8046 15.1004 72.6491C15.6252 72.2461 16.0927 71.7266 16.5028 71.0908C16.9068 70.4345 17.228 69.7251 17.4663 68.9628C17.7047 68.2004 17.8481 67.4554 17.8965 66.7279C17.9448 66.0005 17.8829 65.3507 17.7108 64.7787C17.5325 64.1863 17.2215 63.7453 16.7778 63.4555C16.3341 63.1658 15.7548 63.1285 15.0398 63.3437C14.9581 63.3683 14.8692 63.4062 14.7732 63.4573C14.6915 63.4819 14.5996 63.5096 14.4975 63.5403L14.4055 63.568C14.2626 63.6111 14.1236 63.6306 13.9888 63.6266C13.8477 63.6022 13.7649 63.5492 13.7403 63.4675C13.7157 63.3858 13.7902 63.2631 13.9638 63.0995C14.1577 62.9297 14.5407 62.7587 15.1127 62.5866C16.0319 62.3099 16.7993 62.3797 17.4147 62.7959C18.0444 63.1856 18.4853 63.7993 18.7374 64.6368C18.9649 65.3926 19.0066 66.2713 18.8625 67.2726C18.7183 68.274 18.3576 69.296 17.7802 70.3387C17.2029 71.3813 16.3681 72.3455 15.2757 73.2313C14.6264 73.7387 13.9544 74.0969 13.2599 74.3059C12.2385 74.6134 11.1913 74.6501 10.1183 74.4161C9.03919 74.1616 8.06913 73.6405 7.20816 72.8525C6.34103 72.0441 5.70763 70.976 5.30795 69.6482C5.12964 69.0558 5.00338 68.4143 4.92919 67.7237C4.86927 67.0065 4.88492 66.2444 4.97613 65.4371C5.1768 63.6613 5.64928 61.9373 6.39357 60.2651C7.15215 58.5664 8.08863 57.0146 9.20302 55.6098C10.3112 54.1846 11.5075 52.9779 12.7919 51.9898C14.0763 51.0016 15.3415 50.32 16.5876 49.945C18.0993 49.4899 19.4807 49.5643 20.7318 50.168C22.0033 50.7655 22.9403 52.0653 23.5429 54.0672C23.586 54.2102 23.6342 54.4073 23.6875 54.6586C23.7552 54.8833 23.7972 55.06 23.8137 55.1888C24.0047 56.2675 24.1038 57.3739 24.111 58.5079C24.1386 59.6358 24.1232 60.7321 24.0649 61.7968C24.0529 61.9786 24.054 62.1676 24.0685 62.3638C24.0973 62.5334 24.1209 62.6488 24.1393 62.7101C24.1701 62.8122 24.2059 62.8571 24.2467 62.8448C24.3285 62.8202 24.4273 62.5566 24.5433 62.0538C24.7549 61.0544 24.9493 60.1827 25.1264 59.4388C25.3177 58.6682 25.5173 57.9621 25.7252 57.3203C25.933 56.6785 26.1684 56.0172 26.4314 55.3365C26.6943 54.6559 27.0001 53.8954 27.3488 53.0553C27.7546 52.1089 28.2984 51.2879 28.9802 50.5926C29.662 49.8972 30.3809 49.4358 31.1367 49.2083C31.8108 49.0054 32.4505 49.0579 33.0556 49.3659C33.6607 49.6739 34.1262 50.3692 34.4521 51.4519C34.489 51.5745 34.5197 51.6766 34.5443 51.7583C34.5689 51.84 34.5956 51.9657 34.6244 52.1353C35.0308 54.1517 35.2237 56.199 35.2032 58.2771C35.1764 60.3348 35.1354 62.419 35.0802 64.5299C35.4183 63.3587 35.9012 61.8544 36.5289 60.0168C37.1565 58.1792 37.871 56.2599 38.6722 54.2587C39.6548 51.8241 40.6727 49.9137 41.7258 48.5273C42.7789 47.1409 43.7447 46.3156 44.6231 46.0512C45.7262 45.7191 46.4807 46.2272 46.8865 47.5755C47.0402 48.0862 47.1225 48.7298 47.1335 49.5062C47.1648 50.2766 47.0961 51.1216 46.9274 52.0412C46.7485 53.0753 46.5616 54.2678 46.3667 55.6186C46.186 56.9429 46.0443 58.3223 45.9414 59.7568C45.8385 61.1914 45.8111 62.5809 45.8594 63.9254C45.9219 65.2433 46.1099 66.4232 46.4235 67.465C46.7617 68.5885 47.2907 69.4207 48.0104 69.9615C48.7568 70.5167 49.7673 70.5801 51.0419 70.1519L51.2258 70.0965C51.5322 70.0043 51.7039 70.0195 51.7408 70.142C51.7654 70.2237 51.6878 70.3362 51.5081 70.4794C51.3284 70.6226 51.0486 70.7291 50.6686 70.7989ZM57.0797 65.1264C56.8611 65.2144 56.5904 65.2402 56.2675 65.2037C55.9446 65.1672 55.6216 65.0194 55.2986 64.7602C54.9959 64.4948 54.7554 64.0659 54.5771 63.4735C54.4295 62.9833 54.3431 62.3632 54.3179 61.6133C54.1896 62.0752 54.0175 62.6506 53.8015 63.3394C53.5794 64.0078 53.3082 64.6241 52.9879 65.1883C52.7105 65.6729 52.4227 66.0491 52.1246 66.3171C51.8265 66.585 51.5345 66.762 51.2485 66.8481C50.7174 67.008 50.2177 66.9022 49.7494 66.5307C49.275 66.1389 48.9209 65.5548 48.6873 64.7785C48.4413 63.9614 48.3658 62.9704 48.4608 61.8056C48.5558 60.6408 48.8938 59.3583 49.4749 57.9581C49.8521 57.0648 50.3949 56.2776 51.1033 55.5965C51.826 54.8888 52.5959 54.412 53.413 54.1661C53.8829 54.0246 54.3569 53.9711 54.8351 54.0054C55.3071 54.0192 55.7588 54.1506 56.1902 54.3995C56.3762 54.4995 56.4969 54.6414 56.5522 54.8252C56.5891 54.9478 56.5688 55.0653 56.4913 55.1778C56.4137 55.2902 56.2871 55.3506 56.1114 55.3589C55.6715 54.7116 55.0838 54.4986 54.3484 54.72C54.0011 54.8245 53.6366 55.0568 53.2548 55.4167C52.6709 55.9935 52.1271 56.8144 51.6234 57.8795C51.1401 58.9384 50.7579 60.0002 50.4769 61.0651C50.4321 61.2123 50.37 61.4872 50.2907 61.8898C50.2318 62.2862 50.1852 62.7236 50.1509 63.2017C50.1166 63.6799 50.1303 64.1325 50.192 64.5595C50.2085 64.6882 50.2259 64.7832 50.2444 64.8445C50.2567 64.8854 50.2782 64.9569 50.3089 65.059C50.5118 65.7331 50.8687 65.9933 51.3794 65.8396C51.9922 65.6551 52.5515 64.9967 53.0572 63.8642C53.3916 63.0506 53.6656 62.2218 53.8794 61.3777C54.0932 60.5336 54.3018 59.6353 54.5053 58.6829C54.6457 58.0391 54.7933 57.4934 54.9482 57.0458C55.1031 56.5982 55.4257 56.3005 55.9159 56.153C56.1406 56.0853 56.3746 56.0483 56.6177 56.042C56.8609 56.0356 57.0989 55.9751 57.3317 55.8605C57.2175 56.0731 57.085 56.4472 56.9343 56.9827C56.804 57.512 56.6717 58.1088 56.5375 58.773C56.4032 59.4372 56.3027 60.1024 56.2359 60.7686C56.169 61.4348 56.1491 61.9978 56.1761 62.4575C56.1926 62.5863 56.2142 62.7691 56.241 63.0061C56.2882 63.237 56.3272 63.4035 56.3579 63.5056C56.5301 64.0776 56.7796 64.3144 57.1064 64.216C57.4333 64.1176 57.7221 63.819 57.973 63.3202C58.2443 62.8153 58.4777 62.2215 58.6733 61.5388C58.8688 60.8561 59.0337 60.1827 59.168 59.5185C59.2961 58.8338 59.3967 58.28 59.4699 57.8569C59.4901 57.6281 59.5819 57.489 59.7454 57.4398C59.8475 57.4091 59.9201 57.4652 59.9631 57.6082C59.9816 57.6695 59.9848 57.7911 59.9727 57.973C59.8812 58.5574 59.7603 59.2288 59.6098 59.987C59.4531 60.7248 59.2627 61.4616 59.0386 62.1974C58.8084 62.9128 58.53 63.5424 58.2036 64.0863C57.8914 64.6035 57.5168 64.9502 57.0797 65.1264ZM64.8615 62.7172C64.4734 62.834 64.0392 62.7976 63.5588 62.608C63.0723 62.398 62.7214 61.9355 62.5062 61.2205C62.3402 60.669 62.2824 59.9958 62.3327 59.2008C62.3688 58.4325 62.4927 57.66 62.7045 56.8833C62.9368 56.1005 63.0833 55.4771 63.1442 55.0132C63.1563 54.8314 63.1439 54.6792 63.107 54.5566C62.9963 54.1889 62.6814 53.994 62.1624 53.972C61.6638 53.9439 61.0437 54.0303 60.3022 54.2312L60.2388 55.3531C60.2109 56.0744 60.1248 56.9357 59.9807 57.9371C59.8569 58.9324 59.6729 59.9123 59.4286 60.877C59.2047 61.8356 58.9112 62.6368 58.5481 63.2808C58.5195 63.334 58.4746 63.3698 58.4133 63.3882C58.3316 63.4128 58.2651 63.3771 58.214 63.2811C58.1424 63.1913 58.1463 63.0564 58.2259 62.8765C58.7028 61.5745 59.0642 60.1846 59.3101 58.7071C59.5499 57.2091 59.6813 55.7214 59.7045 54.244C59.7481 52.7605 59.6999 51.416 59.5598 50.2105C59.5227 49.8652 59.5644 49.5965 59.6847 49.4043C59.799 49.1917 59.948 49.0577 60.1319 49.0024C60.3974 48.9224 60.6825 48.9814 60.9872 49.1794C61.2857 49.3569 61.5056 49.6805 61.647 50.1504C61.6716 50.2321 61.6891 50.3271 61.6994 50.4354C61.7302 50.5375 61.7507 50.6427 61.761 50.751C61.8084 51.2046 61.6863 51.687 61.3945 52.1981C61.1171 52.6826 60.8834 53.0537 60.6937 53.3113C60.9041 53.2703 61.1247 53.2261 61.3556 53.1789C61.5803 53.1113 61.8254 53.0375 62.091 52.9576C63.0511 52.6686 63.9826 52.3214 64.8854 51.9159C64.9631 52.0262 65.0112 52.112 65.0296 52.1733C65.1096 52.4388 65.1293 52.8005 65.0889 53.2583C65.0689 53.7099 65.0263 54.1237 64.9613 54.4997C64.9349 54.7082 64.8729 55.0944 64.7754 55.6585C64.6717 56.2021 64.569 56.8234 64.4675 57.5223C64.3598 58.2008 64.293 58.867 64.2671 59.5209C64.2554 60.1482 64.311 60.6662 64.434 61.0747C64.5939 61.6058 64.8781 61.8099 65.2866 61.6869C65.5931 61.5947 65.8717 61.2992 66.1226 60.8004C66.3673 60.2811 66.5772 59.6833 66.7523 59.0068C66.9417 58.3037 67.0964 57.6333 67.2164 56.9957C67.3506 56.3314 67.4503 55.8113 67.5153 55.4353C67.5355 55.2064 67.6172 55.0704 67.7602 55.0274C67.8419 55.0028 67.9042 55.062 67.9473 55.205C67.9719 55.2867 67.9781 55.4185 67.966 55.6004C67.8828 56.1379 67.7771 56.7489 67.649 57.4336C67.5209 58.1182 67.3488 58.8049 67.1329 59.4937C66.9373 60.1764 66.6794 60.7999 66.3591 61.3641C66.0531 61.9018 65.6632 62.3088 65.1894 62.5851C65.1342 62.624 65.025 62.668 64.8615 62.7172ZM70.0541 71.7812C68.1135 72.3653 66.9033 71.8607 66.4237 70.2673C66.1962 69.5115 66.2589 68.7574 66.6117 68.0052C66.9645 67.2529 67.4441 66.5516 68.0503 65.9012C68.8873 64.9809 69.7305 64.1924 70.5799 63.5358C71.4293 62.8791 72.24 62.2786 73.0119 61.7343C73.8104 61.2044 74.5485 60.6591 75.2264 60.0986C75.2682 58.9053 75.1721 57.6977 74.938 56.476C74.8149 55.8447 74.6856 55.3044 74.5504 54.855C74.4089 54.3851 74.2861 54.0879 74.1817 53.9634C74.0862 54.46 73.9467 55.0701 73.7635 55.7936C73.5803 56.5171 73.3429 57.2458 73.0514 57.9796C72.7537 58.693 72.3875 59.3268 71.9527 59.881C71.5384 60.429 71.0453 60.789 70.4733 60.9612C70.269 61.0227 70.0658 61.0505 69.8635 61.0445C69.2177 60.9716 68.6944 60.7503 68.2935 60.3809C67.9131 60.0052 67.6368 59.5314 67.4647 58.9594C67.188 58.0402 67.1553 56.9695 67.3667 55.7474C67.5781 54.5252 67.9193 53.3643 68.3903 52.2645C68.7675 51.3712 69.2899 50.5902 69.9575 49.9214C70.625 49.2526 71.3674 48.7952 72.1845 48.5493C73.1242 48.2664 74.0979 48.3187 75.1056 48.706C75.4858 48.8589 75.719 49.0783 75.8051 49.3643C75.8973 49.6707 75.8208 49.8608 75.5757 49.9346C75.3714 49.9961 75.1885 49.9064 75.0268 49.6654C74.5133 48.9957 73.9399 48.7561 73.3067 48.9467C72.796 49.1004 72.2814 49.5004 71.763 50.1465C71.2384 50.7723 70.7885 51.4981 70.4133 52.324C70.089 53.0231 69.7996 53.8009 69.545 54.6573C69.3108 55.5075 69.145 56.326 69.0476 57.1128C68.9707 57.8935 69.0091 58.5391 69.1628 59.0498C69.2673 59.3971 69.4382 59.6687 69.6754 59.8647C69.9126 60.0606 70.2049 60.1063 70.5521 60.0018C71.022 59.8604 71.4446 59.4881 71.82 58.8849C72.2159 58.2757 72.5504 57.5735 72.8234 56.7783C73.117 55.9771 73.3359 55.1871 73.4803 54.4085C73.645 53.6236 73.7313 52.985 73.739 52.4926C73.7406 51.9797 73.8486 51.6353 74.063 51.4593C74.2712 51.263 74.4979 51.1279 74.743 51.0541C74.9882 50.9803 75.174 50.8576 75.3005 50.6858C75.5175 51.1106 75.7069 51.5549 75.8688 52.0186C76.0449 52.4557 76.2037 52.9092 76.3451 53.379C76.8186 54.952 77.0908 56.5966 77.1619 58.313C77.4435 57.9163 77.7292 57.4962 78.0189 57.0525C78.323 56.5822 78.5596 56.11 78.7287 55.6358C79.0304 54.7875 79.2177 54.0405 79.2907 53.3947C79.3779 52.7224 79.4438 52.2013 79.4884 51.8314C79.5495 51.5902 79.6516 51.4481 79.7946 51.405C79.9171 51.3682 79.9969 51.411 80.0338 51.5336C80.0645 51.6357 80.0605 51.7706 80.0219 51.9382C79.8371 53.1746 79.647 54.2455 79.4516 55.1508C79.2502 56.0358 78.974 56.8207 78.6232 57.5056C78.2662 58.17 77.7651 58.7998 77.12 59.395C77.0883 60.4739 76.9085 61.6531 76.5807 62.9326C76.2529 64.212 75.7943 65.464 75.2049 66.6885C74.6155 67.913 73.889 68.9783 73.0255 69.8843C72.1681 70.8107 71.1777 71.443 70.0541 71.7812ZM69.1343 71.3897C69.5837 71.2544 70.0228 71.0109 70.4516 70.659C70.9069 70.3215 71.3193 69.9523 71.6888 69.5514C72.0583 69.1506 72.3379 68.8213 72.5277 68.5637C72.8869 68.0546 73.2286 67.4505 73.5529 66.7513C73.8771 66.0522 74.1462 65.3919 74.3602 64.7706C74.5599 64.1758 74.73 63.5565 74.8704 62.9127C75.0374 62.2832 75.1533 61.669 75.2181 61.0703C75.0731 61.1807 74.8904 61.3137 74.6698 61.4692C74.4697 61.6186 74.3247 61.729 74.2349 61.8007C73.6284 62.2283 72.9597 62.7081 72.2286 63.24C71.5242 63.7862 70.8258 64.3529 70.1337 64.94C69.4477 65.5475 68.8424 66.1641 68.3178 66.7898C67.8627 67.3501 67.5465 68.0023 67.3694 68.7462C67.1719 69.4963 67.1439 70.1063 67.2853 70.5761C67.3898 70.9234 67.6016 71.1827 67.9205 71.3541C68.219 71.5316 68.6236 71.5434 69.1343 71.3897ZM87.9012 55.8491C87.6827 55.9372 87.4119 55.9629 87.0891 55.9265C86.7662 55.89 86.4432 55.7421 86.1201 55.4829C85.8174 55.2176 85.5769 54.7887 85.3986 54.1963C85.2511 53.706 85.1647 53.0859 85.1395 52.336C85.0112 52.7979 84.839 53.3733 84.6231 54.0621C84.4009 54.7305 84.1297 55.3468 83.8094 55.9111C83.532 56.3956 83.2442 56.7719 82.9461 57.0398C82.6481 57.3078 82.356 57.4848 82.07 57.5709C81.5389 57.7307 81.0392 57.6249 80.5709 57.2535C80.0965 56.8616 79.7425 56.2775 79.5088 55.5012C79.2629 54.6841 79.1874 53.6932 79.2823 52.5284C79.3773 51.3636 79.7153 50.081 80.2964 48.6808C80.6736 47.7875 81.2164 47.0003 81.9248 46.3192C82.6475 45.6115 83.4175 45.1347 84.2346 44.8888C84.7044 44.7474 85.1784 44.6938 85.6566 44.7281C86.1286 44.742 86.5803 44.8734 87.0117 45.1223C87.1978 45.2222 87.3185 45.3641 87.3738 45.548C87.4107 45.6705 87.3904 45.788 87.3128 45.9005C87.2353 46.013 87.1086 46.0733 86.9329 46.0817C86.493 45.4343 85.9053 45.2213 85.1699 45.4427C84.8227 45.5472 84.4581 45.7795 84.0763 46.1395C83.4925 46.7162 82.9487 47.5371 82.4449 48.6022C81.9616 49.6611 81.5795 50.723 81.2985 51.7878C81.2536 51.935 81.1916 52.2099 81.1122 52.6125C81.0534 53.009 81.0068 53.4463 80.9725 53.9245C80.9382 54.4026 80.9519 54.8552 81.0135 55.2822C81.03 55.411 81.0475 55.506 81.0659 55.5672C81.0782 55.6081 81.0997 55.6796 81.1305 55.7817C81.3334 56.4559 81.6902 56.7161 82.2009 56.5623C82.8137 56.3779 83.373 55.7194 83.8787 54.5869C84.2131 53.7734 84.4872 52.9445 84.7009 52.1004C84.9147 51.2563 85.1233 50.3581 85.3268 49.4057C85.4672 48.7619 85.6149 48.2162 85.7697 47.7685C85.9246 47.3209 86.2472 47.0233 86.7375 46.8757C86.9622 46.8081 87.1961 46.7711 87.4393 46.7647C87.6824 46.7584 87.9204 46.6979 88.1533 46.5832C88.039 46.7958 87.9066 47.1699 87.7558 47.7054C87.6255 48.2348 87.4933 48.8315 87.359 49.4958C87.2248 50.16 87.1242 50.8252 87.0574 51.4914C86.9906 52.1576 86.9707 52.7205 86.9977 53.1803C87.0141 53.309 87.0357 53.4918 87.0625 53.7289C87.1097 53.9597 87.1487 54.1262 87.1795 54.2283C87.3516 54.8003 87.6011 55.0371 87.928 54.9388C88.2548 54.8404 88.5437 54.5418 88.7946 54.043C89.0659 53.538 89.2993 52.9442 89.4948 52.2615C89.6904 51.5789 89.8553 50.9054 89.9895 50.2412C90.1176 49.5566 90.2183 49.0027 90.2914 48.5797C90.3117 48.3508 90.4035 48.2118 90.5669 48.1626C90.669 48.1318 90.7416 48.188 90.7847 48.331C90.8031 48.3922 90.8063 48.5138 90.7942 48.6957C90.7028 49.2802 90.5818 49.9515 90.4313 50.7098C90.2746 51.4476 90.0843 52.1844 89.8602 52.9202C89.6299 53.6356 89.3516 54.2652 89.0251 54.809C88.713 55.3263 88.3383 55.673 87.9012 55.8491ZM95.6831 53.4399C95.295 53.5568 94.8607 53.5204 94.3803 53.3308C93.8938 53.1208 93.543 52.6583 93.3278 51.9433C93.1617 51.3917 93.1039 50.7185 93.1543 49.9236C93.1903 49.1552 93.3143 48.3827 93.5261 47.6061C93.7583 46.8232 93.9048 46.1999 93.9657 45.736C93.9778 45.5541 93.9654 45.4019 93.9285 45.2793C93.8178 44.9116 93.503 44.7168 92.984 44.6948C92.4853 44.6666 91.8653 44.753 91.1237 44.9539L91.0604 46.0758C91.0324 46.7971 90.9464 47.6585 90.8022 48.6599C90.6785 49.6551 90.4945 50.6351 90.2501 51.5997C90.0262 52.5583 89.7327 53.3596 89.3696 54.0035C89.341 54.0567 89.2961 54.0925 89.2348 54.1109C89.1531 54.1355 89.0867 54.0998 89.0355 54.0039C88.9639 53.914 88.9679 53.7791 89.0474 53.5993C89.5244 52.2972 89.8858 50.9074 90.1317 49.4298C90.3714 47.9318 90.5029 46.4441 90.526 44.9667C90.5696 43.4832 90.5214 42.1387 90.3813 40.9333C90.3443 40.588 90.3859 40.3192 90.5063 40.127C90.6205 39.9144 90.7696 39.7805 90.9534 39.7251C91.219 39.6452 91.5041 39.7042 91.8087 39.9021C92.1072 40.0796 92.3272 40.4033 92.4686 40.8731C92.4932 40.9548 92.5106 41.0498 92.521 41.1581C92.5517 41.2603 92.5722 41.3655 92.5825 41.4738C92.63 41.9273 92.5078 42.4097 92.2161 42.9208C91.9386 43.4053 91.705 43.7764 91.5152 44.0341C91.7256 43.993 91.9463 43.9489 92.1771 43.9016C92.4018 43.834 92.647 43.7602 92.9125 43.6803C93.8726 43.3913 94.8041 43.0441 95.7069 42.6387C95.7846 42.749 95.8327 42.8347 95.8512 42.896C95.9311 43.1616 95.9509 43.5232 95.9104 43.981C95.8904 44.4326 95.8479 44.8464 95.7828 45.2224C95.7565 45.4309 95.6945 45.8171 95.5969 46.3812C95.4932 46.9248 95.3906 47.5461 95.2891 48.245C95.1814 48.9235 95.1146 49.5897 95.0886 50.2436C95.0769 50.8709 95.1326 51.3889 95.2555 51.7975C95.4154 52.3286 95.6996 52.5327 96.1082 52.4097C96.4146 52.3174 96.6932 52.0219 96.9441 51.5231C97.1889 51.0039 97.3988 50.406 97.5739 49.7295C97.7633 49.0264 97.9179 48.356 98.0379 47.7184C98.1722 47.0542 98.2718 46.534 98.3369 46.158C98.3571 45.9291 98.4387 45.7932 98.5817 45.7501C98.6634 45.7255 98.7258 45.7847 98.7688 45.9277C98.7934 46.0094 98.7997 46.1412 98.7876 46.3231C98.7043 46.8606 98.5986 47.4716 98.4705 48.1563C98.3424 48.8409 98.1704 49.5277 97.9544 50.2165C97.7589 50.8991 97.5009 51.5226 97.1806 52.0869C96.8746 52.6245 96.4847 53.0315 96.0109 53.3078C95.9558 53.3467 95.8465 53.3907 95.6831 53.4399ZM99.7044 38.6283C99.398 38.7205 99.1119 38.6953 98.8461 38.5525C98.5946 38.3831 98.4228 38.1452 98.3305 37.8388C98.2137 37.4507 98.2655 37.0675 98.4858 36.6893C98.7061 36.311 99.0002 36.0666 99.3679 35.9559C99.6947 35.8575 99.991 35.8797 100.257 36.0225C100.523 36.1653 100.699 36.3797 100.785 36.6657C100.902 37.0538 100.853 37.4472 100.639 37.8459C100.425 38.2445 100.113 38.5053 99.7044 38.6283ZM100.968 51.816C100.212 52.0435 99.6155 51.9889 99.18 51.6522C98.7383 51.295 98.4313 50.8304 98.2592 50.2584C98.1669 49.952 98.1053 49.6364 98.0744 49.3115C98.0577 48.96 98.0605 48.6362 98.0827 48.3399L98.5585 42.4821C98.5706 42.3002 98.5582 42.148 98.5213 42.0255C98.4599 41.8212 98.3565 41.6629 98.2113 41.5507C98.06 41.418 97.9547 41.3272 97.8954 41.2782L99.5622 40.7096C99.8625 40.5969 100.09 40.5732 100.243 40.6385C100.411 40.6772 100.513 40.7578 100.55 40.8803C100.587 41.0029 100.583 41.2491 100.538 41.619L99.793 48.3597C99.793 48.3597 99.7717 48.511 99.7291 48.8134C99.7007 49.0893 99.6886 49.2712 99.6928 49.359C99.7237 49.6839 99.7413 49.8903 99.7455 49.9781C99.7496 50.066 99.7548 50.1201 99.7609 50.1406C99.7671 50.161 99.7917 50.2427 99.8347 50.3857C99.9146 50.6513 100.044 50.8575 100.222 51.0045C100.42 51.1453 100.683 51.1665 101.01 51.0681C101.214 51.0066 101.431 50.8746 101.659 50.6721C101.888 50.4696 102.045 50.2887 102.131 50.1292C102.482 49.4444 102.773 48.5992 103.005 47.5936C103.251 46.5615 103.46 45.5519 103.631 44.5648C103.651 44.3359 103.722 44.203 103.845 44.1661C103.947 44.1354 104.019 44.1915 104.062 44.3345C104.087 44.4162 104.093 44.548 104.081 44.7299C104.006 45.2203 103.911 45.8283 103.795 46.5538C103.679 47.2793 103.502 48.0233 103.264 48.7857C103.039 49.5215 102.744 50.1675 102.376 50.7236C102.009 51.2797 101.54 51.6439 100.968 51.816ZM106.905 50.0288C106.333 50.2009 105.764 50.1606 105.198 49.9077C104.626 49.6344 104.21 49.0688 103.952 48.2108C103.749 47.5367 103.623 46.6725 103.573 45.6181C103.537 44.5372 103.543 43.4103 103.591 42.2374C103.653 41.0379 103.736 39.9436 103.839 38.9545L102.215 39.4433C102.072 39.4864 101.97 39.4057 101.909 39.2015C101.878 39.0993 101.871 39.0012 101.887 38.9072C101.924 38.8071 101.993 38.7416 102.095 38.7109L103.934 38.1575C104.047 37.2767 104.187 36.4102 104.354 35.5579C104.521 34.7057 104.69 33.8974 104.861 33.133C105.085 32.1745 105.401 31.411 105.809 30.8426C106.217 30.2741 106.615 29.9315 107.003 29.8147C107.31 29.7225 107.602 29.7682 107.88 29.9518C108.152 30.115 108.359 30.4316 108.5 30.9014C108.586 31.1874 108.645 31.6042 108.676 32.1518C108.701 32.6789 108.664 33.2583 108.564 33.8898C108.507 34.2188 108.426 34.6888 108.32 35.2999C108.235 35.9048 108.131 36.4485 108.009 36.9308L109.48 36.4881C109.623 36.445 109.725 36.5257 109.787 36.7299C109.811 36.8117 109.818 36.9097 109.808 37.0242C109.792 37.1182 109.743 37.1775 109.661 37.2021L107.853 37.7462C107.607 38.7784 107.283 39.8116 106.882 40.8459C106.48 41.8802 105.956 42.9514 105.309 44.0595C105.303 44.2618 105.301 44.552 105.304 44.93C105.327 45.3019 105.353 45.6839 105.381 46.0762C105.425 46.442 105.453 46.7566 105.465 47.0202C105.498 47.2776 105.515 47.4063 105.515 47.4063C105.533 47.6904 105.576 47.9447 105.644 48.1694C105.773 48.5984 105.971 48.8843 106.236 49.0271C106.496 49.1495 106.758 49.1707 107.024 49.0907C107.187 49.0415 107.345 48.9719 107.496 48.8819C107.641 48.7714 107.794 48.6139 107.955 48.4094C108.516 47.6835 108.93 46.8014 109.197 45.7632C109.484 44.7188 109.709 43.7265 109.872 42.7864C109.921 42.5044 110.006 42.3449 110.129 42.308C110.211 42.2834 110.27 42.3324 110.307 42.455C110.325 42.5163 110.328 42.6378 110.316 42.8197C110.15 43.8947 109.999 44.7643 109.865 45.4285C109.731 46.0927 109.579 46.6619 109.41 47.1361C109.235 47.5899 109.008 48.0591 108.731 48.5436C108.531 48.9157 108.269 49.2285 107.944 49.4822C107.619 49.7359 107.273 49.9181 106.905 50.0288ZM105.803 37.5949L107.366 37.1245C107.492 36.5073 107.6 35.9064 107.692 35.3219C107.804 34.7313 107.885 34.1499 107.935 33.5777C107.98 33.2078 107.992 32.8032 107.971 32.3639C107.95 31.9246 107.906 31.5926 107.838 31.3679C107.746 31.0615 107.629 30.9298 107.486 30.9728C107.383 31.0036 107.258 31.1416 107.109 31.387C106.974 31.6057 106.825 31.9624 106.662 32.4571C106.448 33.0784 106.281 33.853 106.159 34.7808C106.051 35.6821 105.933 36.6201 105.803 37.5949ZM105.259 43.0052C105.667 42.214 106.022 41.3943 106.324 40.546C106.646 39.6916 106.921 38.8291 107.149 37.9584L105.709 38.3919C105.609 39.2461 105.524 40.0737 105.453 40.8748C105.383 41.6759 105.318 42.386 105.259 43.0052ZM118.215 46.7249C117.996 46.813 117.725 46.8388 117.402 46.8023C117.08 46.7658 116.757 46.618 116.433 46.3588C116.131 46.0934 115.89 45.6645 115.712 45.0721C115.564 44.5818 115.478 43.9618 115.453 43.2119C115.324 43.6738 115.152 44.2492 114.936 44.938C114.714 45.6063 114.443 46.2227 114.123 46.7869C113.845 47.2715 113.558 47.6477 113.259 47.9157C112.961 48.1836 112.669 48.3606 112.383 48.4467C111.852 48.6066 111.353 48.5008 110.884 48.1293C110.41 47.7374 110.056 47.1534 109.822 46.3771C109.576 45.56 109.501 44.569 109.596 43.4042C109.691 42.2394 110.029 40.9569 110.61 39.5566C110.987 38.6633 111.53 37.8762 112.238 37.1951C112.961 36.4874 113.731 36.0106 114.548 35.7646C115.018 35.6232 115.492 35.5697 115.97 35.604C116.442 35.6178 116.894 35.7492 117.325 35.9981C117.511 36.0981 117.632 36.24 117.687 36.4238C117.724 36.5464 117.704 36.6639 117.626 36.7763C117.549 36.8888 117.422 36.9492 117.246 36.9575C116.806 36.3102 116.219 36.0972 115.483 36.3186C115.136 36.4231 114.771 36.6553 114.39 37.0153C113.806 37.5921 113.262 38.413 112.758 39.4781C112.275 40.537 111.893 41.5988 111.612 42.6637C111.567 42.8108 111.505 43.0857 111.426 43.4884C111.367 43.8848 111.32 44.3221 111.286 44.8003C111.251 45.2785 111.265 45.7311 111.327 46.1581C111.343 46.2868 111.361 46.3818 111.379 46.4431C111.392 46.484 111.413 46.5555 111.444 46.6576C111.647 47.3317 112.004 47.5919 112.514 47.4382C113.127 47.2537 113.686 46.5953 114.192 45.4628C114.526 44.6492 114.801 43.8204 115.014 42.9763C115.228 42.1322 115.437 41.2339 115.64 40.2815C115.781 39.6377 115.928 39.092 116.083 38.6444C116.238 38.1967 116.561 37.8991 117.051 37.7516C117.276 37.6839 117.509 37.6469 117.753 37.6406C117.996 37.6342 118.234 37.5737 118.467 37.4591C118.352 37.6717 118.22 38.0458 118.069 38.5813C117.939 39.1106 117.807 39.7074 117.672 40.3716C117.538 41.0358 117.438 41.701 117.371 42.3672C117.304 43.0334 117.284 43.5964 117.311 44.0561C117.327 44.1848 117.349 44.3677 117.376 44.6047C117.423 44.8356 117.462 45.0021 117.493 45.1042C117.665 45.6762 117.914 45.913 118.241 45.8146C118.568 45.7162 118.857 45.4176 119.108 44.9188C119.379 44.4139 119.613 43.82 119.808 43.1374C120.004 42.4547 120.169 41.7813 120.303 41.1171C120.431 40.4324 120.532 39.8786 120.605 39.4555C120.625 39.2267 120.717 39.0876 120.88 39.0384C120.982 39.0077 121.055 39.0638 121.098 39.2068C121.116 39.2681 121.12 39.3897 121.108 39.5715C121.016 40.156 120.895 40.8274 120.745 41.5856C120.588 42.3234 120.398 43.0602 120.174 43.796C119.943 44.5114 119.665 45.141 119.338 45.6849C119.026 46.2021 118.652 46.5488 118.215 46.7249Z" fill="#1B1B1B"/>
</svg>
