<svg width="169" height="54" viewBox="0 0 169 54" fill="none" xmlns="http://www.w3.org/2000/svg">
<path d="M39.5723 48C39.3003 48 39.0763 47.912 38.9003 47.736C38.7243 47.56 38.6363 47.336 38.6363 47.064V30.192C38.6363 29.92 38.7243 29.696 38.9003 29.52C39.0763 29.344 39.3003 29.256 39.5723 29.256H44.3723C45.5563 29.256 46.6043 29.52 47.5163 30.048C48.4283 30.56 49.1403 31.272 49.6523 32.184C50.1643 33.096 50.4203 34.152 50.4203 35.352C50.4203 36.52 50.1643 37.56 49.6523 38.472C49.1403 39.368 48.4283 40.08 47.5163 40.608C46.6043 41.12 45.5563 41.376 44.3723 41.376H40.5083V47.064C40.5083 47.336 40.4203 47.56 40.2443 47.736C40.0683 47.912 39.8443 48 39.5723 48ZM40.5083 39.576H44.3723C45.1883 39.576 45.9163 39.4 46.5563 39.048C47.1963 38.68 47.6923 38.176 48.0443 37.536C48.4123 36.896 48.5963 36.168 48.5963 35.352C48.5963 34.504 48.4123 33.76 48.0443 33.12C47.6923 32.48 47.1963 31.976 46.5563 31.608C45.9163 31.24 45.1883 31.056 44.3723 31.056H40.5083V39.576ZM58.5749 48.12C57.2789 48.12 56.1269 47.84 55.1189 47.28C54.1269 46.704 53.3429 45.912 52.7669 44.904C52.2069 43.896 51.9269 42.744 51.9269 41.448C51.9269 40.136 52.1909 38.984 52.7189 37.992C53.2629 36.984 54.0069 36.192 54.9509 35.616C55.8949 35.04 56.9829 34.752 58.2149 34.752C59.4309 34.752 60.4869 35.032 61.3829 35.592C62.2949 36.136 62.9989 36.896 63.4949 37.872C63.9909 38.848 64.2389 39.96 64.2389 41.208C64.2389 41.464 64.1589 41.672 63.9989 41.832C63.8389 41.976 63.6309 42.048 63.3749 42.048H53.6789C53.7749 42.912 54.0389 43.68 54.4709 44.352C54.9029 45.008 55.4709 45.528 56.1749 45.912C56.8789 46.28 57.6789 46.464 58.5749 46.464C59.1509 46.464 59.7269 46.368 60.3029 46.176C60.8949 45.968 61.3669 45.712 61.7189 45.408C61.8949 45.264 62.0949 45.192 62.3189 45.192C62.5429 45.176 62.7349 45.232 62.8949 45.36C63.1029 45.552 63.2069 45.76 63.2069 45.984C63.2229 46.208 63.1349 46.4 62.9429 46.56C62.4149 47.008 61.7429 47.384 60.9269 47.688C60.1109 47.976 59.3269 48.12 58.5749 48.12ZM58.2149 36.408C56.9829 36.408 55.9669 36.792 55.1669 37.56C54.3669 38.312 53.8869 39.296 53.7269 40.512H62.5109C62.3829 39.296 61.9349 38.312 61.1669 37.56C60.4149 36.792 59.4309 36.408 58.2149 36.408ZM68.2771 48C67.6691 48 67.3651 47.696 67.3651 47.088V35.784C67.3651 35.176 67.6691 34.872 68.2771 34.872C68.8851 34.872 69.1891 35.176 69.1891 35.784V36.816C69.6691 36.176 70.2611 35.672 70.9651 35.304C71.6691 34.92 72.4451 34.728 73.2931 34.728C74.0291 34.728 74.5971 34.832 74.9971 35.04C75.3971 35.248 75.5491 35.552 75.4531 35.952C75.3731 36.32 75.1811 36.512 74.8771 36.528C74.5891 36.528 74.2451 36.512 73.8451 36.48C72.9491 36.4 72.1491 36.496 71.4451 36.768C70.7571 37.024 70.2051 37.424 69.7891 37.968C69.3891 38.512 69.1891 39.16 69.1891 39.912V47.088C69.1891 47.696 68.8851 48 68.2771 48ZM83.3483 48.12C82.0523 48.12 80.9003 47.84 79.8923 47.28C78.9003 46.704 78.1163 45.912 77.5403 44.904C76.9803 43.896 76.7003 42.744 76.7003 41.448C76.7003 40.136 76.9643 38.984 77.4923 37.992C78.0363 36.984 78.7803 36.192 79.7243 35.616C80.6683 35.04 81.7563 34.752 82.9883 34.752C84.2043 34.752 85.2603 35.032 86.1563 35.592C87.0683 36.136 87.7723 36.896 88.2683 37.872C88.7643 38.848 89.0123 39.96 89.0123 41.208C89.0123 41.464 88.9323 41.672 88.7723 41.832C88.6123 41.976 88.4043 42.048 88.1483 42.048H78.4523C78.5483 42.912 78.8123 43.68 79.2443 44.352C79.6763 45.008 80.2443 45.528 80.9483 45.912C81.6523 46.28 82.4523 46.464 83.3483 46.464C83.9243 46.464 84.5003 46.368 85.0763 46.176C85.6683 45.968 86.1403 45.712 86.4923 45.408C86.6683 45.264 86.8683 45.192 87.0923 45.192C87.3163 45.176 87.5083 45.232 87.6683 45.36C87.8763 45.552 87.9803 45.76 87.9803 45.984C87.9963 46.208 87.9083 46.4 87.7163 46.56C87.1883 47.008 86.5163 47.384 85.7003 47.688C84.8843 47.976 84.1003 48.12 83.3483 48.12ZM82.9883 36.408C81.7563 36.408 80.7403 36.792 79.9403 37.56C79.1403 38.312 78.6603 39.296 78.5003 40.512H87.2843C87.1563 39.296 86.7083 38.312 85.9403 37.56C85.1883 36.792 84.2043 36.408 82.9883 36.408ZM93.0745 53.616C92.7865 53.616 92.5545 53.528 92.3785 53.352C92.2185 53.192 92.1385 52.968 92.1385 52.68V41.352C92.1545 40.104 92.4505 38.984 93.0265 37.992C93.6185 36.984 94.4105 36.192 95.4025 35.616C96.4105 35.04 97.5385 34.752 98.7865 34.752C100.067 34.752 101.211 35.048 102.219 35.64C103.227 36.216 104.019 37.008 104.595 38.016C105.187 39.024 105.483 40.168 105.483 41.448C105.483 42.712 105.195 43.848 104.619 44.856C104.059 45.864 103.291 46.664 102.315 47.256C101.339 47.832 100.235 48.12 99.0025 48.12C97.9305 48.12 96.9545 47.896 96.0745 47.448C95.2105 46.984 94.5145 46.376 93.9865 45.624V52.68C93.9865 52.968 93.8985 53.192 93.7225 53.352C93.5625 53.528 93.3465 53.616 93.0745 53.616ZM98.7865 46.44C99.7145 46.44 100.547 46.224 101.283 45.792C102.019 45.36 102.595 44.768 103.011 44.016C103.443 43.248 103.659 42.392 103.659 41.448C103.659 40.488 103.443 39.632 103.011 38.88C102.595 38.128 102.019 37.536 101.283 37.104C100.547 36.656 99.7145 36.432 98.7865 36.432C97.8745 36.432 97.0505 36.656 96.3145 37.104C95.5785 37.536 95.0025 38.128 94.5865 38.88C94.1705 39.632 93.9625 40.488 93.9625 41.448C93.9625 42.392 94.1705 43.248 94.5865 44.016C95.0025 44.768 95.5785 45.36 96.3145 45.792C97.0505 46.224 97.8745 46.44 98.7865 46.44ZM115.059 48.12C113.763 48.12 112.611 47.84 111.603 47.28C110.611 46.704 109.827 45.912 109.251 44.904C108.691 43.896 108.411 42.744 108.411 41.448C108.411 40.136 108.675 38.984 109.203 37.992C109.747 36.984 110.491 36.192 111.435 35.616C112.379 35.04 113.467 34.752 114.699 34.752C115.915 34.752 116.971 35.032 117.867 35.592C118.779 36.136 119.483 36.896 119.979 37.872C120.475 38.848 120.723 39.96 120.723 41.208C120.723 41.464 120.643 41.672 120.483 41.832C120.323 41.976 120.115 42.048 119.859 42.048H110.163C110.259 42.912 110.523 43.68 110.955 44.352C111.387 45.008 111.955 45.528 112.659 45.912C113.363 46.28 114.163 46.464 115.059 46.464C115.635 46.464 116.211 46.368 116.787 46.176C117.379 45.968 117.851 45.712 118.203 45.408C118.379 45.264 118.579 45.192 118.803 45.192C119.027 45.176 119.219 45.232 119.379 45.36C119.587 45.552 119.691 45.76 119.691 45.984C119.707 46.208 119.619 46.4 119.427 46.56C118.899 47.008 118.227 47.384 117.411 47.688C116.595 47.976 115.811 48.12 115.059 48.12ZM114.699 36.408C113.467 36.408 112.451 36.792 111.651 37.56C110.851 38.312 110.371 39.296 110.211 40.512H118.995C118.867 39.296 118.419 38.312 117.651 37.56C116.899 36.792 115.915 36.408 114.699 36.408ZM129.237 48.12C127.973 48.12 126.845 47.832 125.853 47.256C124.877 46.664 124.101 45.864 123.525 44.856C122.965 43.848 122.685 42.712 122.685 41.448C122.685 40.168 122.957 39.024 123.501 38.016C124.045 37.008 124.789 36.216 125.733 35.64C126.677 35.048 127.765 34.752 128.997 34.752C130.997 34.752 132.621 35.52 133.869 37.056C134.045 37.248 134.109 37.456 134.061 37.68C134.013 37.888 133.877 38.072 133.653 38.232C133.477 38.36 133.277 38.408 133.053 38.376C132.845 38.328 132.661 38.208 132.501 38.016C131.573 36.96 130.405 36.432 128.997 36.432C128.101 36.432 127.309 36.648 126.621 37.08C125.949 37.512 125.421 38.104 125.037 38.856C124.669 39.608 124.485 40.472 124.485 41.448C124.485 42.408 124.685 43.264 125.085 44.016C125.485 44.768 126.045 45.36 126.765 45.792C127.485 46.224 128.309 46.44 129.237 46.44C130.517 46.44 131.549 46.096 132.333 45.408C132.525 45.248 132.725 45.16 132.933 45.144C133.141 45.128 133.333 45.192 133.509 45.336C133.701 45.512 133.805 45.712 133.821 45.936C133.853 46.16 133.781 46.352 133.605 46.512C132.437 47.584 130.981 48.12 129.237 48.12ZM138.614 48C138.326 48 138.094 47.92 137.918 47.76C137.758 47.584 137.678 47.36 137.678 47.088V35.808C137.678 35.52 137.758 35.296 137.918 35.136C138.094 34.96 138.326 34.872 138.614 34.872C138.886 34.872 139.102 34.96 139.262 35.136C139.438 35.296 139.526 35.52 139.526 35.808V36.624C140.038 36.032 140.67 35.568 141.422 35.232C142.19 34.896 143.014 34.728 143.894 34.728C145.03 34.728 146.046 34.968 146.942 35.448C147.838 35.912 148.542 36.6 149.054 37.512C149.582 38.424 149.846 39.536 149.846 40.848V47.088C149.846 47.344 149.758 47.56 149.582 47.736C149.406 47.912 149.19 48 148.934 48C148.662 48 148.438 47.912 148.262 47.736C148.086 47.56 147.998 47.344 147.998 47.088V40.848C147.998 39.36 147.582 38.264 146.75 37.56C145.934 36.84 144.918 36.48 143.702 36.48C142.918 36.48 142.206 36.632 141.566 36.936C140.942 37.24 140.446 37.656 140.078 38.184C139.71 38.712 139.526 39.312 139.526 39.984V47.088C139.526 47.36 139.438 47.584 139.262 47.76C139.102 47.92 138.886 48 138.614 48ZM138.614 42.648C138.326 42.648 138.094 42.56 137.918 42.384C137.758 42.208 137.678 41.984 137.678 41.712V30.192C137.678 29.904 137.758 29.68 137.918 29.52C138.094 29.344 138.326 29.256 138.614 29.256C138.886 29.256 139.102 29.344 139.262 29.52C139.438 29.68 139.526 29.904 139.526 30.192V41.712C139.526 41.984 139.438 42.208 139.262 42.384C139.102 42.56 138.886 42.648 138.614 42.648ZM159.896 48.12C158.616 48.12 157.472 47.832 156.464 47.256C155.456 46.68 154.664 45.888 154.088 44.88C153.512 43.872 153.224 42.728 153.224 41.448C153.224 40.152 153.512 39 154.088 37.992C154.664 36.984 155.456 36.192 156.464 35.616C157.472 35.04 158.616 34.752 159.896 34.752C161.176 34.752 162.312 35.04 163.304 35.616C164.312 36.192 165.104 36.984 165.68 37.992C166.256 39 166.552 40.152 166.568 41.448C166.568 42.728 166.272 43.872 165.68 44.88C165.104 45.888 164.312 46.68 163.304 47.256C162.312 47.832 161.176 48.12 159.896 48.12ZM159.896 46.44C160.824 46.44 161.656 46.224 162.392 45.792C163.128 45.36 163.704 44.768 164.12 44.016C164.536 43.264 164.744 42.408 164.744 41.448C164.744 40.488 164.536 39.632 164.12 38.88C163.704 38.112 163.128 37.512 162.392 37.08C161.656 36.648 160.824 36.432 159.896 36.432C158.968 36.432 158.136 36.648 157.4 37.08C156.664 37.512 156.08 38.112 155.648 38.88C155.232 39.632 155.024 40.488 155.024 41.448C155.024 42.408 155.232 43.264 155.648 44.016C156.08 44.768 156.664 45.36 157.4 45.792C158.136 46.224 158.968 46.44 159.896 46.44Z" fill="#26001B"/>
<path d="M39.5723 21C39.3163 21 39.0923 20.912 38.9003 20.736C38.7243 20.544 38.6363 20.32 38.6363 20.064V3.192C38.6363 2.92 38.7243 2.696 38.9003 2.52C39.0923 2.344 39.3163 2.256 39.5723 2.256C39.9563 2.256 40.2363 2.416 40.4123 2.736L48.0923 18L55.6283 2.736C55.8203 2.416 56.1003 2.256 56.4683 2.256C56.7243 2.256 56.9403 2.344 57.1163 2.52C57.2923 2.696 57.3803 2.92 57.3803 3.192V20.064C57.3803 20.32 57.2923 20.544 57.1163 20.736C56.9403 20.912 56.7243 21 56.4683 21C56.1963 21 55.9643 20.912 55.7723 20.736C55.5963 20.544 55.5083 20.32 55.5083 20.064V6.48L48.8363 20.112C48.6603 20.416 48.3883 20.568 48.0203 20.568C47.6203 20.568 47.3323 20.376 47.1563 19.992L40.5083 6.696V20.064C40.5083 20.32 40.4123 20.544 40.2203 20.736C40.0443 20.912 39.8283 21 39.5723 21ZM67.735 21.12C66.503 21.12 65.399 20.832 64.423 20.256C63.447 19.664 62.671 18.864 62.095 17.856C61.535 16.848 61.255 15.712 61.255 14.448C61.255 13.168 61.543 12.024 62.119 11.016C62.711 10.008 63.511 9.216 64.519 8.64C65.527 8.048 66.663 7.752 67.927 7.752C69.191 7.752 70.319 8.048 71.311 8.64C72.319 9.216 73.111 10.008 73.687 11.016C74.279 12.024 74.583 13.168 74.599 14.448V20.088C74.599 20.36 74.511 20.584 74.335 20.76C74.159 20.92 73.935 21 73.663 21C73.391 21 73.167 20.92 72.991 20.76C72.815 20.584 72.727 20.36 72.727 20.088V18.624C72.183 19.392 71.479 20 70.615 20.448C69.751 20.896 68.791 21.12 67.735 21.12ZM67.927 19.44C68.855 19.44 69.679 19.224 70.399 18.792C71.135 18.36 71.711 17.768 72.127 17.016C72.559 16.248 72.775 15.392 72.775 14.448C72.775 13.488 72.559 12.632 72.127 11.88C71.711 11.128 71.135 10.536 70.399 10.104C69.679 9.656 68.855 9.432 67.927 9.432C67.015 9.432 66.191 9.656 65.455 10.104C64.719 10.536 64.135 11.128 63.703 11.88C63.271 12.632 63.055 13.488 63.055 14.448C63.055 15.392 63.271 16.248 63.703 17.016C64.135 17.768 64.719 18.36 65.455 18.792C66.191 19.224 67.015 19.44 67.927 19.44ZM79.1052 21C78.4972 21 78.1932 20.696 78.1932 20.088V8.784C78.1932 8.176 78.4972 7.872 79.1052 7.872C79.7132 7.872 80.0172 8.176 80.0172 8.784V9.816C80.4972 9.176 81.0892 8.672 81.7932 8.304C82.4972 7.92 83.2732 7.728 84.1212 7.728C84.8572 7.728 85.4252 7.832 85.8252 8.04C86.2252 8.248 86.3772 8.552 86.2812 8.952C86.2012 9.32 86.0092 9.512 85.7052 9.528C85.4172 9.528 85.0732 9.512 84.6732 9.48C83.7772 9.4 82.9772 9.496 82.2732 9.768C81.5852 10.024 81.0332 10.424 80.6172 10.968C80.2172 11.512 80.0172 12.16 80.0172 12.912V20.088C80.0172 20.696 79.7132 21 79.1052 21ZM94.0085 21.12C92.7445 21.12 91.6245 20.84 90.6485 20.28C89.6725 19.704 88.9045 18.912 88.3445 17.904C87.8005 16.896 87.5285 15.744 87.5285 14.448C87.5285 13.136 87.8165 11.976 88.3925 10.968C88.9685 9.96 89.7605 9.176 90.7685 8.616C91.7765 8.04 92.9205 7.752 94.2005 7.752C95.4965 7.752 96.6405 8.04 97.6325 8.616C98.6405 9.176 99.4245 9.96 99.9845 10.968C100.56 11.976 100.856 13.136 100.872 14.448V19.344C100.872 20.64 100.584 21.8 100.008 22.824C99.4325 23.864 98.6485 24.68 97.6565 25.272C96.6645 25.88 95.5285 26.184 94.2485 26.184C92.9845 26.184 91.8725 25.944 90.9125 25.464C89.9525 25 89.1605 24.36 88.5365 23.544C88.3605 23.352 88.2805 23.144 88.2965 22.92C88.3285 22.696 88.4485 22.512 88.6565 22.368C88.8645 22.224 89.0965 22.176 89.3525 22.224C89.6085 22.272 89.8085 22.392 89.9525 22.584C90.4165 23.16 91.0085 23.624 91.7285 23.976C92.4645 24.328 93.3125 24.504 94.2725 24.504C95.1685 24.504 95.9765 24.288 96.6965 23.856C97.4165 23.424 97.9845 22.816 98.4005 22.032C98.8325 21.248 99.0485 20.328 99.0485 19.272V18.168C98.5685 19.08 97.8885 19.8 97.0085 20.328C96.1445 20.856 95.1445 21.12 94.0085 21.12ZM94.2005 19.44C95.1445 19.44 95.9765 19.232 96.6965 18.816C97.4325 18.384 98.0085 17.792 98.4245 17.04C98.8405 16.288 99.0485 15.424 99.0485 14.448C99.0485 13.472 98.8405 12.608 98.4245 11.856C98.0085 11.088 97.4325 10.496 96.6965 10.08C95.9765 9.648 95.1445 9.432 94.2005 9.432C93.2565 9.432 92.4165 9.648 91.6805 10.08C90.9445 10.496 90.3685 11.088 89.9525 11.856C89.5365 12.608 89.3285 13.472 89.3285 14.448C89.3285 15.424 89.5365 16.288 89.9525 17.04C90.3685 17.792 90.9445 18.384 91.6805 18.816C92.4165 19.232 93.2565 19.44 94.2005 19.44ZM110.251 21.12C109.019 21.12 107.915 20.832 106.939 20.256C105.963 19.664 105.187 18.864 104.611 17.856C104.051 16.848 103.771 15.712 103.771 14.448C103.771 13.168 104.059 12.024 104.635 11.016C105.227 10.008 106.027 9.216 107.035 8.64C108.043 8.048 109.179 7.752 110.443 7.752C111.707 7.752 112.835 8.048 113.827 8.64C114.835 9.216 115.627 10.008 116.203 11.016C116.795 12.024 117.099 13.168 117.115 14.448V20.088C117.115 20.36 117.027 20.584 116.851 20.76C116.675 20.92 116.451 21 116.179 21C115.907 21 115.683 20.92 115.507 20.76C115.331 20.584 115.243 20.36 115.243 20.088V18.624C114.699 19.392 113.995 20 113.131 20.448C112.267 20.896 111.307 21.12 110.251 21.12ZM110.443 19.44C111.371 19.44 112.195 19.224 112.915 18.792C113.651 18.36 114.227 17.768 114.643 17.016C115.075 16.248 115.291 15.392 115.291 14.448C115.291 13.488 115.075 12.632 114.643 11.88C114.227 11.128 113.651 10.536 112.915 10.104C112.195 9.656 111.371 9.432 110.443 9.432C109.531 9.432 108.707 9.656 107.971 10.104C107.235 10.536 106.651 11.128 106.219 11.88C105.787 12.632 105.571 13.488 105.571 14.448C105.571 15.392 105.787 16.248 106.219 17.016C106.651 17.768 107.235 18.36 107.971 18.792C108.707 19.224 109.531 19.44 110.443 19.44ZM121.621 21C121.013 21 120.709 20.696 120.709 20.088V8.784C120.709 8.176 121.013 7.872 121.621 7.872C122.229 7.872 122.533 8.176 122.533 8.784V9.816C123.013 9.176 123.605 8.672 124.309 8.304C125.013 7.92 125.789 7.728 126.637 7.728C127.373 7.728 127.941 7.832 128.341 8.04C128.741 8.248 128.893 8.552 128.797 8.952C128.717 9.32 128.525 9.512 128.221 9.528C127.933 9.528 127.589 9.512 127.189 9.48C126.293 9.4 125.493 9.496 124.789 9.768C124.101 10.024 123.549 10.424 123.133 10.968C122.733 11.512 122.533 12.16 122.533 12.912V20.088C122.533 20.696 122.229 21 121.621 21ZM133.021 21C132.733 21 132.501 20.92 132.325 20.76C132.165 20.584 132.085 20.352 132.085 20.064V8.808C132.085 8.52 132.165 8.296 132.325 8.136C132.501 7.96 132.733 7.872 133.021 7.872C133.293 7.872 133.509 7.96 133.669 8.136C133.845 8.296 133.933 8.52 133.933 8.808V20.064C133.933 20.352 133.845 20.584 133.669 20.76C133.509 20.92 133.293 21 133.021 21ZM132.997 5.376C132.645 5.376 132.341 5.248 132.085 4.992C131.829 4.736 131.701 4.424 131.701 4.056C131.701 3.656 131.829 3.344 132.085 3.12C132.357 2.88 132.669 2.76 133.021 2.76C133.357 2.76 133.653 2.88 133.909 3.12C134.181 3.344 134.317 3.656 134.317 4.056C134.317 4.424 134.189 4.736 133.933 4.992C133.677 5.248 133.365 5.376 132.997 5.376ZM143.775 21C142.927 21 142.167 20.8 141.495 20.4C140.839 20 140.319 19.456 139.935 18.768C139.551 18.064 139.359 17.264 139.359 16.368V9.96H137.799C137.559 9.96 137.359 9.888 137.199 9.744C137.039 9.584 136.959 9.392 136.959 9.168C136.959 8.928 137.039 8.736 137.199 8.592C137.359 8.432 137.559 8.352 137.799 8.352H139.359V4.632C139.359 4.36 139.439 4.136 139.599 3.96C139.775 3.784 139.999 3.696 140.271 3.696C140.543 3.696 140.767 3.784 140.943 3.96C141.119 4.136 141.207 4.36 141.207 4.632V8.352H143.919C144.159 8.352 144.359 8.432 144.519 8.592C144.679 8.736 144.759 8.928 144.759 9.168C144.759 9.392 144.679 9.584 144.519 9.744C144.359 9.888 144.159 9.96 143.919 9.96H141.207V16.368C141.207 17.184 141.447 17.856 141.927 18.384C142.407 18.896 143.023 19.152 143.775 19.152H144.423C144.679 19.152 144.887 19.24 145.047 19.416C145.207 19.592 145.287 19.816 145.287 20.088C145.287 20.36 145.191 20.584 144.999 20.76C144.807 20.92 144.567 21 144.279 21H143.775ZM154.079 21.12C152.847 21.12 151.743 20.832 150.767 20.256C149.791 19.664 149.015 18.864 148.439 17.856C147.879 16.848 147.599 15.712 147.599 14.448C147.599 13.168 147.887 12.024 148.463 11.016C149.055 10.008 149.855 9.216 150.863 8.64C151.871 8.048 153.007 7.752 154.271 7.752C155.535 7.752 156.663 8.048 157.655 8.64C158.663 9.216 159.455 10.008 160.031 11.016C160.623 12.024 160.927 13.168 160.943 14.448V20.088C160.943 20.36 160.855 20.584 160.679 20.76C160.503 20.92 160.279 21 160.007 21C159.735 21 159.511 20.92 159.335 20.76C159.159 20.584 159.071 20.36 159.071 20.088V18.624C158.527 19.392 157.823 20 156.959 20.448C156.095 20.896 155.135 21.12 154.079 21.12ZM154.271 19.44C155.199 19.44 156.023 19.224 156.743 18.792C157.479 18.36 158.055 17.768 158.471 17.016C158.903 16.248 159.119 15.392 159.119 14.448C159.119 13.488 158.903 12.632 158.471 11.88C158.055 11.128 157.479 10.536 156.743 10.104C156.023 9.656 155.199 9.432 154.271 9.432C153.359 9.432 152.535 9.656 151.799 10.104C151.063 10.536 150.479 11.128 150.047 11.88C149.615 12.632 149.399 13.488 149.399 14.448C149.399 15.392 149.615 16.248 150.047 17.016C150.479 17.768 151.063 18.36 151.799 18.792C152.535 19.224 153.359 19.44 154.271 19.44Z" fill="#FF005C"/>
<ellipse cx="22.2879" cy="21.9148" rx="10.1503" ry="10.2414" transform="rotate(-24.9801 22.2879 21.9148)" fill="#26001B"/>
<ellipse cx="16.409" cy="32.1858" rx="10.1503" ry="10.2414" transform="rotate(-24.9801 16.409 32.1858)" fill="#FF005C"/>
</svg>
