<svg width="65" height="75" viewBox="0 0 65 75" fill="none" xmlns="http://www.w3.org/2000/svg">
<path d="M6.864 38C6.288 38 5.792 37.808 5.376 37.424C4.992 37.008 4.8 36.512 4.8 35.936V2.576C4.8 1.968 4.992 1.472 5.376 1.088C5.792 0.703999 6.288 0.511999 6.864 0.511999C7.696 0.511999 8.304 0.863998 8.688 1.568L24.528 33.104H22.944L38.448 1.568C38.864 0.863998 39.472 0.511999 40.272 0.511999C40.848 0.511999 41.328 0.703999 41.712 1.088C42.096 1.472 42.288 1.968 42.288 2.576V35.936C42.288 36.512 42.096 37.008 41.712 37.424C41.328 37.808 40.848 38 40.272 38C39.664 38 39.152 37.808 38.736 37.424C38.352 37.008 38.16 36.512 38.16 35.936V8.048L39.024 8L25.344 35.936C24.96 36.608 24.368 36.944 23.568 36.944C22.704 36.944 22.064 36.528 21.648 35.696L7.968 8.288L8.928 8.048V35.936C8.928 36.512 8.72 37.008 8.304 37.424C7.92 37.808 7.44 38 6.864 38Z" fill="#EC255A"/>
<path d="M40.1638 67C39.5558 67 39.0598 66.808 38.6758 66.424C38.2918 66.04 38.0998 65.544 38.0998 64.936V31.576C38.0998 30.968 38.2918 30.472 38.6758 30.088C39.0598 29.704 39.5558 29.512 40.1638 29.512H49.7638C52.1318 29.512 54.2278 30.04 56.0518 31.096C57.9078 32.12 59.3478 33.56 60.3718 35.416C61.3958 37.24 61.9078 39.368 61.9078 41.8C61.9078 44.136 61.3958 46.216 60.3718 48.04C59.3478 49.832 57.9078 51.256 56.0518 52.312C54.2278 53.336 52.1318 53.848 49.7638 53.848H42.2278V64.936C42.2278 65.544 42.0358 66.04 41.6518 66.424C41.2678 66.808 40.7718 67 40.1638 67ZM42.2278 49.912H49.7638C51.3318 49.912 52.7238 49.576 53.9398 48.904C55.1878 48.2 56.1638 47.24 56.8678 46.024C57.5718 44.776 57.9238 43.368 57.9238 41.8C57.9238 40.136 57.5718 38.68 56.8678 37.432C56.1958 36.184 55.2358 35.208 53.9878 34.504C52.7398 33.768 51.3318 33.4 49.7638 33.4H42.2278V49.912Z" fill="#FFE500"/>
</svg>
