<svg width="220" height="135" viewBox="0 0 220 135" fill="none" xmlns="http://www.w3.org/2000/svg">
<path d="M9.33514 99.3052C10.3911 99.3052 11.2191 99.4252 11.8191 99.6652C12.4431 99.8812 13.0791 100.205 13.7271 100.637C14.2551 100.973 14.6631 101.141 14.9511 101.141C15.1671 101.141 15.3351 101.021 15.4551 100.781C15.5751 100.517 15.6711 100.109 15.7431 99.5572H16.5711C16.4511 100.949 16.3911 103.397 16.3911 106.901H15.5631C15.4191 104.957 14.8551 103.325 13.8711 102.005C12.9111 100.661 11.5071 99.9892 9.65914 99.9892C8.36314 99.9892 7.30714 100.385 6.49114 101.177C5.67514 101.945 5.26714 102.941 5.26714 104.165C5.26714 105.077 5.47114 105.869 5.87914 106.541C6.31114 107.213 6.85114 107.789 7.49914 108.269C8.14714 108.749 9.07114 109.361 10.2711 110.105L11.3151 110.753C12.8271 111.689 14.0151 112.517 14.8791 113.237C15.7671 113.933 16.4751 114.737 17.0031 115.649C17.5311 116.561 17.7951 117.629 17.7951 118.853C17.7951 121.037 17.0751 122.729 15.6351 123.929C14.1951 125.105 12.3711 125.693 10.1631 125.693C9.01114 125.693 8.06314 125.573 7.31914 125.333C6.59914 125.093 5.90314 124.769 5.23114 124.361C4.70314 124.025 4.29514 123.857 4.00714 123.857C3.79114 123.857 3.62314 123.989 3.50314 124.253C3.38314 124.493 3.28714 124.889 3.21514 125.441H2.38714C2.48314 124.121 2.53114 121.241 2.53114 116.801H3.35914C3.52714 119.225 4.12714 121.193 5.15914 122.705C6.19114 124.217 7.77514 124.973 9.91114 124.973C11.2071 124.973 12.3111 124.577 13.2231 123.785C14.1351 122.969 14.5911 121.769 14.5911 120.185C14.5911 118.841 14.1351 117.701 13.2231 116.765C12.3351 115.829 10.9191 114.773 8.97514 113.597C7.55914 112.733 6.40714 111.965 5.51914 111.293C4.65514 110.621 3.94714 109.817 3.39514 108.881C2.84314 107.921 2.56714 106.805 2.56714 105.533C2.56714 103.517 3.21514 101.981 4.51114 100.925C5.80714 99.8452 7.41514 99.3052 9.33514 99.3052ZM39.3605 122.165C40.0085 123.653 40.8365 124.421 41.8445 124.469V125.189C40.8845 125.117 39.6005 125.081 37.9925 125.081C35.9285 125.081 34.3925 125.117 33.3845 125.189V124.469C34.2725 124.421 34.9205 124.301 35.3285 124.109C35.7605 123.917 35.9765 123.593 35.9765 123.137C35.9765 122.753 35.8085 122.189 35.4725 121.445L33.6365 117.341H24.8885L23.6645 120.041C23.2565 120.977 23.0525 121.745 23.0525 122.345C23.0525 122.969 23.2685 123.461 23.7005 123.821C24.1565 124.157 24.8765 124.373 25.8605 124.469V125.189C25.1405 125.117 24.0485 125.081 22.5845 125.081C21.1205 125.081 20.0765 125.117 19.4525 125.189V124.469C20.1005 124.301 20.6525 123.941 21.1085 123.389C21.5645 122.813 21.9965 122.057 22.4045 121.121L30.3605 103.121H30.9365L39.3605 122.165ZM33.3485 116.621L29.2805 107.477L25.1765 116.621H33.3485ZM60.5001 103.301C60.3321 104.741 60.2481 106.037 60.2481 107.189C60.2481 108.125 60.2841 108.869 60.3561 109.421H59.5281C59.3601 107.453 58.9401 106.085 58.2681 105.317C57.6201 104.525 56.5521 104.129 55.0641 104.129H52.4361C51.5721 104.129 50.9361 104.201 50.5281 104.345C50.1441 104.465 49.8801 104.729 49.7361 105.137C49.5921 105.545 49.5201 106.205 49.5201 107.117V113.813H52.5081C53.2761 113.813 53.8641 113.621 54.2721 113.237C54.6801 112.829 54.9561 112.397 55.1001 111.941C55.2441 111.461 55.3761 110.861 55.4961 110.141H56.3241C56.2521 110.957 56.2161 111.845 56.2161 112.805V114.173C56.2161 115.109 56.2881 116.453 56.4321 118.205H55.6041C55.4601 117.053 55.1841 116.153 54.7761 115.505C54.3681 114.857 53.6121 114.533 52.5081 114.533H49.5201V121.373C49.5201 122.285 49.6161 122.945 49.8081 123.353C50.0001 123.761 50.3361 124.037 50.8161 124.181C51.2961 124.325 52.0761 124.421 53.1561 124.469V125.189C51.9081 125.117 50.1441 125.081 47.8641 125.081C45.8001 125.081 44.2641 125.117 43.2561 125.189V124.469C44.1201 124.421 44.7441 124.325 45.1281 124.181C45.5361 124.037 45.8121 123.761 45.9561 123.353C46.1001 122.945 46.1721 122.285 46.1721 121.373V107.117C46.1721 106.205 46.1001 105.545 45.9561 105.137C45.8121 104.729 45.5361 104.453 45.1281 104.309C44.7441 104.165 44.1201 104.069 43.2561 104.021V103.301C45.5361 103.373 48.8961 103.409 53.3361 103.409C56.6961 103.409 59.0841 103.373 60.5001 103.301ZM80.7963 120.941C80.7963 122.189 80.8803 123.605 81.0483 125.189C79.4883 125.117 76.8603 125.081 73.1643 125.081C68.7243 125.081 65.3643 125.117 63.0843 125.189V124.469C63.9483 124.421 64.5723 124.325 64.9563 124.181C65.3643 124.037 65.6403 123.761 65.7843 123.353C65.9283 122.945 66.0003 122.285 66.0003 121.373V107.117C66.0003 106.205 65.9283 105.545 65.7843 105.137C65.6403 104.729 65.3643 104.453 64.9563 104.309C64.5723 104.165 63.9483 104.069 63.0843 104.021V103.301C65.3643 103.373 68.7243 103.409 73.1643 103.409C76.5243 103.409 78.9123 103.373 80.3283 103.301C80.1603 104.741 80.0763 106.037 80.0763 107.189C80.0763 108.125 80.1123 108.869 80.1843 109.421H79.3563C79.1883 107.453 78.7683 106.085 78.0963 105.317C77.4483 104.525 76.3803 104.129 74.8923 104.129H72.2643C71.4003 104.129 70.7643 104.201 70.3563 104.345C69.9723 104.465 69.7083 104.729 69.5643 105.137C69.4203 105.545 69.3483 106.205 69.3483 107.117V113.813H72.3363C73.1043 113.813 73.6923 113.621 74.1003 113.237C74.5083 112.829 74.7843 112.397 74.9283 111.941C75.0723 111.461 75.2043 110.861 75.3243 110.141H76.1523C76.0803 110.957 76.0443 111.845 76.0443 112.805V114.173C76.0443 115.109 76.1163 116.453 76.2603 118.205H75.4323C75.2883 117.053 75.0123 116.153 74.6043 115.505C74.1963 114.857 73.4403 114.533 72.3363 114.533H69.3483V121.373C69.3483 122.285 69.4203 122.945 69.5643 123.353C69.7083 123.761 69.9723 124.037 70.3563 124.181C70.7643 124.301 71.4003 124.361 72.2643 124.361H74.8923C76.0923 124.361 77.0403 124.169 77.7363 123.785C78.4323 123.401 78.9603 122.789 79.3203 121.949C79.6803 121.085 79.9323 119.885 80.0763 118.349H80.9043C80.8323 118.997 80.7963 119.861 80.7963 120.941ZM96.5184 99.1972C97.9344 99.1972 99.0984 99.4012 100.01 99.8092C100.922 100.193 101.918 100.769 102.998 101.537C103.31 101.777 103.55 101.897 103.718 101.897C104.174 101.897 104.474 101.165 104.618 99.7012H105.446C105.35 101.261 105.302 104.021 105.302 107.981H104.474C104.258 106.709 104.03 105.665 103.79 104.849C103.55 104.009 103.178 103.277 102.674 102.653C101.978 101.789 101.066 101.105 99.9384 100.601C98.8344 100.097 97.6704 99.8452 96.4464 99.8452C94.8624 99.8452 93.4704 100.361 92.2704 101.393C91.0704 102.425 90.1464 103.901 89.4984 105.821C88.8504 107.717 88.5264 109.937 88.5264 112.481C88.5264 116.801 89.2104 119.969 90.5784 121.985C91.9704 123.977 94.1424 124.973 97.0944 124.973C98.5344 124.973 99.7824 124.601 100.838 123.857C101.27 123.569 101.546 123.293 101.666 123.029C101.81 122.741 101.882 122.357 101.882 121.877V118.421C101.882 117.413 101.786 116.681 101.594 116.225C101.402 115.769 101.066 115.457 100.586 115.289C100.106 115.121 99.3264 115.013 98.2464 114.965V114.245C99.4944 114.317 101.186 114.353 103.322 114.353C104.954 114.353 106.202 114.317 107.066 114.245V114.965C106.514 115.013 106.106 115.109 105.842 115.253C105.602 115.397 105.434 115.673 105.338 116.081C105.266 116.489 105.23 117.149 105.23 118.061V125.189H104.51C104.486 124.709 104.39 124.253 104.222 123.821C104.054 123.365 103.826 123.137 103.538 123.137C103.394 123.137 103.25 123.173 103.106 123.245C102.962 123.317 102.71 123.485 102.35 123.749C101.51 124.397 100.634 124.877 99.7224 125.189C98.8344 125.525 97.8384 125.693 96.7344 125.693C94.2624 125.693 92.1384 125.189 90.3624 124.181C88.6104 123.149 87.2664 121.673 86.3304 119.753C85.3944 117.833 84.9264 115.541 84.9264 112.877C84.9264 110.141 85.4184 107.741 86.4024 105.677C87.4104 103.589 88.7904 101.993 90.5424 100.889C92.2944 99.7612 94.2864 99.1972 96.5184 99.1972ZM128.095 122.165C128.743 123.653 129.571 124.421 130.579 124.469V125.189C129.619 125.117 128.335 125.081 126.727 125.081C124.663 125.081 123.127 125.117 122.119 125.189V124.469C123.007 124.421 123.655 124.301 124.063 124.109C124.495 123.917 124.711 123.593 124.711 123.137C124.711 122.753 124.543 122.189 124.207 121.445L122.371 117.341H113.623L112.399 120.041C111.991 120.977 111.787 121.745 111.787 122.345C111.787 122.969 112.003 123.461 112.435 123.821C112.891 124.157 113.611 124.373 114.595 124.469V125.189C113.875 125.117 112.783 125.081 111.319 125.081C109.855 125.081 108.811 125.117 108.187 125.189V124.469C108.835 124.301 109.387 123.941 109.843 123.389C110.299 122.813 110.731 122.057 111.139 121.121L119.095 103.121H119.671L128.095 122.165ZM122.083 116.621L118.015 107.477L113.911 116.621H122.083ZM153.231 123.677C152.775 124.325 152.247 124.829 151.647 125.189C151.071 125.525 150.375 125.693 149.559 125.693C147.543 125.693 146.307 124.781 145.851 122.957L144.735 118.457C144.399 117.113 143.895 116.213 143.223 115.757C142.575 115.301 141.603 115.073 140.307 115.073H138.255V121.373C138.255 122.285 138.327 122.945 138.471 123.353C138.615 123.761 138.879 124.037 139.263 124.181C139.671 124.325 140.307 124.421 141.171 124.469V125.189C140.067 125.117 138.543 125.081 136.599 125.081C134.535 125.081 132.999 125.117 131.991 125.189V124.469C132.855 124.421 133.479 124.325 133.863 124.181C134.271 124.037 134.547 123.761 134.691 123.353C134.835 122.945 134.907 122.285 134.907 121.373V107.117C134.907 106.205 134.835 105.545 134.691 105.137C134.547 104.729 134.271 104.453 133.863 104.309C133.479 104.165 132.855 104.069 131.991 104.021V103.301C132.999 103.373 134.463 103.409 136.383 103.409L140.055 103.373C140.463 103.349 140.931 103.337 141.459 103.337C144.147 103.337 146.199 103.841 147.615 104.849C149.055 105.857 149.775 107.165 149.775 108.773C149.775 110.165 149.211 111.437 148.083 112.589C146.979 113.741 145.155 114.473 142.611 114.785C143.091 114.833 143.499 114.881 143.835 114.929C145.107 115.121 146.115 115.505 146.859 116.081C147.603 116.657 148.131 117.581 148.443 118.853L149.235 122.129C149.427 122.969 149.631 123.569 149.847 123.929C150.087 124.265 150.387 124.433 150.747 124.433C151.347 124.433 152.007 124.025 152.727 123.209L153.231 123.677ZM140.559 104.021C139.911 104.021 139.419 104.105 139.083 104.273C138.771 104.441 138.555 104.741 138.435 105.173C138.315 105.605 138.255 106.253 138.255 107.117V114.353H140.667C142.779 114.353 144.219 113.909 144.987 113.021C145.779 112.109 146.175 110.825 146.175 109.169C146.175 107.441 145.731 106.157 144.843 105.317C143.979 104.453 142.551 104.021 140.559 104.021ZM172.743 122.165C173.391 123.653 174.219 124.421 175.227 124.469V125.189C174.267 125.117 172.983 125.081 171.375 125.081C169.311 125.081 167.775 125.117 166.767 125.189V124.469C167.655 124.421 168.303 124.301 168.711 124.109C169.143 123.917 169.359 123.593 169.359 123.137C169.359 122.753 169.191 122.189 168.855 121.445L167.019 117.341H158.271L157.047 120.041C156.639 120.977 156.435 121.745 156.435 122.345C156.435 122.969 156.651 123.461 157.083 123.821C157.539 124.157 158.259 124.373 159.243 124.469V125.189C158.523 125.117 157.431 125.081 155.967 125.081C154.503 125.081 153.459 125.117 152.835 125.189V124.469C153.483 124.301 154.035 123.941 154.491 123.389C154.947 122.813 155.379 122.057 155.787 121.121L163.743 103.121H164.319L172.743 122.165ZM166.731 116.621L162.663 107.477L158.559 116.621H166.731ZM187.342 102.797C188.686 102.797 189.766 102.989 190.582 103.373C191.422 103.757 192.31 104.345 193.246 105.137C193.558 105.377 193.798 105.497 193.966 105.497C194.422 105.497 194.722 104.765 194.866 103.301H195.694C195.598 104.669 195.55 107.069 195.55 110.501H194.722C194.53 109.589 194.29 108.785 194.002 108.089C193.738 107.393 193.378 106.781 192.922 106.253C192.13 105.341 191.302 104.645 190.438 104.165C189.574 103.685 188.518 103.445 187.27 103.445C185.83 103.445 184.582 103.889 183.526 104.777C182.47 105.641 181.654 106.889 181.078 108.521C180.502 110.153 180.214 112.073 180.214 114.281C180.214 117.953 180.886 120.653 182.23 122.381C183.574 124.109 185.578 124.973 188.242 124.973C189.274 124.973 190.198 124.877 191.014 124.685C191.446 124.589 191.734 124.433 191.878 124.217C192.046 124.001 192.13 123.701 192.13 123.317V120.221C192.13 119.213 192.034 118.481 191.842 118.025C191.65 117.569 191.314 117.257 190.834 117.089C190.354 116.921 189.574 116.813 188.494 116.765V116.045C189.79 116.117 191.482 116.153 193.57 116.153C195.202 116.153 196.45 116.117 197.314 116.045V116.765C196.762 116.813 196.366 116.909 196.126 117.053C195.886 117.197 195.718 117.473 195.622 117.881C195.526 118.289 195.478 118.949 195.478 119.861V125.189H194.758C194.71 124.613 194.53 124.325 194.218 124.325C194.074 124.325 193.81 124.409 193.426 124.577C193.042 124.745 192.778 124.853 192.634 124.901C191.098 125.429 189.526 125.693 187.918 125.693C184.318 125.693 181.534 124.733 179.566 122.813C177.598 120.869 176.614 118.157 176.614 114.677C176.614 112.277 177.07 110.189 177.982 108.413C178.894 106.613 180.154 105.233 181.762 104.273C183.394 103.289 185.254 102.797 187.342 102.797ZM217.695 120.941C217.695 122.189 217.779 123.605 217.947 125.189C216.387 125.117 213.759 125.081 210.063 125.081C205.623 125.081 202.263 125.117 199.983 125.189V124.469C200.847 124.421 201.471 124.325 201.855 124.181C202.263 124.037 202.539 123.761 202.683 123.353C202.827 122.945 202.899 122.285 202.899 121.373V107.117C202.899 106.205 202.827 105.545 202.683 105.137C202.539 104.729 202.263 104.453 201.855 104.309C201.471 104.165 200.847 104.069 199.983 104.021V103.301C202.263 103.373 205.623 103.409 210.063 103.409C213.423 103.409 215.811 103.373 217.227 103.301C217.059 104.741 216.975 106.037 216.975 107.189C216.975 108.125 217.011 108.869 217.083 109.421H216.255C216.087 107.453 215.667 106.085 214.995 105.317C214.347 104.525 213.279 104.129 211.791 104.129H209.163C208.299 104.129 207.663 104.201 207.255 104.345C206.871 104.465 206.607 104.729 206.463 105.137C206.319 105.545 206.247 106.205 206.247 107.117V113.813H209.235C210.003 113.813 210.591 113.621 210.999 113.237C211.407 112.829 211.683 112.397 211.827 111.941C211.971 111.461 212.103 110.861 212.223 110.141H213.051C212.979 110.957 212.943 111.845 212.943 112.805V114.173C212.943 115.109 213.015 116.453 213.159 118.205H212.331C212.187 117.053 211.911 116.153 211.503 115.505C211.095 114.857 210.339 114.533 209.235 114.533H206.247V121.373C206.247 122.285 206.319 122.945 206.463 123.353C206.607 123.761 206.871 124.037 207.255 124.181C207.663 124.301 208.299 124.361 209.163 124.361H211.791C212.991 124.361 213.939 124.169 214.635 123.785C215.331 123.401 215.859 122.789 216.219 121.949C216.579 121.085 216.831 119.885 216.975 118.349H217.803C217.731 118.997 217.695 119.861 217.695 120.941Z" fill="#171717"/>
<path d="M198.838 73.091H185.948C185.948 73.091 184.504 63.8908 180.711 59.7983C177.315 56.1332 174.396 54.3338 169.433 53.7562C163.049 53.0134 158.699 55.2825 154.126 59.7983C150.372 63.5058 148.084 71.8826 148.084 71.8826H70.342C70.342 71.8826 69.3024 61.3517 64.7027 57.3815C60.2838 53.5674 55.9704 52.8645 50.2016 53.7562C45.2634 54.5195 42.2658 56.0844 38.9229 59.7983C35.5226 63.5762 34.0892 71.8826 34.0892 71.8826H23.6162C21.5743 70.0062 21.4196 67.9555 21.2135 65.2215L21.1994 65.0348C20.8419 60.3161 23.1371 57.7784 25.6303 53.7562C30.0446 46.6347 34.8636 44.2053 42.1454 40.0607C53.2865 33.7196 73.9673 32.0046 73.9673 32.0046C73.9673 32.0046 77.7413 22.8253 81.6206 17.9063C92.7105 3.84428 106.041 -0.932742 123.915 0.182699C139.503 1.15545 150.045 5.6819 159.765 17.9063C165.64 25.2949 169.433 40.0607 169.433 40.0607C169.433 40.0607 178.622 42.9628 183.531 46.5057C189.135 50.5501 192.115 53.6208 195.213 59.7983C197.625 64.6082 198.838 73.091 198.838 73.091Z" fill="#96BAFF"/>
<path d="M102.567 10.2529C108.128 8.21219 117.471 7.43323 117.471 7.43323V34.0186H80.4123C80.4123 34.0186 82.7906 24.8783 86.4544 20.3231C91.1049 14.5411 95.6008 12.8091 102.567 10.2529Z" fill="#F1F1F1"/>
<path d="M102.567 10.2529C108.128 8.21219 117.471 7.43323 117.471 7.43323V34.0186H80.4123C80.4123 34.0186 82.7906 24.8783 86.4544 20.3231C91.1049 14.5411 95.6008 12.8091 102.567 10.2529Z" fill="#F1F1F1"/>
<path d="M137.208 10.2529C131.647 8.21219 122.304 7.43323 122.304 7.43323V34.0186H159.363C159.363 34.0186 156.985 24.8783 153.321 20.3231C148.67 14.5411 144.174 12.8091 137.208 10.2529Z" fill="#F1F1F1"/>
<path d="M137.208 10.2529C131.647 8.21219 122.304 7.43323 122.304 7.43323V34.0186H159.363C159.363 34.0186 156.985 24.8783 153.321 20.3231C148.67 14.5411 144.174 12.8091 137.208 10.2529Z" fill="#F1F1F1"/>
<circle r="12.0842" transform="matrix(-1 0 0 1 167.419 71.0769)" fill="#7C83FD"/>
<circle r="12.0842" transform="matrix(-1 0 0 1 52.2155 71.0769)" fill="#7C83FD"/>
</svg>
