<svg width="57" height="80" viewBox="0 0 57 80" fill="none" xmlns="http://www.w3.org/2000/svg">
<circle cx="28.5" cy="28.5" r="28.5" fill="#EED6C4"/>
<path d="M44.72 64C43.952 64 43.312 63.744 42.8 63.232C42.288 62.72 42.032 62.1013 42.032 61.376V24.96L42.8 25.856L35.568 30.848C35.1413 31.1467 34.6507 31.296 34.096 31.296C33.3707 31.296 32.752 31.04 32.24 30.528C31.728 29.9733 31.472 29.3547 31.472 28.672C31.472 27.7333 31.92 26.9867 32.816 26.432L42.992 19.712C43.3333 19.4987 43.6747 19.3493 44.016 19.264C44.3573 19.1787 44.6987 19.1573 45.04 19.2C45.808 19.2 46.4053 19.456 46.832 19.968C47.3013 20.4373 47.536 21.0347 47.536 21.76V61.376C47.536 62.1013 47.2587 62.72 46.704 63.232C46.192 63.744 45.5307 64 44.72 64Z" fill="#1B1B1B"/>
</svg>
