<svg width="57" height="80" viewBox="0 0 57 80" fill="none" xmlns="http://www.w3.org/2000/svg">
<circle cx="28.5" cy="28.5" r="28.5" fill="#EED6C4"/>
<path d="M46 64C45.2747 64 44.656 63.744 44.144 63.232C43.6747 62.72 43.44 62.1013 43.44 61.376V26.368L44.464 26.752L29.168 46.72L28.912 45.952H52.848C53.5307 45.952 54.1067 46.1867 54.576 46.656C55.0453 47.1253 55.28 47.7013 55.28 48.384C55.28 49.024 55.0453 49.5787 54.576 50.048C54.1067 50.4747 53.5307 50.688 52.848 50.688H25.392C24.752 50.688 24.1547 50.432 23.6 49.92C23.088 49.408 22.832 48.8107 22.832 48.128C22.832 47.488 23.0453 46.9333 23.472 46.464L43.888 20.224C44.1867 19.84 44.528 19.584 44.912 19.456C45.296 19.2853 45.68 19.2 46.064 19.2C46.7893 19.2 47.3867 19.456 47.856 19.968C48.3253 20.4373 48.56 21.0347 48.56 21.76V61.376C48.56 62.1013 48.304 62.72 47.792 63.232C47.3227 63.744 46.7253 64 46 64Z" fill="#1B1B1B"/>
</svg>
