<svg width="57" height="80" viewBox="0 0 57 80" fill="none" xmlns="http://www.w3.org/2000/svg">
<circle cx="28.5" cy="28.5" r="28.5" fill="#EED6C4"/>
<path d="M51.016 59.2C51.6987 59.2 52.2747 59.4347 52.744 59.904C53.2133 60.3733 53.448 60.9493 53.448 61.632C53.448 62.3147 53.2133 62.8907 52.744 63.36C52.2747 63.7867 51.6987 64 51.016 64H27.784C27.016 64 26.376 63.7867 25.864 63.36C25.3947 62.8907 25.16 62.272 25.16 61.504C25.16 60.8213 25.416 60.2027 25.928 59.648L40.392 43.84C42.5253 41.536 44.1253 39.3813 45.192 37.376C46.3013 35.328 46.856 33.5147 46.856 31.936C46.856 29.3333 46.0667 27.264 44.488 25.728C42.952 24.1493 40.8827 23.36 38.28 23.36C37.128 23.36 35.976 23.616 34.824 24.128C33.672 24.5973 32.6267 25.2587 31.688 26.112C30.7493 26.9227 29.9813 27.84 29.384 28.864C29.0427 29.4187 28.68 29.7813 28.296 29.952C27.9547 30.08 27.592 30.144 27.208 30.144C26.568 30.144 25.992 29.9307 25.48 29.504C24.968 29.0347 24.712 28.5013 24.712 27.904C24.712 27.4347 24.84 27.008 25.096 26.624C25.352 26.1973 25.6933 25.728 26.12 25.216C27.016 23.9787 28.1253 22.8693 29.448 21.888C30.8133 20.864 32.2853 20.0533 33.864 19.456C35.4853 18.8587 37.064 18.56 38.6 18.56C41.3307 18.56 43.6987 19.0933 45.704 20.16C47.752 21.2267 49.3307 22.7413 50.44 24.704C51.5493 26.6667 52.104 28.9707 52.104 31.616C52.104 33.8773 51.4213 36.3733 50.056 39.104C48.6907 41.8347 46.6853 44.608 44.04 47.424L32.84 59.84L32.2 59.2H51.016Z" fill="#1B1B1B"/>
</svg>
