<svg width="57" height="80" viewBox="0 0 57 80" fill="none" xmlns="http://www.w3.org/2000/svg">
<circle cx="28.5" cy="28.5" r="28.5" fill="#EED6C4"/>
<path d="M29.208 56.576C29.464 56.576 29.7413 56.64 30.04 56.768C30.3813 56.8533 30.744 57.0667 31.128 57.408C31.9813 58.176 32.984 58.7947 34.136 59.264C35.288 59.7333 36.6107 59.968 38.104 59.968C39.9387 59.968 41.624 59.5627 43.16 58.752C44.696 57.8987 45.9333 56.704 46.872 55.168C47.8533 53.632 48.344 51.8613 48.344 49.856C48.344 47.68 47.8533 45.9093 46.872 44.544C45.9333 43.136 44.7173 42.112 43.224 41.472C41.7733 40.7893 40.2373 40.448 38.616 40.448C38.0187 40.448 37.464 40.4907 36.952 40.576C36.44 40.6613 35.9493 40.768 35.48 40.896C35.0533 41.024 34.648 41.088 34.264 41.088C33.5813 41.088 33.048 40.8533 32.664 40.384C32.28 39.9147 32.088 39.3387 32.088 38.656C32.088 38.272 32.152 37.9307 32.28 37.632C32.4507 37.2907 32.7067 36.928 33.048 36.544L45.464 23.104L46.488 24.32H28.312C27.6293 24.32 27.0533 24.0853 26.584 23.616C26.1147 23.1467 25.88 22.5707 25.88 21.888C25.88 21.2053 26.1147 20.6507 26.584 20.224C27.0533 19.7547 27.6293 19.52 28.312 19.52H49.176C50.1147 19.52 50.7973 19.7973 51.224 20.352C51.6507 20.864 51.864 21.44 51.864 22.08C51.864 22.464 51.7573 22.8267 51.544 23.168C51.3733 23.5093 51.1387 23.8293 50.84 24.128L38.424 37.632L36.952 36.352C37.1653 36.1813 37.656 36.032 38.424 35.904C39.192 35.7333 39.832 35.648 40.344 35.648C42.7333 35.648 44.9307 36.224 46.936 37.376C48.9413 38.528 50.5413 40.1493 51.736 42.24C52.9307 44.3307 53.528 46.7627 53.528 49.536C53.528 52.608 52.824 55.2747 51.416 57.536C50.008 59.7973 48.0667 61.5467 45.592 62.784C43.16 64.0213 40.408 64.64 37.336 64.64C35.6293 64.64 33.944 64.384 32.28 63.872C30.6587 63.3173 29.2507 62.528 28.056 61.504C27.5013 61.2053 27.1173 60.864 26.904 60.48C26.7333 60.096 26.648 59.712 26.648 59.328C26.648 58.688 26.8827 58.0693 27.352 57.472C27.864 56.8747 28.4827 56.576 29.208 56.576Z" fill="#1B1B1B"/>
</svg>
