<svg width="57" height="80" viewBox="0 0 57 80" fill="none" xmlns="http://www.w3.org/2000/svg">
<circle cx="28.5" cy="28.5" r="28.5" fill="#EED6C4"/>
<path d="M36.168 64.256C34.4613 64.256 32.712 64 30.92 63.488C29.1707 62.9333 27.6347 62.1227 26.312 61.056C25.9707 60.7573 25.6933 60.3733 25.48 59.904C25.2667 59.4347 25.16 58.9867 25.16 58.56C25.16 58.048 25.3733 57.5573 25.8 57.088C26.2693 56.576 26.8667 56.32 27.592 56.32C28.1467 56.32 28.7867 56.5973 29.512 57.152C30.4507 57.8773 31.496 58.4533 32.648 58.88C33.8 59.3067 34.952 59.52 36.104 59.52C38.4933 59.52 40.5627 59.072 42.312 58.176C44.0613 57.28 45.4053 56.0213 46.344 54.4C47.2827 52.7787 47.752 50.88 47.752 48.704C47.752 46.7413 47.304 45.0347 46.408 43.584C45.5547 42.0907 44.3387 40.9387 42.76 40.128C41.224 39.3173 39.4533 38.912 37.448 38.912C35.9547 38.912 34.6107 39.1467 33.416 39.616C32.264 40.0427 31.24 40.4907 30.344 40.96C29.4907 41.4293 28.744 41.664 28.104 41.664C27.2933 41.664 26.6747 41.4933 26.248 41.152C25.8213 40.768 25.544 40.2987 25.416 39.744C25.288 39.1893 25.2453 38.6773 25.288 38.208L27.784 21.632C27.912 21.0773 28.2107 20.5867 28.68 20.16C29.1493 19.7333 29.7253 19.52 30.408 19.52H49.416C50.0987 19.52 50.6747 19.7547 51.144 20.224C51.6133 20.6933 51.848 21.2907 51.848 22.016C51.848 22.6987 51.6133 23.2747 51.144 23.744C50.6747 24.1707 50.0987 24.384 49.416 24.384H31.688L32.328 23.808L29.96 38.272L28.936 36.928C29.4053 36.5013 30.1093 36.0747 31.048 35.648C32.0293 35.2213 33.1387 34.8587 34.376 34.56C35.656 34.2613 36.9573 34.112 38.28 34.112C41.0533 34.112 43.528 34.752 45.704 36.032C47.9227 37.2693 49.672 38.976 50.952 41.152C52.232 43.328 52.872 45.824 52.872 48.64C52.872 51.7547 52.1893 54.4853 50.824 56.832C49.4587 59.1787 47.5173 61.0133 45 62.336C42.5253 63.616 39.5813 64.256 36.168 64.256Z" fill="#1B1B1B"/>
</svg>
